<svg id="Grupo_50974" data-name="Grupo 50974" xmlns="http://www.w3.org/2000/svg" xmlns:xlink="http://www.w3.org/1999/xlink" width="322.83" height="39.735" viewBox="0 0 322.83 39.735">
  <defs>
    <clipPath id="clip-path">
      <rect id="Rectángulo_23152" data-name="Rectángulo 23152" width="24.931" height="24.93" fill="none"/>
    </clipPath>
  </defs>
  <g id="Grupo_50929" data-name="Grupo 50929">
    <rect id="Rectángulo_18532" data-name="Rectángulo 18532" width="65.713" height="39.664" rx="5" fill="none"/>
    <g id="Disney_Logo_2024_BLACK_RGB" data-name="Disney+Logo_2024_BLACK_RGB" transform="translate(8.001 7)">
      <path id="Trazado_109054" data-name="Trazado 109054" d="M7.656,293.437a12,12,0,0,0-6.441-.285,1.536,1.536,0,0,0-1.038.744.883.883,0,0,0-.162.641c.05.189.319.255.536.289s.68.058.808-.094c.066-.079.068-.3-.278-.375-.128-.027-.475-.039-.5-.1,0,0,.012-.041.2-.1a6.33,6.33,0,0,1,2.39-.226A16.3,16.3,0,0,1,8.787,295.2a12.512,12.512,0,0,1,5.049,3.544,5.172,5.172,0,0,1,1.088,2.343c.179,1.955-1.731,3.605-5.608,3.473a11.174,11.174,0,0,1-1.468-.18l-.08-3.775a12.046,12.046,0,0,1,3.455.585c.154.051.31.152.324.3a.4.4,0,0,1-.183.3c-.188.164-.447.236-.5.305a.119.119,0,0,0,.012.169,1.221,1.221,0,0,0,.7.157,1.3,1.3,0,0,0,.991-.651c.245-.369.384-1.308-.919-1.907a9.334,9.334,0,0,0-3.886-.629s-.011-.512-.034-.853c-.038-.559-.193-1.658-.7-1.974a.2.2,0,0,0-.272.023,2.749,2.749,0,0,0-.217.748,16.52,16.52,0,0,0-.192,2.182.117.117,0,0,1-.02.018,10.588,10.588,0,0,0-2.412.667,2.636,2.636,0,0,0-1.343,1.041c-.262.609.2,1.275.978,2.013a10.175,10.175,0,0,0,2.353,1.623c.184.087.4.194.4.194s.047.436.084.688a.772.772,0,0,0,1.019.737c.31-.063.37-.27.413-.509a1.737,1.737,0,0,0,.014-.32s.469.108.784.165a9.051,9.051,0,0,0,2.774.081c3.449-.471,4.318-2.1,4.593-2.53.477-.755,1.49-2.857-1.561-5.977a14.63,14.63,0,0,0-6.757-3.821Zm-4.555,8.5a.513.513,0,0,1-.192-.439c.028-.163.348-.307.509-.355a12.083,12.083,0,0,1,2.875-.482s-.012.558-.015,1.123c-.005,1.069.023,2.155.023,2.155a8.141,8.141,0,0,1-3.2-2Z" transform="translate(0.001 -283.014)" fill="#fff"/>
      <path id="Trazado_109055" data-name="Trazado 109055" d="M472.286,328.3a5.136,5.136,0,0,0,1.863-1.28,1.671,1.671,0,0,0,.518-1.4,1.034,1.034,0,0,0-.38-.608,1.41,1.41,0,0,0-.54-.256.61.61,0,0,1-.141-.031.411.411,0,0,1-.077-.088,1.383,1.383,0,0,0-.564-.38,2.771,2.771,0,0,0-1.816.167,4.172,4.172,0,0,0-1.413.967,1.683,1.683,0,0,0-.467,2.06,1.87,1.87,0,0,1,.245.414,1.8,1.8,0,0,1,.005.288.854.854,0,0,0,.272.6c.12.106.293.137.467-.126.058-.088.155-.268.155-.268a1.747,1.747,0,0,0,.69.151A3.118,3.118,0,0,0,472.286,328.3Zm-2.337-1.284s-.034-.071-.056-.124c-.15-.373.181-.794.484-1.052a1.785,1.785,0,0,1,1.09-.49s-.12.1-.219.183A7.028,7.028,0,0,0,469.949,327.013Zm1.289-.014a6.342,6.342,0,0,1,1.492-1.318,1.026,1.026,0,0,1,.914-.174.445.445,0,0,1,.27.357c.062.524-.542.961-.946,1.2a3.075,3.075,0,0,1-2.032.366c0-.013.22-.318.3-.428Z" transform="translate(-453.38 -313.299)" fill="#fff"/>
      <path id="Trazado_109056" data-name="Trazado 109056" d="M1019.225,472.917c-1.169-.811-3.055,1.761-3.885,3.037a2.733,2.733,0,0,1,.316-1.473s.7-1.22.8-1.467.152-.762.031-.812-.3.114-.3.114a5.465,5.465,0,0,0-1.8,2.995,2.57,2.57,0,0,0,.282,1.861,9.657,9.657,0,0,0-1.195,4.473,1.82,1.82,0,0,0,.953,1.379c.323.135.38-.254.38-.254a17.16,17.16,0,0,1,1.263-4.655c1.649.379,2.89-1.226,3.329-1.993a3.509,3.509,0,0,0,.4-1.654,1.9,1.9,0,0,0-.574-1.551Zm-1.074,3.185a3.01,3.01,0,0,1-1.466.605,12.055,12.055,0,0,1,1.814-2.554c.5-.559.561-.051.561-.051a2.439,2.439,0,0,1-.91,2Z" transform="translate(-979.501 -456.37)" fill="#fff"/>
      <path id="Trazado_109057" data-name="Trazado 109057" d="M904.489,482.626a.631.631,0,0,0-.441-.691,15.732,15.732,0,0,0-2.211.341c-.227.061-.126-.153-.126-.153l.273-.925s1.689-.065,1.935-.106c.227-.041.241-.2.241-.2a4.148,4.148,0,0,0,.021-.512c-.025-.265-.237-.24-.237-.24a10.035,10.035,0,0,0-1.551.009l.227-.71a22.115,22.115,0,0,0,2.479-.245c.351-.083.144-.427.144-.427-.426-.852-.917-.8-.917-.8a14.69,14.69,0,0,0-3.69.438c-.209.1-.187.253.086.6a1,1,0,0,0,.786.329l-.433.9a.829.829,0,0,0-.475.135c-.2.217.077.86.077.86s-.613,1.376-.169,2.1c.478.763,1.043.726,1.043.726a4.315,4.315,0,0,0,2.936-1.42Z" transform="translate(-870.182 -461.944)" fill="#fff"/>
      <path id="Trazado_109058" data-name="Trazado 109058" d="M746.277,453.341s-.25-.117-.314.133a.99.99,0,0,0,.031.51,22.032,22.032,0,0,1,.764,3.362s.029.367-.042.388c-.05.038-.106-.014-.106-.014a10.242,10.242,0,0,1-.754-1.143l-.133-.224a8.315,8.315,0,0,0-1.207-1.626.44.44,0,0,0-.721,0,6.3,6.3,0,0,0-.715,2.752,4.169,4.169,0,0,0,.145,2.075.547.547,0,0,0,.832.135c.31-.238.251-1.751.3-2.527s.124-.64.124-.64c.068-.018.423.695.423.695s.934,1.912,1.521,2.2a.939.939,0,0,0,1.253-.6,5.68,5.68,0,0,0,.031-3.42,3.338,3.338,0,0,0-1.434-2.057Z" transform="translate(-718.144 -438.125)" fill="#fff"/>
      <path id="Trazado_109059" data-name="Trazado 109059" d="M510.681,485.965a17.908,17.908,0,0,0-.233-2.462.755.755,0,0,0-.424-.594.525.525,0,0,0-.086-.025c-.16-.031-.252.189-.295.3a7.253,7.253,0,0,0-.242,1.341,18.488,18.488,0,0,0-.009,3.349c.053.37.175.611.549.688a.931.931,0,0,0,.55-.052.5.5,0,0,0,.205-.305,4.643,4.643,0,0,0,.028-1.073c-.016-.388-.026-.774-.044-1.166Z" transform="translate(-492.254 -466.702)" fill="#fff"/>
      <path id="Trazado_109060" data-name="Trazado 109060" d="M566.73,476.639a5.675,5.675,0,0,0-2.959-.328,3.637,3.637,0,0,0-2.472,1.068,1.324,1.324,0,0,0-.209,1.009.683.683,0,0,0,.375.427,9.349,9.349,0,0,0,2,.272,8.026,8.026,0,0,1,1.859.342s.463.161.46.426a.407.407,0,0,1-.2.306,4.476,4.476,0,0,1-2.613.646,2.087,2.087,0,0,1-.854-.183c-.13-.057-.3-.161-.276-.338.036-.284.362-.354.62-.33a1.951,1.951,0,0,1,.474.13c.57.225.829.414,1.33.338.187-.028.835-.169.922-.436a.187.187,0,0,0-.057-.184,2.907,2.907,0,0,0-.564-.26,6.436,6.436,0,0,0-1.507-.275,1.869,1.869,0,0,0-1.554.527c-.271.395-.332,1.189,1.013,1.858a3.856,3.856,0,0,0,2.082.372,2.462,2.462,0,0,0,1.985-1.14,1.884,1.884,0,0,0-.041-1.617c-.166-.308-.368-.718-1.869-.907-.24-.03-2.006-.235-2.168-.26-.09-.014-.5-.063-.358-.221a.639.639,0,0,1,.239-.1,15.788,15.788,0,0,1,3.077-.279,5.161,5.161,0,0,0,.951-.119.648.648,0,0,0,.468-.482c.026-.133-.037-.2-.162-.262Z" transform="translate(-542.263 -460.298)" fill="#fff"/>
      <path id="Trazado_109061" data-name="Trazado 109061" d="M1243.961,432h-2.774a20.221,20.221,0,0,0-.29-2.837.334.334,0,0,0-.328-.276h-.748a.234.234,0,0,0-.229.277A18.787,18.787,0,0,1,1239.9,432h-2.818a.234.234,0,0,0-.234.235v.851a.234.234,0,0,0,.234.235h2.818a18.831,18.831,0,0,1-.311,2.836.234.234,0,0,0,.229.277h.748a.334.334,0,0,0,.328-.276,20.221,20.221,0,0,0,.29-2.837h2.774a.234.234,0,0,0,.234-.235v-.851A.234.234,0,0,0,1243.961,432Z" transform="translate(-1195.409 -414.52)" fill="#fff"/>
      <path id="Trazado_109062" data-name="Trazado 109062" d="M306.6,7.186a.3.3,0,0,0,.374-.1,18.547,18.547,0,0,1,3.178-2.727c7.78-5.314,19.2-4.541,25.883,2.193a16.852,16.852,0,0,1,4.037,6.419.334.334,0,0,0,.316.228h.767a.234.234,0,0,0,.221-.309,18.458,18.458,0,0,0-4.782-7.364A21.5,21.5,0,0,0,310.3,3.588a19.851,19.851,0,0,0-3.713,3.276.21.21,0,0,0,.011.323Z" transform="translate(-296.245 0.002)" fill="#fff"/>
    </g>
  </g>
  <circle id="Elipse_412" data-name="Elipse 412" cx="2.884" cy="2.884" r="2.884" transform="translate(72 17)" fill="#fff"/>
  <circle id="Elipse_527" data-name="Elipse 527" cx="2.884" cy="2.884" r="2.884" transform="translate(158 17)" fill="#fff"/>
  <g id="Grupo_50968" data-name="Grupo 50968" transform="translate(85)">
    <rect id="Rectángulo_18532-2" data-name="Rectángulo 18532" width="65.712" height="39.664" rx="5" transform="translate(0 0)" fill="none"/>
    <g id="Max_Logo_00000139253708955800189760000016894300687880031154_" transform="translate(10.294 14.107)">
      <path id="x" d="M411.79,15.867h3.889a25.679,25.679,0,0,1,3.146-4.1,26.4,26.4,0,0,1,3.068,4.1h3.928a47.27,47.27,0,0,0-4.573-5.941,44.982,44.982,0,0,0,4.573-5.785h-3.85a27.542,27.542,0,0,1-3.146,3.967,25.072,25.072,0,0,1-3.146-3.967H411.79a38.747,38.747,0,0,0,4.593,5.785,50,50,0,0,0-4.593,5.941" transform="translate(-380.697 -3.829)" fill="#fff"/>
      <path id="a" d="M238.805,12.352a4.986,4.986,0,0,0,4.006-1.857v1.544h3.068V.313h-3.068V1.857A4.986,4.986,0,0,0,238.805,0a6.041,6.041,0,0,0-5.863,6.176,6.041,6.041,0,0,0,5.863,6.176m-2.97-6.176a3.459,3.459,0,1,1,3.459,3.459,3.453,3.453,0,0,1-3.459-3.459m.8,0A2.658,2.658,0,1,0,239.294,3.5a2.665,2.665,0,0,0-2.658,2.677" transform="translate(-215.353 0)" fill="#fff"/>
      <path id="m" d="M0,12.039H3.225V4.749C4.632,3.635,5.277,3.283,5.8,3.283c.625,0,1.036.391,1.036,1.368v7.387h3.225V4.73c1.407-1.094,2.033-1.446,2.58-1.446.625,0,1.036.391,1.036,1.368v7.387H16.9V3.518C16.9.879,15.4,0,13.954,0A6.822,6.822,0,0,0,9.83,1.759,2.787,2.787,0,0,0,7.114,0,6.805,6.805,0,0,0,3.029,1.778V.313H0Z" transform="translate(0 0)" fill="#fff"/>
    </g>
  </g>
  <g id="Grupo_50972" data-name="Grupo 50972" transform="translate(171)">
    <rect id="Rectángulo_18532-3" data-name="Rectángulo 18532" width="65.83" height="39.735" rx="5" fill="none"/>
    <g id="Grupo_50971" data-name="Grupo 50971" transform="translate(20 7)">
      <g id="Grupo_37564" data-name="Grupo 37564" transform="translate(0 0)" clip-path="url(#clip-path)">
        <path id="Trazado_91090" data-name="Trazado 91090" d="M10.982,5.542a2.309,2.309,0,0,0-.938-1.031,3.021,3.021,0,0,0-1.5-.334H6.535A.545.545,0,0,0,6.2,4.25a.4.4,0,0,0-.083.3V10.8a.4.4,0,0,0,.083.3.544.544,0,0,0,.339.074H8.793a2.176,2.176,0,0,0,2.19-1.366,2.7,2.7,0,0,0,.191-.634,5,5,0,0,0,.054-.81V7.036a5.659,5.659,0,0,0-.054-.884,2.244,2.244,0,0,0-.191-.609m-1.4,2.839a3.521,3.521,0,0,1-.054.673,1.092,1.092,0,0,1-.177.437.659.659,0,0,1-.324.236,1.556,1.556,0,0,1-.5.069h-.8V5.552h.8a.94.94,0,0,1,.8.329,1.852,1.852,0,0,1,.245,1.086ZM10.862,18.8H8.1l2.906-4.086a.691.691,0,0,0,.089-.158.43.43,0,0,0,.02-.137v-.786a.4.4,0,0,0-.084-.3.548.548,0,0,0-.34-.074H6.5a.384.384,0,0,0-.3.083.6.6,0,0,0-.069.349v.589a.593.593,0,0,0,.069.349.381.381,0,0,0,.3.084h2.59L6.221,18.8a.444.444,0,0,0-.109.275v.806a.4.4,0,0,0,.084.3.547.547,0,0,0,.34.074h4.326a.386.386,0,0,0,.3-.083.6.6,0,0,0,.069-.349v-.589a.6.6,0,0,0-.069-.349.382.382,0,0,0-.3-.084M24.432,0H0V10.8l1.412,1.412L0,13.628v10.8H24.432v-10.8l-1.412-1.412L24.432,10.8ZM21.206,12.669l1.7,1.7V22.9H1.531V14.363l1.693-1.693a.641.641,0,0,0,0-.907L1.531,10.069V1.531H22.9v8.536l-1.7,1.695a.641.641,0,0,0,0,.907m-3.261.592h-.658a.544.544,0,0,0-.339.074.4.4,0,0,0-.083.3v3.7l-1.944-3.713a.7.7,0,0,0-.231-.3.877.877,0,0,0-.4-.064h-.609a.544.544,0,0,0-.339.074.4.4,0,0,0-.083.3v6.248a.415.415,0,0,0,.079.3.52.52,0,0,0,.334.074h.668a.544.544,0,0,0,.338-.074.4.4,0,0,0,.083-.3V16.169l1.944,3.723a.694.694,0,0,0,.231.3.865.865,0,0,0,.4.064h.609a.545.545,0,0,0,.339-.074.4.4,0,0,0,.083-.3V13.634a.4.4,0,0,0-.083-.3.545.545,0,0,0-.339-.074m1.012-2.512L16.9,4.511a.547.547,0,0,0-.157-.27.5.5,0,0,0-.285-.064H15.315a.492.492,0,0,0-.29.069.5.5,0,0,0-.152.265l-2.081,6.238a.334.334,0,0,0-.039.2c0,.151.092.226.275.226h.854a1.532,1.532,0,0,0,.191-.01.214.214,0,0,0,.118-.05.336.336,0,0,0,.079-.118,2.157,2.157,0,0,0,.073-.206L14.667,9.7h2.346l.334,1.071a1.315,1.315,0,0,0,.079.217.41.41,0,0,0,.088.122.216.216,0,0,0,.118.054,1.317,1.317,0,0,0,.177.01h.913c.183,0,.275-.075.275-.226a.572.572,0,0,0,0-.093.91.91,0,0,0-.034-.1M15.04,8.44,15.826,5.8l.8,2.643Z" transform="translate(0 0.167)" fill="#f9fafa"/>
      </g>
    </g>
  </g>
  <g id="Grupo_50973" data-name="Grupo 50973" transform="translate(257)">
    <g id="Grupo_50302" data-name="Grupo 50302" transform="translate(4 15)">
      <path id="Trazado_108399" data-name="Trazado 108399" d="M2844.245,826.859h-.178v-.7h-.257v-.15h.691v.15h-.256Z" transform="translate(-2787.918 -817.187)" fill="#fff"/>
      <path id="Trazado_108400" data-name="Trazado 108400" d="M2849.984,826.859h-.165v-.71h0l-.157.71h-.174l-.155-.71h0v.71h-.167v-.849h.259l.154.669h0l.152-.669h.256Z" transform="translate(-2792.48 -817.187)" fill="#fff"/>
      <rect id="Rectángulo_28765" data-name="Rectángulo 28765" width="37.7" height="8.436" transform="translate(16.915 0.628)" fill="#fff"/>
      <path id="Trazado_108401" data-name="Trazado 108401" d="M2464.56,774.742v1.07h55.432v-9.663l-54.361-.009h-1.071" transform="translate(-2464.56 -766.14)" fill="#fff"/>
      <rect id="Rectángulo_28766" data-name="Rectángulo 28766" width="16.994" height="8.203" transform="translate(0.732 0.738)"/>
      <path id="Trazado_108402" data-name="Trazado 108402" d="M2480.54,784.388V778.35h3.635l.111,1.652h-2.035v.787h1.659v1.648h-1.671v1.951Z" transform="translate(-2478.185 -776.551)" fill="#fff"/>
      <path id="Trazado_108403" data-name="Trazado 108403" d="M2544.3,784.43l-1.819-3.132,1.652-2.889h-1.82l-.756,1.3-.741-1.3h-1.883l1.684,2.908-1.785,3.115h1.83l.872-1.527.883,1.524Z" transform="translate(-2527.885 -776.602)" fill="#fff"/>
      <path id="Trazado_108404" data-name="Trazado 108404" d="M2505.65,781.9a2.877,2.877,0,1,1,2.875,2.937A2.906,2.906,0,0,1,2505.65,781.9Zm3.394,1.207V780.7a.533.533,0,0,0-.51-.522.513.513,0,0,0-.487.522v2.4a.492.492,0,0,0,.487.5A.506.506,0,0,0,2509.044,783.111Z" transform="translate(-2499.594 -777.079)" fill="#fff"/>
      <g id="Grupo_50137" data-name="Grupo 50137" transform="translate(19.017 1.808)">
        <path id="Trazado_108405" data-name="Trazado 108405" d="M2595.2,780.752l-.087-.093v-.869l.12-.13h3.123l.309-.343v-.906h-4.3l-.759.824v2.046l.659.713h2.967l.088.1v.889l-.121.13h-3.2l-.395.416v.84h4.459l.757-.822v-2.072l-.659-.718Z" transform="translate(-2593.6 -778.41)"/>
        <path id="Trazado_108406" data-name="Trazado 108406" d="M2635.39,778.41v5.954h1.512v-1.911h2.953l.846-.918v-2.206l-.846-.918h-4.465Zm3.794,2.644-.221.239H2636.9v-1.62h2.061l.221.24v1.139Z" transform="translate(-2629.231 -778.41)"/>
        <path id="Trazado_108407" data-name="Trazado 108407" d="M2677.639,778.41l-.838.918v4.121l.838.915h3.707l.847-.915v-4.121l-.847-.918Zm3.045,4.227-.312.333h-1.758l-.31-.333v-2.6l.31-.338h1.758l.313.338Z" transform="translate(-2664.539 -778.41)"/>
        <path id="Trazado_108408" data-name="Trazado 108408" d="M2725.342,781.133v-1.9l-.759-.824h-4.513v5.954h1.511V782.2h1.6l.71,2.159h1.681l-.955-2.443Zm-1.51-.4-.214.233h-2.035V779.63h2.035l.214.233Z" transform="translate(-2701.432 -778.41)"/>
        <path id="Trazado_108409" data-name="Trazado 108409" d="M2759.31,779.789h1.745v4.574h1.512v-4.574h1.745V778.41h-5Z" transform="translate(-2734.889 -778.41)"/>
        <path id="Trazado_108410" data-name="Trazado 108410" d="M2801.071,780.752h-2.962l-.086-.093v-.869l.121-.13h3.12l.309-.343v-.906h-4.3l-.76.824v2.046l.66.713h2.967l.088.1v.889l-.12.13h-3.2l-.4.416v.84h4.459l.76-.822v-2.072Z" transform="translate(-2766.606 -778.41)"/>
      </g>
      <path id="Trazado_108411" data-name="Trazado 108411" d="M2844.245,826.859h-.178v-.7h-.257v-.15h.691v.15h-.256Z" transform="translate(-2787.918 -817.187)" fill="#fff"/>
      <path id="Trazado_108412" data-name="Trazado 108412" d="M2849.984,826.859h-.165v-.71h0l-.157.71h-.174l-.155-.71h0v.71h-.167v-.849h.259l.154.669h0l.152-.669h.256Z" transform="translate(-2792.48 -817.187)" fill="#fff"/>
      <rect id="Rectángulo_28767" data-name="Rectángulo 28767" width="37.7" height="8.436" transform="translate(16.915 0.628)" fill="#fff"/>
      <path id="Trazado_108413" data-name="Trazado 108413" d="M2464.56,774.742v1.07h55.432v-9.663l-54.361-.009h-1.071" transform="translate(-2464.56 -766.14)" fill="#fff"/>
      <rect id="Rectángulo_28768" data-name="Rectángulo 28768" width="16.994" height="8.203" transform="translate(0.732 0.738)" fill="#1c1c1c"/>
      <path id="Trazado_108414" data-name="Trazado 108414" d="M2480.54,784.388V778.35h3.635l.111,1.652h-2.035v.787h1.659v1.648h-1.671v1.951Z" transform="translate(-2478.185 -776.551)" fill="#fff"/>
      <path id="Trazado_108415" data-name="Trazado 108415" d="M2544.3,784.43l-1.819-3.132,1.652-2.889h-1.82l-.756,1.3-.741-1.3h-1.883l1.684,2.908-1.785,3.115h1.83l.872-1.527.883,1.524Z" transform="translate(-2527.885 -776.602)" fill="#fff"/>
      <path id="Trazado_108416" data-name="Trazado 108416" d="M2505.65,781.9a2.877,2.877,0,1,1,2.875,2.937A2.906,2.906,0,0,1,2505.65,781.9Zm3.394,1.207V780.7a.533.533,0,0,0-.51-.522.513.513,0,0,0-.487.522v2.4a.492.492,0,0,0,.487.5A.506.506,0,0,0,2509.044,783.111Z" transform="translate(-2499.594 -777.079)" fill="#fff"/>
      <g id="Grupo_50138" data-name="Grupo 50138" transform="translate(19.017 1.808)">
        <path id="Trazado_108417" data-name="Trazado 108417" d="M2595.2,780.752l-.087-.093v-.869l.12-.13h3.123l.309-.343v-.906h-4.3l-.759.824v2.046l.659.713h2.967l.088.1v.889l-.121.13h-3.2l-.395.416v.84h4.459l.757-.822v-2.072l-.659-.718Z" transform="translate(-2593.6 -778.41)"/>
        <path id="Trazado_108418" data-name="Trazado 108418" d="M2635.39,778.41v5.954h1.512v-1.911h2.953l.846-.918v-2.206l-.846-.918h-4.465Zm3.794,2.644-.221.239H2636.9v-1.62h2.061l.221.24v1.139Z" transform="translate(-2629.231 -778.41)"/>
        <path id="Trazado_108419" data-name="Trazado 108419" d="M2677.639,778.41l-.838.918v4.121l.838.915h3.707l.847-.915v-4.121l-.847-.918Zm3.045,4.227-.312.333h-1.758l-.31-.333v-2.6l.31-.338h1.758l.313.338Z" transform="translate(-2664.539 -778.41)"/>
        <path id="Trazado_108420" data-name="Trazado 108420" d="M2725.342,781.133v-1.9l-.759-.824h-4.513v5.954h1.511V782.2h1.6l.71,2.159h1.681l-.955-2.443Zm-1.51-.4-.214.233h-2.035V779.63h2.035l.214.233Z" transform="translate(-2701.432 -778.41)"/>
        <path id="Trazado_108421" data-name="Trazado 108421" d="M2759.31,779.789h1.745v4.574h1.512v-4.574h1.745V778.41h-5Z" transform="translate(-2734.889 -778.41)"/>
        <path id="Trazado_108422" data-name="Trazado 108422" d="M2801.071,780.752h-2.962l-.086-.093v-.869l.121-.13h3.12l.309-.343v-.906h-4.3l-.76.824v2.046l.66.713h2.967l.088.1v.889l-.12.13h-3.2l-.4.416v.84h4.459l.76-.822v-2.072Z" transform="translate(-2766.606 -778.41)"/>
      </g>
    </g>
    <rect id="Rectángulo_18532-4" data-name="Rectángulo 18532" width="65.83" height="39.735" rx="5" fill="none"/>
  </g>
  <circle id="Elipse_532" data-name="Elipse 532" cx="2.884" cy="2.884" r="2.884" transform="translate(244 17)" fill="#fff"/>
</svg>
