<svg xmlns="http://www.w3.org/2000/svg" xmlns:xlink="http://www.w3.org/1999/xlink" width="230.713" height="39.664" viewBox="0 0 230.713 39.664">
  <defs>
    <clipPath id="clip-path">
      <rect id="Rectángulo_28912" data-name="Rectángulo 28912" width="30.08" height="27.158" fill="none"/>
    </clipPath>
  </defs>
  <g id="Grupo_50946" data-name="Grupo 50946" transform="translate(-768 -597)">
    <g id="Grupo_50929" data-name="Grupo 50929" transform="translate(333 -78)">
      <rect id="Rectángulo_18532" data-name="Rectángulo 18532" width="65.713" height="39.664" rx="5" transform="translate(435 675)" fill="none"/>
      <g id="Disney_Logo_2024_BLACK_RGB" data-name="Disney+Logo_2024_BLACK_RGB" transform="translate(443.002 682.002)">
        <path id="Trazado_109054" data-name="Trazado 109054" d="M7.656,293.437a12,12,0,0,0-6.441-.285,1.536,1.536,0,0,0-1.038.744.883.883,0,0,0-.162.641c.05.189.319.255.536.289s.68.058.808-.094c.066-.079.068-.3-.278-.375-.128-.027-.475-.039-.5-.1,0,0,.012-.041.2-.1a6.33,6.33,0,0,1,2.39-.226A16.3,16.3,0,0,1,8.787,295.2a12.512,12.512,0,0,1,5.049,3.544,5.172,5.172,0,0,1,1.088,2.343c.179,1.955-1.731,3.605-5.608,3.473a11.174,11.174,0,0,1-1.468-.18l-.08-3.775a12.046,12.046,0,0,1,3.455.585c.154.051.31.152.324.3a.4.4,0,0,1-.183.3c-.188.164-.447.236-.5.305a.119.119,0,0,0,.012.169,1.221,1.221,0,0,0,.7.157,1.3,1.3,0,0,0,.991-.651c.245-.369.384-1.308-.919-1.907a9.334,9.334,0,0,0-3.886-.629s-.011-.512-.034-.853c-.038-.559-.193-1.658-.7-1.974a.2.2,0,0,0-.272.023,2.749,2.749,0,0,0-.217.748,16.52,16.52,0,0,0-.192,2.182.117.117,0,0,1-.02.018,10.588,10.588,0,0,0-2.412.667,2.636,2.636,0,0,0-1.343,1.041c-.262.609.2,1.275.978,2.013a10.175,10.175,0,0,0,2.353,1.623c.184.087.4.194.4.194s.047.436.084.688a.772.772,0,0,0,1.019.737c.31-.063.37-.27.413-.509a1.737,1.737,0,0,0,.014-.32s.469.108.784.165a9.051,9.051,0,0,0,2.774.081c3.449-.471,4.318-2.1,4.593-2.53.477-.755,1.49-2.857-1.561-5.977a14.63,14.63,0,0,0-6.757-3.821Zm-4.555,8.5a.513.513,0,0,1-.192-.439c.028-.163.348-.307.509-.355a12.083,12.083,0,0,1,2.875-.482s-.012.558-.015,1.123c-.005,1.069.023,2.155.023,2.155a8.141,8.141,0,0,1-3.2-2Z" transform="translate(0 -283.016)" fill="#fff"/>
        <path id="Trazado_109055" data-name="Trazado 109055" d="M472.286,328.3a5.136,5.136,0,0,0,1.863-1.28,1.671,1.671,0,0,0,.518-1.4,1.034,1.034,0,0,0-.38-.608,1.41,1.41,0,0,0-.54-.256.61.61,0,0,1-.141-.031.411.411,0,0,1-.077-.088,1.383,1.383,0,0,0-.564-.38,2.771,2.771,0,0,0-1.816.167,4.172,4.172,0,0,0-1.413.967,1.683,1.683,0,0,0-.467,2.06,1.87,1.87,0,0,1,.245.414,1.8,1.8,0,0,1,.005.288.854.854,0,0,0,.272.6c.12.106.293.137.467-.126.058-.088.155-.268.155-.268a1.747,1.747,0,0,0,.69.151A3.118,3.118,0,0,0,472.286,328.3Zm-2.337-1.284s-.034-.071-.056-.124c-.15-.373.181-.794.484-1.052a1.785,1.785,0,0,1,1.09-.49s-.12.1-.219.183A7.028,7.028,0,0,0,469.949,327.013Zm1.289-.014a6.342,6.342,0,0,1,1.492-1.318,1.026,1.026,0,0,1,.914-.174.445.445,0,0,1,.27.357c.062.524-.542.961-.946,1.2a3.075,3.075,0,0,1-2.032.366c0-.013.22-.318.3-.428Z" transform="translate(-453.381 -313.3)" fill="#fff"/>
        <path id="Trazado_109056" data-name="Trazado 109056" d="M1019.225,472.917c-1.169-.811-3.055,1.761-3.885,3.037a2.733,2.733,0,0,1,.316-1.473s.7-1.22.8-1.467.152-.762.031-.812-.3.114-.3.114a5.465,5.465,0,0,0-1.8,2.995,2.57,2.57,0,0,0,.282,1.861,9.657,9.657,0,0,0-1.195,4.473,1.82,1.82,0,0,0,.953,1.379c.323.135.38-.254.38-.254a17.16,17.16,0,0,1,1.263-4.655c1.649.379,2.89-1.226,3.329-1.993a3.509,3.509,0,0,0,.4-1.654,1.9,1.9,0,0,0-.574-1.551Zm-1.074,3.185a3.01,3.01,0,0,1-1.466.605,12.055,12.055,0,0,1,1.814-2.554c.5-.559.561-.051.561-.051a2.439,2.439,0,0,1-.91,2Z" transform="translate(-979.502 -456.372)" fill="#fff"/>
        <path id="Trazado_109057" data-name="Trazado 109057" d="M904.489,482.626a.631.631,0,0,0-.441-.691,15.732,15.732,0,0,0-2.211.341c-.227.061-.126-.153-.126-.153l.273-.925s1.689-.065,1.935-.106c.227-.041.241-.2.241-.2a4.148,4.148,0,0,0,.021-.512c-.025-.265-.237-.24-.237-.24a10.035,10.035,0,0,0-1.551.009l.227-.71a22.115,22.115,0,0,0,2.479-.245c.351-.083.144-.427.144-.427-.426-.852-.917-.8-.917-.8a14.69,14.69,0,0,0-3.69.438c-.209.1-.187.253.086.6a1,1,0,0,0,.786.329l-.433.9a.829.829,0,0,0-.475.135c-.2.217.077.86.077.86s-.613,1.376-.169,2.1c.478.763,1.043.726,1.043.726a4.315,4.315,0,0,0,2.936-1.42Z" transform="translate(-870.184 -461.945)" fill="#fff"/>
        <path id="Trazado_109058" data-name="Trazado 109058" d="M746.277,453.341s-.25-.117-.314.133a.99.99,0,0,0,.031.51,22.032,22.032,0,0,1,.764,3.362s.029.367-.042.388c-.05.038-.106-.014-.106-.014a10.242,10.242,0,0,1-.754-1.143l-.133-.224a8.315,8.315,0,0,0-1.207-1.626.44.44,0,0,0-.721,0,6.3,6.3,0,0,0-.715,2.752,4.169,4.169,0,0,0,.145,2.075.547.547,0,0,0,.832.135c.31-.238.251-1.751.3-2.527s.124-.64.124-.64c.068-.018.423.695.423.695s.934,1.912,1.521,2.2a.939.939,0,0,0,1.253-.6,5.68,5.68,0,0,0,.031-3.42,3.338,3.338,0,0,0-1.434-2.057Z" transform="translate(-718.146 -438.127)" fill="#fff"/>
        <path id="Trazado_109059" data-name="Trazado 109059" d="M510.681,485.965a17.908,17.908,0,0,0-.233-2.462.755.755,0,0,0-.424-.594.525.525,0,0,0-.086-.025c-.16-.031-.252.189-.295.3a7.253,7.253,0,0,0-.242,1.341,18.488,18.488,0,0,0-.009,3.349c.053.37.175.611.549.688a.931.931,0,0,0,.55-.052.5.5,0,0,0,.205-.305,4.643,4.643,0,0,0,.028-1.073c-.016-.388-.026-.774-.044-1.166Z" transform="translate(-492.255 -466.704)" fill="#fff"/>
        <path id="Trazado_109060" data-name="Trazado 109060" d="M566.73,476.639a5.675,5.675,0,0,0-2.959-.328,3.637,3.637,0,0,0-2.472,1.068,1.324,1.324,0,0,0-.209,1.009.683.683,0,0,0,.375.427,9.349,9.349,0,0,0,2,.272,8.026,8.026,0,0,1,1.859.342s.463.161.46.426a.407.407,0,0,1-.2.306,4.476,4.476,0,0,1-2.613.646,2.087,2.087,0,0,1-.854-.183c-.13-.057-.3-.161-.276-.338.036-.284.362-.354.62-.33a1.951,1.951,0,0,1,.474.13c.57.225.829.414,1.33.338.187-.028.835-.169.922-.436a.187.187,0,0,0-.057-.184,2.907,2.907,0,0,0-.564-.26,6.436,6.436,0,0,0-1.507-.275,1.869,1.869,0,0,0-1.554.527c-.271.395-.332,1.189,1.013,1.858a3.856,3.856,0,0,0,2.082.372,2.462,2.462,0,0,0,1.985-1.14,1.884,1.884,0,0,0-.041-1.617c-.166-.308-.368-.718-1.869-.907-.24-.03-2.006-.235-2.168-.26-.09-.014-.5-.063-.358-.221a.639.639,0,0,1,.239-.1,15.788,15.788,0,0,1,3.077-.279,5.161,5.161,0,0,0,.951-.119.648.648,0,0,0,.468-.482c.026-.133-.037-.2-.162-.262Z" transform="translate(-542.264 -460.3)" fill="#fff"/>
        <path id="Trazado_109061" data-name="Trazado 109061" d="M1243.961,432h-2.774a20.221,20.221,0,0,0-.29-2.837.334.334,0,0,0-.328-.276h-.748a.234.234,0,0,0-.229.277A18.787,18.787,0,0,1,1239.9,432h-2.818a.234.234,0,0,0-.234.235v.851a.234.234,0,0,0,.234.235h2.818a18.831,18.831,0,0,1-.311,2.836.234.234,0,0,0,.229.277h.748a.334.334,0,0,0,.328-.276,20.221,20.221,0,0,0,.29-2.837h2.774a.234.234,0,0,0,.234-.235v-.851A.234.234,0,0,0,1243.961,432Z" transform="translate(-1195.41 -414.522)" fill="#fff"/>
        <path id="Trazado_109062" data-name="Trazado 109062" d="M306.6,7.186a.3.3,0,0,0,.374-.1,18.547,18.547,0,0,1,3.178-2.727c7.78-5.314,19.2-4.541,25.883,2.193a16.852,16.852,0,0,1,4.037,6.419.334.334,0,0,0,.316.228h.767a.234.234,0,0,0,.221-.309,18.458,18.458,0,0,0-4.782-7.364A21.5,21.5,0,0,0,310.3,3.588a19.851,19.851,0,0,0-3.713,3.276.21.21,0,0,0,.011.323Z" transform="translate(-296.246 0)" fill="#fff"/>
      </g>
    </g>
    <circle id="Elipse_412" data-name="Elipse 412" cx="2.884" cy="2.884" r="2.884" transform="translate(839 614)" fill="#fff"/>
    <ellipse id="Elipse_424" data-name="Elipse 424" cx="2.885" cy="2.884" rx="2.885" ry="2.884" transform="translate(922 614)" fill="#fff"/>
    <g id="Grupo_50944" data-name="Grupo 50944" transform="translate(851 597)">
      <rect id="Rectángulo_18532-2" data-name="Rectángulo 18532" width="65.712" height="39.664" rx="5" transform="translate(0 0)" fill="none"/>
      <g id="Max_Logo_00000139253708955800189760000016894300687880031154_" transform="translate(10.294 14.107)">
        <path id="x" d="M411.79,15.867h3.889a25.679,25.679,0,0,1,3.146-4.1,26.4,26.4,0,0,1,3.068,4.1h3.928a47.27,47.27,0,0,0-4.573-5.941,44.982,44.982,0,0,0,4.573-5.785h-3.85a27.542,27.542,0,0,1-3.146,3.967,25.072,25.072,0,0,1-3.146-3.967H411.79a38.747,38.747,0,0,0,4.593,5.785,50,50,0,0,0-4.593,5.941" transform="translate(-380.697 -3.829)" fill="#fff"/>
        <path id="a" d="M238.805,12.352a4.986,4.986,0,0,0,4.006-1.857v1.544h3.068V.313h-3.068V1.857A4.986,4.986,0,0,0,238.805,0a6.041,6.041,0,0,0-5.863,6.176,6.041,6.041,0,0,0,5.863,6.176m-2.97-6.176a3.459,3.459,0,1,1,3.459,3.459,3.453,3.453,0,0,1-3.459-3.459m.8,0A2.658,2.658,0,1,0,239.294,3.5a2.665,2.665,0,0,0-2.658,2.677" transform="translate(-215.353 0)" fill="#fff"/>
        <path id="m" d="M0,12.039H3.225V4.749C4.632,3.635,5.277,3.283,5.8,3.283c.625,0,1.036.391,1.036,1.368v7.387h3.225V4.73c1.407-1.094,2.033-1.446,2.58-1.446.625,0,1.036.391,1.036,1.368v7.387H16.9V3.518C16.9.879,15.4,0,13.954,0A6.822,6.822,0,0,0,9.83,1.759,2.787,2.787,0,0,0,7.114,0,6.805,6.805,0,0,0,3.029,1.778V.313H0Z" transform="translate(0 0)" fill="#fff"/>
      </g>
    </g>
    <g id="Grupo_50945" data-name="Grupo 50945" transform="translate(486 -76)">
      <rect id="Rectángulo_18532-3" data-name="Rectángulo 18532" width="65.713" height="39.664" rx="5" transform="translate(447 673)" fill="none"/>
      <g id="Grupo_50932" data-name="Grupo 50932" transform="translate(465 679)">
        <g id="Grupo_50931" data-name="Grupo 50931" clip-path="url(#clip-path)">
          <path id="Trazado_109160" data-name="Trazado 109160" d="M107.077,88.256l.346-.1h-.013l.018-.005a12.256,12.256,0,0,0-1.583.526c.113-.044.247-.095.436-.165,0,0,.4-.14.8-.252" transform="translate(-94.953 -79.077)" fill="#7eaf00"/>
          <path id="Trazado_109161" data-name="Trazado 109161" d="M95.475,94.227c-.409.176-.658.307-.658.307-.092.055-.181.114-.266.175a2.692,2.692,0,0,1,.252-.148c.335-.172.506-.26.672-.335" transform="translate(-84.822 -84.531)" fill="#7eaf00"/>
          <path id="Trazado_109162" data-name="Trazado 109162" d="M109.462,90.1c.315-.037.63-.064.933-.083a2.488,2.488,0,0,1,1.245-1.655l-.338-.006a4.083,4.083,0,0,0-.943.537,3.093,3.093,0,0,0-.9,1.206" transform="translate(-98.198 -79.265)" fill="#fff"/>
          <path id="Trazado_109163" data-name="Trazado 109163" d="M116.771,58.648a.577.577,0,1,0,.005.077.6.6,0,0,0-.005-.077" transform="translate(-103.692 -52.146)" fill="#fff"/>
          <path id="Trazado_109164" data-name="Trazado 109164" d="M145.982,208.8a.183.183,0,0,0-.022.016l.021-.005a.012.012,0,0,1,0-.011" transform="translate(-130.941 -187.316)" fill="#fff"/>
          <path id="Trazado_109165" data-name="Trazado 109165" d="M87.31,55.8a7.667,7.667,0,0,0-.286-1.43,6.662,6.662,0,0,0-.573-1.315,4.432,4.432,0,0,0-.987-1.242,8.8,8.8,0,0,0-2.654-1.208c-.061-.017-.323-.107-.349-.115l.022,0h0a.955.955,0,0,1-.209-.077,2.016,2.016,0,0,0-.711-.577,2.611,2.611,0,0,0-1.158-.263.619.619,0,0,1,.2-.266,1.96,1.96,0,0,1,.776-.226A.8.8,0,0,0,82,48.823c.159-.2.14-.251.183-.724a3.6,3.6,0,0,1,.063-.485l.026,0a.715.715,0,1,0-.416-.138,7.135,7.135,0,0,0-.041.925c-.012.311-.17.349-.571.435a1.339,1.339,0,0,0-.851.379.987.987,0,0,0-.212.36l-.144.009a.725.725,0,0,1-.262-.22,2.554,2.554,0,0,1-.187-.859c-.042-.27-.219-.548-.767-.568a.581.581,0,0,1,.005.077.589.589,0,0,1-.066.266l.261,0a.31.31,0,0,1,.26.18,1.225,1.225,0,0,1,.106.4,1.039,1.039,0,0,0,.354.762,1.9,1.9,0,0,0-.683.247,2,2,0,0,0-.657.558.482.482,0,0,1-.186.079l-.018.005h.014l-.346.1c-.394.112-.8.252-.8.252-.189.07-.324.121-.436.165-.088.035-.163.066-.238.1-.166.075-.337.163-.672.335a2.692,2.692,0,0,0-.252.148,3,3,0,0,0-.688.631c-.064.081-.1.132-.1.132a4.549,4.549,0,0,0-.728,1.193,7.68,7.68,0,0,0-.572,1.9,8.988,8.988,0,0,0-.09,1.91c.017.332.034.6.055.835a6,6,0,0,0,.3,1.45,5.741,5.741,0,0,0,.747,1.546,3.236,3.236,0,0,0,1.853,1.264,6.834,6.834,0,0,0,.663.168,16.805,16.805,0,0,0,2.566.276c-.509-.019-1.36-.112-1.36-.112a9.608,9.608,0,0,1-1.738-.367,3.848,3.848,0,0,1-1.757-1.2,4.164,4.164,0,0,1-.668-1.357,8.034,8.034,0,0,1-.359-1.74,12.017,12.017,0,0,1-.011-1.929,8.627,8.627,0,0,1,.334-1.924,6.37,6.37,0,0,1,.908-1.888,3.751,3.751,0,0,1,1.491-1.168,11.831,11.831,0,0,1,1.973-.719l.085,0a6.867,6.867,0,0,0-2.531,1.322,4.269,4.269,0,0,0-1.346,2.4,12.48,12.48,0,0,0-.334,3.213,6.071,6.071,0,0,0,.591,3.1,3.315,3.315,0,0,0,2.326,2,9.8,9.8,0,0,0,2.484.366l.139.014a3.6,3.6,0,0,0,.5.013h.148a.012.012,0,0,0,.011-.012c0-.16.024-1.449.017-1.948.214,0,1.082-.015,1.811-.085a2.106,2.106,0,0,1-1.411,2.04s.005.005.015,0a3.793,3.793,0,0,0,2.224-.842,2.035,2.035,0,0,0,.726-1.436c.241-.048.447-.1.6-.139l.071-.019.022-.006a3.621,3.621,0,0,0,.4-.123,2.882,2.882,0,0,1-1.119,1.752,5.335,5.335,0,0,1-2.531.788c-.078.007-.142.011-.19.014q.167-.008.326-.018a8,8,0,0,0,2.625-.513,3.17,3.17,0,0,0,.978-.591,4.311,4.311,0,0,0,1.226-2.423,11.459,11.459,0,0,0,.193-2.492,21.245,21.245,0,0,0-.263-2.5,6.676,6.676,0,0,0-.631-1.7,4.13,4.13,0,0,0-1.379-1.328,4.941,4.941,0,0,0-1.1-.595c-.176-.066-.65-.234-.737-.265L82.4,50.5c.374.125.529.173.529.173a9.675,9.675,0,0,1,1.483.595,4.355,4.355,0,0,1,1.113.752,5.2,5.2,0,0,1,.784,1.111,9.528,9.528,0,0,1,.414.989c.082.192.239.945.277,1.1s.128,1.089.142,1.386-.016,1.39-.047,1.642-.144.94-.246,1.339a5.805,5.805,0,0,1-.553,1.33,3.329,3.329,0,0,1-.929,1,4.651,4.651,0,0,1-1.49.655c-.485.124-1.631.286-1.631.286a11.6,11.6,0,0,0,1.439-.212,4.95,4.95,0,0,0,1.642-.586,2.944,2.944,0,0,0,1.036-.981,5.361,5.361,0,0,0,.662-1.447,10.393,10.393,0,0,0,.272-1.3s.064-.657.079-1.195A12.517,12.517,0,0,0,87.31,55.8m-6.965-5.264.721-.006a2.526,2.526,0,0,1,.764,1.618c-.486-.013-.925-.014-1.215-.013l-.273,0c0-.182-.019-1.431,0-1.6m-3.459.977a5.835,5.835,0,0,1,1.719-.993l.24.005.338.006c.185,0,.386,0,.6.006a2.7,2.7,0,0,0-.537,1.6c-.367,0-.82.015-1.306.045-.3.019-.618.046-.933.083-.262.031-.524.069-.779.117a.646.646,0,0,0-.215.08,7.868,7.868,0,0,1,.874-.952m-1.414,8.709a1.988,1.988,0,0,0,.746.309l.094.024.05.013a2.829,2.829,0,0,0,2.21,2.163,8.515,8.515,0,0,0,.924.168c-2.488-.154-3.684-1.175-4.023-2.677M80,62.91a2.743,2.743,0,0,1-2.039-.891,2.633,2.633,0,0,1-.555-1.243c.285.045.6.087.913.119.218.022.455.038.689.05.023.41.158,1.718,1.083,1.975l.02.005L80,62.91m4.669-10.041a7.835,7.835,0,0,1,.9,3.665,10.038,10.038,0,0,1-.314,3.14c-.12.392-.521.5-.874.593l-.1.026a14.316,14.316,0,0,1-1.965.348c-.839.093-1.977.1-1.988.1s-1.15,0-1.989-.081a14.275,14.275,0,0,1-1.968-.33l-.1-.025c-.355-.091-.757-.194-.88-.585a10.041,10.041,0,0,1-.344-3.137,7.487,7.487,0,0,1,.869-3.673c.2-.32.369-.334,1.322-.413l.317-.026c.88-.075,1.885-.09,2.406-.093h.325l.324,0c.52,0,1.524,0,2.406.07l.316.023c.956.07,1.128.082,1.328.4m-.54-.565c-.188-.028-.43-.046-.763-.07l-.07-.005-.181-.013a2.737,2.737,0,0,0-.836-1.285,3.085,3.085,0,0,0-.649-.4l-.521,0c.326,0,.612-.01.841-.017a4.437,4.437,0,0,1,2.18,1.788" transform="translate(-65.742 -41.436)" fill="#fff"/>
          <path id="Trazado_109166" data-name="Trazado 109166" d="M163.9,161.335c-.334-.091-1.243.04-1.148.708.1.7,1.223.57,1.452.189a.593.593,0,0,0-.3-.9" transform="translate(-145.995 -144.711)" fill="#fff"/>
          <path id="Trazado_109167" data-name="Trazado 109167" d="M105.9,161.616a.593.593,0,0,0-.3.9c.233.379,1.357.5,1.451-.2.089-.669-.822-.791-1.155-.7" transform="translate(-94.646 -144.961)" fill="#fff"/>
          <path id="Trazado_109168" data-name="Trazado 109168" d="M105.22,133.825a.8.8,0,0,0-.587-.31.916.916,0,0,0-.858.735c-.129.411-.294,1.253.1,1.652a.979.979,0,0,0,1.383-.006,1.5,1.5,0,0,0,.254-1.213,1.6,1.6,0,0,0-.29-.858m-.062,1.09c-.117-.024-.21-.23-.221-.346s-.022-.309.09-.351c.153-.057.236.243.257.437s-.009.285-.126.26" transform="translate(-92.965 -119.776)" fill="#fff"/>
          <path id="Trazado_109169" data-name="Trazado 109169" d="M162.008,133.249a.8.8,0,0,0-.584.316,1.6,1.6,0,0,0-.282.861,1.5,1.5,0,0,0,.266,1.211.979.979,0,0,0,1.383-.007c.388-.4.214-1.243.082-1.653a.916.916,0,0,0-.864-.727m.483.7c.153-.057.236.243.257.437s-.009.285-.126.26-.209-.23-.22-.346-.022-.309.09-.351" transform="translate(-144.55 -119.536)" fill="#fff"/>
          <path id="Trazado_109170" data-name="Trazado 109170" d="M134.293,150.36c.08-.04.139-.134.219-.195a.385.385,0,0,1,.321,0c.1.033.24.041.267-.092s-.168-.262-.268-.3a.577.577,0,0,0-.746.464c.027.145.127.166.207.126" transform="translate(-120.287 -134.331)" fill="#fff"/>
          <path id="Trazado_109171" data-name="Trazado 109171" d="M136.151,159.392c-.124-.033-.394-.015-.37.165a.2.2,0,0,0,.208.173.526.526,0,0,1-.019.237,1.01,1.01,0,0,1-.4.486,1.236,1.236,0,0,1-.821.161,1.45,1.45,0,0,1-.649-.287.175.175,0,0,0-.22,0c-.063.08-.054.274.209.45a1.613,1.613,0,0,0,1.716-.008,1.346,1.346,0,0,0,.558-.733.207.207,0,0,0,.047.153c.071.1.141.1.217-.021s.042-.274-.073-.474a.625.625,0,0,0-.4-.3" transform="translate(-120.076 -142.978)" fill="#fff"/>
          <path id="Trazado_109172" data-name="Trazado 109172" d="M75.168,88.6a.522.522,0,0,0,.4-.449.336.336,0,0,0-.407-.345.442.442,0,0,0-.371.489c.016.195.085.369.38.3" transform="translate(-67.09 -78.764)" fill="#fff"/>
          <path id="Trazado_109173" data-name="Trazado 109173" d="M85.4,90.225a.338.338,0,0,0-.323.32c0,.189.192.193.329.2a.227.227,0,0,0,.245-.272.239.239,0,0,0-.251-.253" transform="translate(-76.319 -80.941)" fill="#fff"/>
          <path id="Trazado_109174" data-name="Trazado 109174" d="M76.616,98.37c-.147.1-.166.148-.168.231a.463.463,0,0,0,.5.35c.241-.037.252-.279.169-.432a.408.408,0,0,0-.506-.149" transform="translate(-68.582 -88.213)" fill="#fff"/>
          <path id="Trazado_109175" data-name="Trazado 109175" d="M70.586,97.78c-.087-.033-.069.152-.069.152a.456.456,0,0,0,.043.174c.033.085.135.174.183.1.116-.183-.068-.393-.157-.425" transform="translate(-63.26 -87.715)" fill="#fff"/>
          <path id="Trazado_109176" data-name="Trazado 109176" d="M72.536,75.608c-.021-.166-.263-.371-.454-.446a.588.588,0,0,0-.391-.182c-.026,0-.051,0-.074,0a.4.4,0,0,0-.326.135l-.01.014a.806.806,0,0,0-.286.218,1.336,1.336,0,0,1-.288-.227.577.577,0,0,1,.024-.076.077.077,0,0,0-.092-.1.117.117,0,0,0-.112.142c.011.076.117.065.117.065a1.184,1.184,0,0,0,.159.239.153.153,0,0,0-.123.079h-.013a2.384,2.384,0,0,0-1.425.364,1.6,1.6,0,0,0-.684,1.7,1.406,1.406,0,0,0,.506.8.718.718,0,0,0,.433.188q.045,0,.09,0a1.912,1.912,0,0,0,.576-.114,1.991,1.991,0,0,0,.61-.342c.012.059.024.134.035.178a1.161,1.161,0,0,0,.168.264c.061.085.109.135.165.134s.089-.023.09-.055-.012-.045-.052-.07-.059,0-.089-.036a.43.43,0,0,1-.08-.139,1.13,1.13,0,0,1-.033-.2.109.109,0,0,0-.026-.064.445.445,0,0,0-.005-.164l.028-.025a2.545,2.545,0,0,0,.2-.219h0c.044.057.083.1.083.1a.38.38,0,0,0,.224.283c.067.006.128.029.16,0a.089.089,0,0,0,.023-.1c-.013-.038-.094-.034-.1-.021a.036.036,0,0,1-.05.017c-.02-.013-.031-.084-.063-.174s-.054-.08-.054-.08a.718.718,0,0,0-.081-.23l.02-.031c.012-.019.024-.038.035-.058.026-.047.049-.089.07-.129l.007-.015a1.081,1.081,0,0,1,.206.089c0,.043.166.075.166.075s-.059.153,0,.146.214-.043.2-.123-.095-.039-.095-.039c.026-.088-.072-.134-.14-.177s-.185-.12-.252-.168l.006-.015a1.112,1.112,0,0,0,.045-.143.05.05,0,0,0,.046.012c.09-.018.183-.076.177-.129s-.089-.06-.1-.036a.269.269,0,0,1-.075.055v-.1a.841.841,0,0,0,.668-.34.977.977,0,0,0,.233-.729M71.689,75a.591.591,0,0,1,.341.141,2.092,2.092,0,0,0-.693-.032h-.015A.434.434,0,0,1,71.689,75m-.775.471-.007.014a.153.153,0,0,0,0-.017l.008,0M71.35,77.2c-.02.039-.043.081-.068.126-.01.018-.022.037-.036.06a2.17,2.17,0,0,1-.149.213,2.4,2.4,0,0,1-.195.217c-.055.054-.113.106-.173.155a1.9,1.9,0,0,1-.6.339,1.623,1.623,0,0,1-.624.1.623.623,0,0,1-.378-.165,1.3,1.3,0,0,1-.47-.743A1.5,1.5,0,0,1,69,76.175a.868.868,0,0,0,.336-.17,1.076,1.076,0,0,0,.3-.272,2.418,2.418,0,0,1,.907-.169h.075a.159.159,0,0,0,.053.092.152.152,0,0,0,.114.03l.019.024a.6.6,0,0,0,0,.077l-.054-.028a.851.851,0,0,1-.124-.1.361.361,0,0,0-.279-.063c-.165.016-.238.044-.221.1s.157.126.157.126a.128.128,0,0,0-.079.159c.021.131.157.163.254.165a.22.22,0,0,0,.212-.1,1.267,1.267,0,0,1,.073-.13.909.909,0,0,1,.068-.092.561.561,0,0,0,.038.13,2.222,2.222,0,0,0,.535.679.436.436,0,0,0,.126.067.776.776,0,0,1-.008.084.893.893,0,0,1-.055.2,2.207,2.207,0,0,1-.1.217m.741-1.018c-.061.095-.159.141-.219.1s-.059-.147,0-.242.159-.141.219-.1.059.147,0,.242m.143.117a.413.413,0,0,0,.028-.448c-.082-.1-.235-.078-.375.06a.453.453,0,0,0-.123.5c.068.1.2.1.321.024l-.031.023a.431.431,0,0,1-.423.018.477.477,0,0,1-.239-.431.559.559,0,0,1,.432-.583.469.469,0,0,1,.506.4.5.5,0,0,1-.1.439" transform="translate(-61.47 -67.228)" fill="#fff"/>
          <path id="Trazado_109177" data-name="Trazado 109177" d="M1.986,226.441a.513.513,0,0,0,.4-.52c0-.445-.626-.436-.754-.414a2.037,2.037,0,0,0-1.437,1.119,2,2,0,0,0,.436,2.256,1.94,1.94,0,0,0,1.935.463s.507-.163.5-.573-.45-.414-.613-.4a1.187,1.187,0,0,1-1.269-.458,1.032,1.032,0,0,1,.8-1.476" transform="translate(-0.001 -202.295)" fill="#fff"/>
          <path id="Trazado_109178" data-name="Trazado 109178" d="M37.423,236.293a1.464,1.464,0,1,1-1.464-1.464,1.464,1.464,0,0,1,1.464,1.464" transform="translate(-30.946 -210.665)" fill="#fff"/>
          <path id="Trazado_109179" data-name="Trazado 109179" d="M68.224,226.441a.513.513,0,0,0,.4-.52c0-.445-.626-.436-.754-.414a2.037,2.037,0,0,0-1.437,1.119,2,2,0,0,0,.436,2.256,1.94,1.94,0,0,0,1.935.463s.507-.163.5-.573-.45-.414-.613-.4a1.187,1.187,0,0,1-1.269-.458,1.032,1.032,0,0,1,.8-1.476" transform="translate(-59.423 -202.295)" fill="#fff"/>
          <path id="Trazado_109180" data-name="Trazado 109180" d="M102.291,236.293a1.464,1.464,0,1,1-1.464-1.464,1.464,1.464,0,0,1,1.464,1.464" transform="translate(-89.14 -210.665)" fill="#fff"/>
          <path id="Trazado_109181" data-name="Trazado 109181" d="M219.057,234.829a1.464,1.464,0,1,0,1.464,1.464,1.464,1.464,0,0,0-1.464-1.464m0,1.9a.439.439,0,1,1,.439-.439.439.439,0,0,1-.439.439" transform="translate(-195.203 -210.665)" fill="#fff"/>
          <path id="Trazado_109182" data-name="Trazado 109182" d="M133.228,237.457c.471,0,.454-.331.454-.331v-.291s0-.163.145-.163a.135.135,0,0,1,.141.141v.427s-.009.264.441.264c.423,0,.423-.256.423-.256v-2.042a.7.7,0,0,0-.718-.686c-.635-.018-.793.3-.828.353a.062.062,0,0,1-.055.031.063.063,0,0,1-.055-.026.975.975,0,0,0-.758-.357.737.737,0,0,0-.827.686c0,.007,0,1.958,0,1.958,0,.326.436.344.436.344.489,0,.458-.309.458-.309l0-.37s0-.163.145-.163a.135.135,0,0,1,.141.141v.317s-.009.331.457.331" transform="translate(-118.049 -210.389)" fill="#fff"/>
          <path id="Trazado_109183" data-name="Trazado 109183" d="M169.573,236.586H170.8s.529.041.529-.625a1.29,1.29,0,0,0-1.381-1.132,1.464,1.464,0,1,0,0,2.927,1.519,1.519,0,0,0,1.075-.371.411.411,0,0,0,.041-.511.447.447,0,0,0-.447-.106,1.981,1.981,0,0,1-.582.059c-.447.006-.623-.141-.623-.206s.159-.035.159-.035m.047-.705a.336.336,0,0,1,.335-.223.325.325,0,0,1,.329.223s.041.1-.076.1h-.523s-.106,0-.065-.1" transform="translate(-151.148 -210.665)" fill="#fff"/>
          <path id="Trazado_109184" data-name="Trazado 109184" d="M203.263,225.09a.557.557,0,0,1-1.088,0v-3.528a.557.557,0,0,1,1.088,0Z" transform="translate(-181.371 -198.37)" fill="#fff"/>
          <path id="Trazado_109185" data-name="Trazado 109185" d="M254.023,237.688c0,.131-.185.238-.414.238s-.414-.107-.414-.238l-.026-.776c0-.326-.115-.837-.582-.837-.546,0-.546.511-.546.837,0,.264-.009.776-.009.776,0,.131-.185.238-.414.238s-.414-.107-.414-.238v-1.3A1.313,1.313,0,0,1,252.569,235a1.344,1.344,0,0,1,1.454,1.393Z" transform="translate(-225.354 -210.819)" fill="#fff"/>
          <path id="Trazado_109186" data-name="Trazado 109186" d="M118,240.766a.429.429,0,0,1-.281-.284.119.119,0,0,1,.138-.163.424.424,0,0,1,.28.211.143.143,0,0,1,0,.188.159.159,0,0,1-.137.047" transform="translate(-105.601 -215.589)" fill="#fffdfc"/>
          <path id="Trazado_109187" data-name="Trazado 109187" d="M53.083,240.766a.429.429,0,0,1-.281-.284.119.119,0,0,1,.138-.163.424.424,0,0,1,.28.211.143.143,0,0,1,0,.188.16.16,0,0,1-.137.047" transform="translate(-47.362 -215.589)" fill="#fffdfc"/>
          <path id="Trazado_109188" data-name="Trazado 109188" d="M103.517,2.8a.922.922,0,0,0-.925,1.02.922.922,0,1,0,1.83.012.9.9,0,0,0-.905-1.032m-.1,1.64c-.277,0-.4-.269-.4-.589s.126-.561.4-.561.415.241.415.6c0,.34-.142.553-.415.553" transform="translate(-92.035 -2.515)" fill="#fff"/>
          <path id="Trazado_109189" data-name="Trazado 109189" d="M122.32,7.144a.982.982,0,0,0-.984,1.063.916.916,0,0,0,.941,1,.994.994,0,0,0,1-1.063.909.909,0,0,0-.953-1m.028,1.613c-.261,0-.419-.21-.419-.549s.19-.632.482-.632c.269,0,.439.19.439.542s-.178.64-.5.64" transform="translate(-108.851 -6.409)" fill="#fff"/>
          <path id="Trazado_109190" data-name="Trazado 109190" d="M71.859.482C71.812.15,71.669,0,71.448,0s-.36.138-.447.415l-.442,1.406L70.254.6c-.071-.285-.225-.4-.423-.4a.54.54,0,0,0-.494.415l-.629,1.814c-.087.257.044.455.277.455.213,0,.336-.079.411-.364l.367-1.384.42,1.127c.075.2.186.344.391.344s.332-.111.4-.383L71.369.761,71.7,2.209c.035.15.1.205.213.205.142,0,.213-.122.19-.273Z" transform="translate(-61.615 0)" fill="#fff"/>
          <path id="Trazado_109191" data-name="Trazado 109191" d="M195.275,5.119l-.146.032c-.115.024-.17.071-.17.166s.071.15.182.146l.261-.008c.111,0,.15.032.15.1,0,.15-.2.36-.549.36a.506.506,0,0,1-.541-.541.6.6,0,0,1,.62-.648c.166,0,.241.028.352.028a.246.246,0,0,0,.269-.265c0-.249-.273-.3-.565-.3a1.126,1.126,0,0,0-1.205,1.174,1.032,1.032,0,0,0,2.055.111c0-.36-.308-.439-.711-.352" transform="translate(-173.976 -3.755)" fill="#fff"/>
          <path id="Trazado_109192" data-name="Trazado 109192" d="M179.155,3.512c-.079,0-.123.063-.142.166l-.111.561c-.044.214-.119.474-.336.474-.253,0-.281-.332-.221-.767l.063-.466c.032-.221-.044-.407-.3-.407-.17,0-.292.111-.308.383l-.032.613c-.028.569.119,1.091.743,1.091.443,0,.7-.285.763-1.024l.035-.427c.008-.111-.035-.2-.158-.2" transform="translate(-159.476 -2.757)" fill="#fff"/>
          <path id="Trazado_109193" data-name="Trazado 109193" d="M161.108,4.382c.313-.131.423-.274.423-.476,0-.233-.194-.411-.573-.411a.956.956,0,0,0-.98,1.091c0,.648.265.988.854.988.482,0,.858-.229.858-.632,0-.357-.263-.481-.581-.56m-.21.71c-.3,0-.459-.178-.459-.632,0-.3.115-.545.411-.545.1,0,.162.036.162.1s-.075.134-.225.233a.217.217,0,0,0-.123.178c0,.107.063.158.166.182.336.075.435.154.435.281s-.174.2-.368.2" transform="translate(-143.515 -3.135)" fill="#fff"/>
          <path id="Trazado_109194" data-name="Trazado 109194" d="M142.988,2.952c-.008-.253-.134-.34-.3-.34-.229,0-.3.174-.277.383l.135,1.069-.72-.959a.338.338,0,0,0-.277-.154c-.221,0-.281.19-.265.391l.119,1.4c.016.17.091.225.182.225.119,0,.174-.1.174-.257l-.007-1.007.6.975c.13.214.253.273.4.273.19,0,.312-.138.3-.383Z" transform="translate(-126.748 -2.343)" fill="#fff"/>
          <path id="Trazado_109195" data-name="Trazado 109195" d="M282.42,228.683V228.2h-.182v-.065h.438v.065h-.183v.487Z" transform="translate(-253.196 -204.656)" fill="#fff"/>
          <path id="Trazado_109196" data-name="Trazado 109196" d="M287.2,228.683v-.553h.11l.131.391.026.082q.009-.03.029-.089l.132-.384h.1v.553h-.07v-.462l-.161.462h-.066l-.16-.47v.47Z" transform="translate(-257.648 -204.656)" fill="#fff"/>
        </g>
      </g>
    </g>
  </g>
</svg>
