<svg id="Grupo_50956" data-name="Grupo 50956" xmlns="http://www.w3.org/2000/svg" xmlns:xlink="http://www.w3.org/1999/xlink" width="368.126" height="39.913" viewBox="0 0 368.126 39.913">
  <defs>
    <clipPath id="clip-path">
      <rect id="Rectángulo_22890" data-name="Rectángulo 22890" width="27.86" height="29.512" fill="none"/>
    </clipPath>
    <clipPath id="clip-path-2">
      <rect id="Rectángulo_10197" data-name="Rectángulo 10197" width="40.585" height="25.265" fill="none"/>
    </clipPath>
    <clipPath id="clip-path-3">
      <rect id="Rectángulo_28919" data-name="Rectángulo 28919" width="52.725" height="23.93" fill="none"/>
    </clipPath>
  </defs>
  <g id="Grupo_50952" data-name="Grupo 50952" transform="translate(151)">
    <rect id="Rectángulo_18532" data-name="Rectángulo 18532" width="65.83" height="39.735" rx="5" transform="translate(0 0)" fill="none"/>
    <g id="Grupo_22158" data-name="Grupo 22158" transform="translate(10.676 7.71)">
      <path id="Trazado_42240" data-name="Trazado 42240" d="M43.417-378.069c-.4.019-.807.035-1.211.045-.08,0-.1.021-.1.1,0,.813,0,1.626,0,2.439,0,.183.006.367,0,.549a.894.894,0,0,1-1.016.945.809.809,0,0,1-.788-.6,1.5,1.5,0,0,1-.065-.451c0-.927,0-1.855,0-2.782,0-.1-.026-.12-.125-.115-.441.021-.882.058-1.325.053v3.275a1.074,1.074,0,0,1,.068.3,1.859,1.859,0,0,0,1.321,1.483,3.258,3.258,0,0,0,1.926.008,1.864,1.864,0,0,0,1.29-1.266,3.4,3.4,0,0,0,.155-1.081c0-.927,0-1.855,0-2.782C43.552-378.059,43.512-378.074,43.417-378.069Z" transform="translate(-38.788 387.641)" fill="#fff"/>
      <path id="Trazado_42241" data-name="Trazado 42241" d="M232.1-373.942c-.093,0-.111-.032-.11-.118,0-1.236,0-2.473,0-3.71,0-.1-.028-.121-.116-.124-.4-.015-.8-.032-1.2-.057-.1-.006-.109.024-.109.109q0,2.525,0,5.05c0,.086.016.114.109.114.729,0,1.458,0,2.187,0l1.534,0v-1.237C233.637-373.929,232.87-373.938,232.1-373.942Z" transform="translate(-189.835 387.548)" fill="#fff"/>
      <path id="Trazado_42242" data-name="Trazado 42242" d="M140.685-423.111c0-.006.009-.011.006-.019h-.664c0,.009,0,.014.006.02Z" transform="translate(-118.521 423.13)" fill="#fff"/>
      <path id="Trazado_42243" data-name="Trazado 42243" d="M143.314-423.112c0-.006.008-.011,0-.018h-.16c0,.006,0,.013,0,.019Z" transform="translate(-120.988 423.13)" fill="#fff"/>
      <path id="Trazado_42244" data-name="Trazado 42244" d="M139.43-423.11a.128.128,0,0,0,0-.02h-.16c0,.007,0,.013,0,.019Z" transform="translate(-117.926 423.13)" fill="#fff"/>
      <path id="Trazado_42245" data-name="Trazado 42245" d="M89.8-415.214a10.913,10.913,0,0,1,.535-1.159,10.772,10.772,0,0,1,3.7-4.079,10.412,10.412,0,0,1,6.189-1.652,10.635,10.635,0,0,1,2.969.542,11.361,11.361,0,0,1,4.948,3.27,11.218,11.218,0,0,1,2.111,3.449c.031.079.065.115.153.108.114-.009.229,0,.343,0,.133,0,.133,0,.092-.123a11.944,11.944,0,0,0-3.185-4.971,11.926,11.926,0,0,0-7.661-3.281.1.1,0,0,1,0-.02h-.137a.044.044,0,0,1,0,.018h-.006c0,.005,0,.012,0,.016a.122.122,0,0,1-.149-.016h-.009c0,.006,0,.013-.005.018a2.01,2.01,0,0,1-.642,0c-.006,0,0-.011,0-.016h-.008a.125.125,0,0,1-.15.014c-.005,0,0-.011,0-.016h-.006a.092.092,0,0,1,0-.019h-.137a.05.05,0,0,1,0,.02,12.1,12.1,0,0,0-10.759,8.025c.579-.013,1.153-.027,1.729-.037C89.768-415.124,89.779-415.169,89.8-415.214Z" transform="translate(-77.524 423.13)" fill="#fff"/>
      <path id="Trazado_42246" data-name="Trazado 42246" d="M70.5-378.832c0-.08-.017-.1-.1-.1-.4.016-.8.026-1.2.034-.083,0-.113.026-.113.118,0,.862,0,1.725,0,2.587a.241.241,0,0,1-.018.136l-.131-.174-1.883-2.519c-.032-.043-.058-.083-.125-.081-.385.014-.769.027-1.154.034-.079,0-.1.024-.1.1q0,2.571,0,5.141c0,.083.027.1.1.1.393,0,.786,0,1.179,0,.094,0,.119-.023.119-.119,0-.893,0-1.786,0-2.679,0-.037-.014-.08.02-.117q1.049,1.421,2.088,2.831a.171.171,0,0,0,.158.083q.527-.007,1.053,0c.084,0,.107-.017.107-.1,0-.863,0-1.725,0-2.588C70.5-377.038,70.5-377.935,70.5-378.832Z" transform="translate(-59.967 388.319)" fill="#fff"/>
      <path id="Trazado_42247" data-name="Trazado 42247" d="M159.006-375.793c-.042-.067-.039-.091.036-.13a1.677,1.677,0,0,0,.87-1.038,2.2,2.2,0,0,0,.075-.839,1.715,1.715,0,0,0-.97-1.474,2.4,2.4,0,0,0-1.082-.249c-.79,0-1.58,0-2.37,0-.082,0-.11.015-.11.105q0,2.7,0,5.393c0,.082.015.111.1.109q.613-.008,1.225,0c.1,0,.11-.032.109-.116,0-.5,0-.992,0-1.488,0-.094.028-.114.115-.11a4.277,4.277,0,0,0,.469,0,.184.184,0,0,1,.2.121c.261.507.53,1.011.795,1.516.021.04.033.078.1.078.526,0,1.052,0,1.6,0l-.076-.126Q159.548-374.92,159.006-375.793Zm-.461-1.532a.606.606,0,0,1-.519.44,7.9,7.9,0,0,1-1.084.026c-.064,0-.048-.046-.048-.08,0-.2,0-.4,0-.606s0-.4,0-.595c0-.045,0-.081.062-.079.331.008.664-.017.994.012A.658.658,0,0,1,158.545-377.325Z" transform="translate(-130.674 388.787)" fill="#fff"/>
      <path id="Trazado_42248" data-name="Trazado 42248" d="M131.8-373.919q1.969,0,3.939,0c.075,0,.095-.019.094-.093,0-.363-.006-.725,0-1.088,0-.109-.017-.146-.139-.145-.805.007-1.611,0-2.416,0-.082,0-.122-.01-.119-.109.008-.221.009-.443,0-.664,0-.1.027-.125.127-.124.717,0,1.435,0,2.152,0,.086,0,.109-.022.108-.108-.005-.336-.006-.672,0-1.008,0-.1-.025-.119-.12-.118-.721,0-1.442,0-2.164,0-.079,0-.1-.019-.1-.1.005-.21.008-.42,0-.63,0-.1.023-.118.118-.117.805,0,1.611,0,2.416,0,.069,0,.1-.009.1-.09q-.007-.567,0-1.133c0-.087-.032-.1-.106-.1q-1.935,0-3.87,0c-.09,0-.113.023-.113.113,0,.9,0,1.794,0,2.691s0,1.8,0,2.7C131.7-373.945,131.715-373.919,131.8-373.919Z" transform="translate(-111.965 388.789)" fill="#fff"/>
      <path id="Trazado_42249" data-name="Trazado 42249" d="M182.544-377.048a4.876,4.876,0,0,0-1.008-.359,2.454,2.454,0,0,1-.723-.273.321.321,0,0,1-.182-.34.333.333,0,0,1,.284-.262,1.172,1.172,0,0,1,.455-.009,2.491,2.491,0,0,1,1.12.484c.066.048.09.04.133-.026.191-.3.385-.595.585-.887.053-.078.044-.113-.026-.171a3.036,3.036,0,0,0-1.985-.7,2.636,2.636,0,0,0-.669.073,1.664,1.664,0,0,0-1.3,2.028,1.531,1.531,0,0,0,.817,1.007,4.505,4.505,0,0,0,1.117.423,2.35,2.35,0,0,1,.64.236.321.321,0,0,1,.168.315.329.329,0,0,1-.226.29.9.9,0,0,1-.325.055,2.416,2.416,0,0,1-1.564-.578c-.114-.09-.113-.091-.2.027l-.58.752c-.123.161-.125.163.033.294a3.371,3.371,0,0,0,2.815.732,1.641,1.641,0,0,0,1.461-1.438A1.461,1.461,0,0,0,182.544-377.048Z" transform="translate(-149.205 388.836)" fill="#fff"/>
      <path id="Trazado_42250" data-name="Trazado 42250" d="M205.685-375.556l-1.22-3.048c-.021-.051-.032-.1-.113-.1q-.6-.007-1.2-.03c-.082,0-.109.03-.136.1q-.863,2.162-1.73,4.322l-.4,1c.015.008.021.013.027.013.466,0,.931,0,1.4,0,.064,0,.074-.039.09-.081.1-.27.21-.539.311-.809a.1.1,0,0,1,.115-.078q.893,0,1.786,0a.1.1,0,0,1,.114.08c.1.267.205.532.3.8a.118.118,0,0,0,.132.09c.447,0,.893,0,1.34,0,.026,0,.051,0,.075,0,.012-.035-.007-.056-.017-.081Zm-2.533.119.575-1.51.558,1.51Z" transform="translate(-166.452 388.167)" fill="#fff"/>
      <path id="Trazado_42251" data-name="Trazado 42251" d="M106.98-379.407q-.287.944-.581,1.886c-.155.5-.311,1.006-.468,1.514-.039-.02-.04-.055-.049-.081q-.281-.8-.558-1.606l-.6-1.712c-.015-.043-.024-.079-.089-.079-.5,0-1,0-1.523,0,.022.066.031.094.041.122q1,2.681,2.005,5.361a.115.115,0,0,0,.132.087q.584-.006,1.168,0a.127.127,0,0,0,.144-.1q.848-2.379,1.7-4.756l.267-.748h-.127c-.446,0-.893.011-1.339.009C107.028-379.509,107-379.478,106.98-379.407Z" transform="translate(-89.453 388.782)" fill="#fff"/>
      <path id="Trazado_42252" data-name="Trazado 42252" d="M94.708-379.166c-.431.013-.861.021-1.292.027-.067,0-.08.022-.08.084q0,2.667,0,5.334c0,.074.023.086.09.086.416,0,.832,0,1.248,0,.086,0,.114-.018.113-.11,0-.881,0-1.763,0-2.644s0-1.785,0-2.678C94.785-379.121,94.8-379.169,94.708-379.166Z" transform="translate(-81.749 388.505)" fill="#fff"/>
      <path id="Trazado_42253" data-name="Trazado 42253" d="M183.419-345.664h-1.53v-1.53H180.65v1.53h-1.53v1.239h1.53v1.53h1.239v-1.53h1.53Z" transform="translate(-149.312 363.324)" fill="#fff"/>
      <path id="Trazado_42254" data-name="Trazado 42254" d="M101.144-339.312a12.39,12.39,0,0,1-2.965-.086,10.891,10.891,0,0,1-3.362-1.05,10.562,10.562,0,0,1-4.564-4.461,11.64,11.64,0,0,1-.712-1.567c-.014-.039-.015-.089-.083-.089-.35,0-.7,0-1.047,0-.017.041.006.068.015.1a11.285,11.285,0,0,0,2.615,4.31,11.7,11.7,0,0,0,7.448,3.554,12.465,12.465,0,0,0,4.29-.317,11.462,11.462,0,0,0,5.3-2.913l-.729-.036A10.487,10.487,0,0,1,101.144-339.312Z" transform="translate(-77.865 362.829)" fill="#fff"/>
    </g>
  </g>
  <g id="Grupo_50953" data-name="Grupo 50953" transform="translate(226)">
    <rect id="Rectángulo_18532-2" data-name="Rectángulo 18532" width="66.126" height="39.913" rx="5" transform="translate(0)" fill="none"/>
    <g id="Grupo_34951" data-name="Grupo 34951" transform="translate(19.303 5.362)">
      <g id="Grupo_34950" data-name="Grupo 34950" clip-path="url(#clip-path)">
        <path id="Trazado_88249" data-name="Trazado 88249" d="M42.488,0l.028.1h-.2s1.267,4.5,1.339,4.717.233.262.582.364A5.014,5.014,0,0,1,47.371,9.92c0,3.4-2.7,4.523-5.533,4.6a.133.133,0,0,0-.094.124h-.085s-.109.013,0,.246,2.329,3.654,2.664,4.12a14.127,14.127,0,0,0,10.231-4.683C58.63,9.512,55.621.039,42.488,0" transform="translate(-32.874)" fill="#fff"/>
        <path id="Trazado_88250" data-name="Trazado 88250" d="M32.915,37.721A3.318,3.318,0,1,0,29.6,34.4a3.318,3.318,0,0,0,3.318,3.318" transform="translate(-23.384 -24.56)" fill="#fff"/>
        <path id="Trazado_88251" data-name="Trazado 88251" d="M3.152,101.549H2.12L.907,103.273v-1.724H0v3.969H.907v-1.837l1.27,1.837H3.209l-1.395-2.036Z" transform="translate(0 -80.23)" fill="#fff"/>
        <path id="Trazado_88252" data-name="Trazado 88252" d="M22.328,101.549H21.171l-1.349,3.969h.992l.2-.624h1.474l.2.624h.992Zm-1.043,2.495.465-1.457.465,1.457Z" transform="translate(-15.661 -80.23)" fill="#fff"/>
        <path id="Trazado_88253" data-name="Trazado 88253" d="M46.921,101.549h-.907V103.7l-1.531-2.155H43.8v3.969h.907v-2.155l1.531,2.155h.68Z" transform="translate(-34.607 -80.23)" fill="#fff"/>
        <path id="Trazado_88254" data-name="Trazado 88254" d="M66.779,101.549H65.622l-1.349,3.969h.992l.2-.624h1.474l.2.624h.992Zm-1.043,2.495.465-1.457.465,1.457Z" transform="translate(-50.78 -80.23)" fill="#fff"/>
        <path id="Trazado_88255" data-name="Trazado 88255" d="M89.161,101.549h-.907v3.969h2.325v-.873H89.161Z" transform="translate(-69.726 -80.23)" fill="#fff"/>
        <path id="Trazado_88256" data-name="Trazado 88256" d="M117.55,101.548h-1.588v3.969h1.588a1.985,1.985,0,0,0,0-3.969m0,3.1h-.68v-2.223h.68a1.113,1.113,0,0,1,0,2.223" transform="translate(-91.617 -80.229)" fill="#fff"/>
        <path id="Trazado_88257" data-name="Trazado 88257" d="M22.456,129.873h-.9v2.247h.9a1.124,1.124,0,0,0,0-2.247m0,1.753h-.385v-1.258h.385a.63.63,0,0,1,0,1.258" transform="translate(-17.031 -102.608)" fill="#fff"/>
        <path id="Trazado_88258" data-name="Trazado 88258" d="M43.255,130.644a.768.768,0,0,0-.77-.77h-.9v2.247H42.1v-.738h.244l.424.738h.552l-.479-.825a.74.74,0,0,0,.414-.652m-.77.289H42.1v-.578h.385a.291.291,0,0,1,0,.578" transform="translate(-32.856 -102.609)" fill="#fff"/>
        <path id="Trazado_88259" data-name="Trazado 88259" d="M60.662,129.873h-.655l-.764,2.247H59.8l.112-.353h.835l.112.353h.562Zm-.591,1.412.263-.825.263.825Z" transform="translate(-46.806 -102.608)" fill="#fff"/>
        <path id="Trazado_88260" data-name="Trazado 88260" d="M80.854,130.872l-.61-1h-.514v2.247h.514v-1.306l.581.953h.058l.581-.953v1.306h.514v-2.247h-.514Z" transform="translate(-62.992 -102.609)" fill="#fff"/>
        <path id="Trazado_88261" data-name="Trazado 88261" d="M101.287,129.873l-.764,2.247h.562l.112-.353h.835l.112.353h.562l-.764-2.247Zm.064,1.412.263-.825.263.825Z" transform="translate(-79.42 -102.608)" fill="#fff"/>
      </g>
    </g>
  </g>
  <g id="Grupo_50951" data-name="Grupo 50951" transform="translate(75)">
    <rect id="Rectángulo_18532-3" data-name="Rectángulo 18532" width="65.83" height="39.735" rx="5" transform="translate(0 0)" fill="none"/>
    <g id="paramount_Blanco" data-name="paramount + Blanco" transform="translate(12.455 7.117)">
      <g id="paramount_Blanco-2" data-name="paramount + Blanco" transform="translate(0 0)" clip-path="url(#clip-path-2)">
        <path id="Trazado_25772" data-name="Trazado 25772" d="M362.588,245.9c-.1-.04-.263-.227.009-.735l.633-1.324c.018-.04-.027-.089-.058-.058l-.553.557a9.555,9.555,0,0,0-.793,1.181l-.668,1.114a.089.089,0,0,1,.08.134l-.615,1.029c-.152.254.12.437.156.374.963-1.555,1.524-1.431,1.524-1.431l.321-.744a.076.076,0,0,0,0-.06.076.076,0,0,0-.042-.043" transform="translate(-344.508 -232.914)" fill="#fff"/>
        <path id="Trazado_25773" data-name="Trazado 25773" d="M240.787,0a9.987,9.987,0,0,0-8.035,15.918,2.083,2.083,0,0,0,.82-.66l1.858-2.38a.379.379,0,0,1,.147-.116l.281-.12,3.057-3.877.446-.348.909-1.27a.378.378,0,0,1,.085-.085l.4-.29a.285.285,0,0,1,.33,0l.481.339a1.894,1.894,0,0,1,.611.7l1.934,3.4a.3.3,0,0,0,.152.147,2.653,2.653,0,0,1,1.105.762c.232.25,1.243,1.386,2.665,3.146a2.014,2.014,0,0,0,.8.651A9.988,9.988,0,0,0,240.787,0m-7.3,10.539-.646-.209-.4.553V10.2l-.646-.209.646-.209V9.1l.4.553.646-.209-.4.553Zm-.152,2.228-.209.646-.209-.646h-.682l.553-.4-.214-.646.553.4.553-.4-.209.646.553.4Zm.129-5.156.209.646-.553-.4-.553.4.21-.646-.553-.4h.682l.209-.646.209.646h.682Zm1.092-1.466-.4-.553-.646.209.4-.553-.4-.553.646.209.4-.553v.682l.646.209-.646.209Zm1.7-2.384-.209.651-.209-.651h-.682l.553-.4-.209-.646.553.4.553-.4-.209.646.553.4Zm2.144-1.092-.4.553V2.54l-.646-.209.646-.209V1.439l.4.553.646-.209-.4.553.4.553Zm2.718-.624.209.646-.553-.4-.553.4.209-.646-.553-.4h.682L240.778,1l.209.646h.682Zm2.442.495v.682l-.4-.553-.646.209.4-.553-.4-.553.646.209.4-.553v.691l.646.209Zm4.514,6.9.646.209.4-.553v.682l.646.209-.646.209v.682l-.4-.553-.646.209.4-.553Zm-2.563-5.027-.209-.646h-.682l.553-.4-.209-.646.553.4.553-.4-.209.646.553.4h-.686Zm1.493,1.734V5.464l-.646-.209.646-.209V4.363l.4.553.646-.209-.4.553.4.553-.646-.209Zm1.221,1.065.209-.646.209.646h.682l-.553.4.209.646-.553-.4-.553.4.209-.646-.553-.4Zm.419,5.557-.2.646-.209-.646h-.682l.553-.4-.214-.646.553.4.553-.4-.209.646.553.4Z" transform="translate(-220.514)" fill="#fff"/>
        <path id="Trazado_25774" data-name="Trazado 25774" d="M421.543,174.747a.64.64,0,0,0-.022-.615l-.441-1.19c-.062-.151.071-.245.16-.143a13.214,13.214,0,0,1,1.052,1.364l.41.682c.357.022,1.332.049,2.273.049a2.685,2.685,0,0,1-.263-.3c-1.6-1.992-2.625-3.1-2.634-3.111a1.8,1.8,0,0,0-.726-.535l-.116-.053v.3a.037.037,0,0,1-.071.018l-2.362-4.149v-.013a1.329,1.329,0,0,0-.423-.49l-.232-.16L417.02,169a.245.245,0,0,1,.223.339l-1.043,2.406h.954a2.839,2.839,0,0,1,1.079.214l.254.1a7.954,7.954,0,0,0-.762,2.389,1.71,1.71,0,0,0,.062.441h1.751l-.076-.486a18.711,18.711,0,0,0,2.081.343" transform="translate(-397.652 -158.984)" fill="#fff"/>
        <path id="Trazado_25775" data-name="Trazado 25775" d="M10.364,359.384c0-1.609-1.707-2.384-3.73-2.384-2.166,0-4.158.963-4.884,2.451a2.821,2.821,0,0,0-.307,1.279,1.925,1.925,0,0,0,.307,1.087,1.907,1.907,0,0,0,1.689.753c1.007,0,1.8-.553,1.8-1.511a.263.263,0,0,0-.3-.267c-.312,0-.321.178-.312.267a1.188,1.188,0,0,1-1.208,1.355c-.9,0-1.266-.758-1.266-1.573a3.558,3.558,0,0,1,2.554-3.24,5.2,5.2,0,0,1,1.907-.334c1.475,0,2.683.566,2.683,2.086a2.53,2.53,0,0,1-2.34,2.442l.053-.169a9.328,9.328,0,0,1,1.1-2.705,2.088,2.088,0,0,1,.143-.192l-.076-.089a3.1,3.1,0,0,0-.321.223c-2.442,1.907-2.518,7.268-5.771,7.268a2.518,2.518,0,0,1-.334-.022,1.138,1.138,0,0,1-1.034-1.2c0-.125.045-.3.045-.4a.325.325,0,0,0-.321-.334H.408c-.29,0-.41.232-.419.557-.022.945.677,1.5,1.756,1.6.12.009.236.013.365.013,2.54,0,4.1-1.921,4.759-4.251a5.589,5.589,0,0,0,.989-.209c1.176-.33,2.5-1.119,2.5-2.509" transform="translate(0.011 -341.091)" fill="#fff"/>
        <path id="Trazado_25776" data-name="Trazado 25776" d="M207.493,423.1H206.6l-.2.468-.352.789h-.419l-.125.267h.432l-.517,1.154c-.374.811-.954,1.609-1.288,1.609-.076,0-.12-.031-.12-.1a1.059,1.059,0,0,1,.1-.352c.08-.209.276-.6.4-.864a4.246,4.246,0,0,0,.486-1.257.5.5,0,0,0-.553-.521,1.715,1.715,0,0,0-1.123.6l.223-.535h-.838l-.686,1.564c-.276.553-.833,1.466-1.185,1.466-.076,0-.1-.045-.1-.12a.628.628,0,0,1,.053-.192l.441-1.029.74-1.7h-.909L200.335,426c-.223.512-.789,1.386-1.154,1.386a.116.116,0,0,1-.125-.1v-.031a1.243,1.243,0,0,1,.12-.374l.379-.833.78-1.7h-.9l-.178.388a.874.874,0,0,1-.713.566.3.3,0,0,1-.29-.134.888.888,0,0,0-.954-.878,1.926,1.926,0,0,0-1.622.976,4.989,4.989,0,0,0-.535,1.185c-.321.53-.655.94-.923.94-.067,0-.111-.036-.111-.125a1.465,1.465,0,0,1,.12-.365l.579-1.261a2.454,2.454,0,0,0,.276-.9.459.459,0,0,0-.49-.463,1.792,1.792,0,0,0-1.252.646.851.851,0,0,0,.013-.192.4.4,0,0,0-.455-.455,1.62,1.62,0,0,0-1.154.646l.236-.579h-.816l-.691,1.564c-.33.735-.856,1.466-1.154,1.466-.067,0-.111-.036-.111-.125a3.924,3.924,0,0,1,.214-.633l.918-2.077c.067-.156-.374-.254-.931-.254a2.66,2.66,0,0,0-1.6.646,1.441,1.441,0,0,1-.642.379c-.111,0-.08-.031-.08-.067,0-.125.308-.486.308-.758,0-.125-.067-.209-.241-.209a1.613,1.613,0,0,0-1,.642l.236-.575h-.8l-.691,1.564c-.33.735-.873,1.506-1.168,1.506-.067,0-.111-.036-.111-.125a3.221,3.221,0,0,1,.232-.664l.918-2.086c.067-.156-.374-.254-.931-.254a2.752,2.752,0,0,0-2.054,1.132,3.638,3.638,0,0,0-.8,1.809.61.61,0,0,0,.664.7,1.674,1.674,0,0,0,1.132-.691,1.494,1.494,0,0,0-.031.178c0,.3.12.513.486.513a1.547,1.547,0,0,0,1.087-.691l-.276.633h.869l.856-1.943c.285-.633.6-.963.691-.963s.045.013.045.036a1.333,1.333,0,0,0-.134.41c0,.165.089.29.33.29a.976.976,0,0,0,.579-.21,3.209,3.209,0,0,0-.735,1.734.61.61,0,0,0,.664.7,1.764,1.764,0,0,0,1.145-.744,1.82,1.82,0,0,0-.013.209.486.486,0,0,0,.5.535c.334,0,.669-.232,1.043-.686l-.276.624h.9l.82-1.854c.357-.8.842-1.234,1.078-1.234a.107.107,0,0,1,.12.1v.022a.8.8,0,0,1-.076.258l-1.177,2.718h.918l.833-1.89c.357-.811.753-1.208,1.052-1.208.089,0,.125.045.125.143a.812.812,0,0,1-.08.3l-.807,1.711a1.588,1.588,0,0,0-.134.521c0,.263.143.49.544.49.521,0,.918-.4,1.364-.985v.125a.885.885,0,0,0,.989.878,2.138,2.138,0,0,0,1.885-1.466,3.177,3.177,0,0,0,.29-1.007.567.567,0,0,0,.29.058.785.785,0,0,0,.388-.1l-.143.307c-.165.343-.343.722-.486,1.043a1.679,1.679,0,0,0-.156.6.5.5,0,0,0,.544.553,1.831,1.831,0,0,0,1.221-.829h.009a1.374,1.374,0,0,0-.036.307c0,.267.08.521.455.521a1.641,1.641,0,0,0,1.1-.709l-.276.624h.9l.722-1.64c.41-.922.82-1.484,1.2-1.484a.125.125,0,0,1,.125.111v.022a4.762,4.762,0,0,1-.423,1.007c-.2.428-.33.686-.423.918a1.752,1.752,0,0,0-.156.619.461.461,0,0,0,.508.5,1.987,1.987,0,0,0,1.332-.887,1.853,1.853,0,0,0-.1.566.707.707,0,0,0,.753.784,1.4,1.4,0,0,0,.811-.267,3.716,3.716,0,0,0,.851-.922l-.156-.147a3.324,3.324,0,0,1-.7.775.757.757,0,0,1-.463.178c-.187,0-.307-.1-.307-.334a3.065,3.065,0,0,1,.285-.989c.009-.009.254-.557.486-1.087.192-.446.388-.878.423-.967h.588l.12-.267h-.579Zm-25.4,4.3c-.125,0-.214-.045-.214-.21a4.109,4.109,0,0,1,.829-1.845,1.59,1.59,0,0,1,1.185-.753l-.566,1.266c-.423.954-.887,1.542-1.23,1.542m5.571,0a.193.193,0,0,1-.223-.21,4.109,4.109,0,0,1,.829-1.845,1.59,1.59,0,0,1,1.185-.753l-.575,1.266c-.432.976-.869,1.542-1.221,1.542m9.889-2.464a5.9,5.9,0,0,1-.945,2.353c-.2.281-.374.365-.521.365s-.267-.169-.236-.423a5.708,5.708,0,0,1,.918-2.175c.232-.321.388-.455.566-.455s.232.147.223.334" transform="translate(-172.928 -404.245)" fill="#fff"/>
        <path id="Trazado_25777" data-name="Trazado 25777" d="M791.978,410.694l.82-1.894h-.971l-.82,1.894h-2.063l-.343.793h2.063l-.82,1.894h.971l.82-1.894H793.7l.343-.793Z" transform="translate(-753.456 -390.582)" fill="#fff"/>
      </g>
    </g>
  </g>
  <g id="Grupo_50929" data-name="Grupo 50929">
    <rect id="Rectángulo_18532-4" data-name="Rectángulo 18532" width="65.713" height="39.664" rx="5" fill="none"/>
    <g id="Disney_Logo_2024_BLACK_RGB" data-name="Disney+Logo_2024_BLACK_RGB" transform="translate(8.001 7)">
      <path id="Trazado_109054" data-name="Trazado 109054" d="M7.656,293.437a12,12,0,0,0-6.441-.285,1.536,1.536,0,0,0-1.038.744.883.883,0,0,0-.162.641c.05.189.319.255.536.289s.68.058.808-.094c.066-.079.068-.3-.278-.375-.128-.027-.475-.039-.5-.1,0,0,.012-.041.2-.1a6.33,6.33,0,0,1,2.39-.226A16.3,16.3,0,0,1,8.787,295.2a12.512,12.512,0,0,1,5.049,3.544,5.172,5.172,0,0,1,1.088,2.343c.179,1.955-1.731,3.605-5.608,3.473a11.174,11.174,0,0,1-1.468-.18l-.08-3.775a12.046,12.046,0,0,1,3.455.585c.154.051.31.152.324.3a.4.4,0,0,1-.183.3c-.188.164-.447.236-.5.305a.119.119,0,0,0,.012.169,1.221,1.221,0,0,0,.7.157,1.3,1.3,0,0,0,.991-.651c.245-.369.384-1.308-.919-1.907a9.334,9.334,0,0,0-3.886-.629s-.011-.512-.034-.853c-.038-.559-.193-1.658-.7-1.974a.2.2,0,0,0-.272.023,2.749,2.749,0,0,0-.217.748,16.52,16.52,0,0,0-.192,2.182.117.117,0,0,1-.02.018,10.588,10.588,0,0,0-2.412.667,2.636,2.636,0,0,0-1.343,1.041c-.262.609.2,1.275.978,2.013a10.175,10.175,0,0,0,2.353,1.623c.184.087.4.194.4.194s.047.436.084.688a.772.772,0,0,0,1.019.737c.31-.063.37-.27.413-.509a1.737,1.737,0,0,0,.014-.32s.469.108.784.165a9.051,9.051,0,0,0,2.774.081c3.449-.471,4.318-2.1,4.593-2.53.477-.755,1.49-2.857-1.561-5.977a14.63,14.63,0,0,0-6.757-3.821Zm-4.555,8.5a.513.513,0,0,1-.192-.439c.028-.163.348-.307.509-.355a12.083,12.083,0,0,1,2.875-.482s-.012.558-.015,1.123c-.005,1.069.023,2.155.023,2.155a8.141,8.141,0,0,1-3.2-2Z" transform="translate(0.001 -283.014)" fill="#fff"/>
      <path id="Trazado_109055" data-name="Trazado 109055" d="M472.286,328.3a5.136,5.136,0,0,0,1.863-1.28,1.671,1.671,0,0,0,.518-1.4,1.034,1.034,0,0,0-.38-.608,1.41,1.41,0,0,0-.54-.256.61.61,0,0,1-.141-.031.411.411,0,0,1-.077-.088,1.383,1.383,0,0,0-.564-.38,2.771,2.771,0,0,0-1.816.167,4.172,4.172,0,0,0-1.413.967,1.683,1.683,0,0,0-.467,2.06,1.87,1.87,0,0,1,.245.414,1.8,1.8,0,0,1,.005.288.854.854,0,0,0,.272.6c.12.106.293.137.467-.126.058-.088.155-.268.155-.268a1.747,1.747,0,0,0,.69.151A3.118,3.118,0,0,0,472.286,328.3Zm-2.337-1.284s-.034-.071-.056-.124c-.15-.373.181-.794.484-1.052a1.785,1.785,0,0,1,1.09-.49s-.12.1-.219.183A7.028,7.028,0,0,0,469.949,327.013Zm1.289-.014a6.342,6.342,0,0,1,1.492-1.318,1.026,1.026,0,0,1,.914-.174.445.445,0,0,1,.27.357c.062.524-.542.961-.946,1.2a3.075,3.075,0,0,1-2.032.366c0-.013.22-.318.3-.428Z" transform="translate(-453.38 -313.299)" fill="#fff"/>
      <path id="Trazado_109056" data-name="Trazado 109056" d="M1019.225,472.917c-1.169-.811-3.055,1.761-3.885,3.037a2.733,2.733,0,0,1,.316-1.473s.7-1.22.8-1.467.152-.762.031-.812-.3.114-.3.114a5.465,5.465,0,0,0-1.8,2.995,2.57,2.57,0,0,0,.282,1.861,9.657,9.657,0,0,0-1.195,4.473,1.82,1.82,0,0,0,.953,1.379c.323.135.38-.254.38-.254a17.16,17.16,0,0,1,1.263-4.655c1.649.379,2.89-1.226,3.329-1.993a3.509,3.509,0,0,0,.4-1.654,1.9,1.9,0,0,0-.574-1.551Zm-1.074,3.185a3.01,3.01,0,0,1-1.466.605,12.055,12.055,0,0,1,1.814-2.554c.5-.559.561-.051.561-.051a2.439,2.439,0,0,1-.91,2Z" transform="translate(-979.501 -456.37)" fill="#fff"/>
      <path id="Trazado_109057" data-name="Trazado 109057" d="M904.489,482.626a.631.631,0,0,0-.441-.691,15.732,15.732,0,0,0-2.211.341c-.227.061-.126-.153-.126-.153l.273-.925s1.689-.065,1.935-.106c.227-.041.241-.2.241-.2a4.148,4.148,0,0,0,.021-.512c-.025-.265-.237-.24-.237-.24a10.035,10.035,0,0,0-1.551.009l.227-.71a22.115,22.115,0,0,0,2.479-.245c.351-.083.144-.427.144-.427-.426-.852-.917-.8-.917-.8a14.69,14.69,0,0,0-3.69.438c-.209.1-.187.253.086.6a1,1,0,0,0,.786.329l-.433.9a.829.829,0,0,0-.475.135c-.2.217.077.86.077.86s-.613,1.376-.169,2.1c.478.763,1.043.726,1.043.726a4.315,4.315,0,0,0,2.936-1.42Z" transform="translate(-870.182 -461.944)" fill="#fff"/>
      <path id="Trazado_109058" data-name="Trazado 109058" d="M746.277,453.341s-.25-.117-.314.133a.99.99,0,0,0,.031.51,22.032,22.032,0,0,1,.764,3.362s.029.367-.042.388c-.05.038-.106-.014-.106-.014a10.242,10.242,0,0,1-.754-1.143l-.133-.224a8.315,8.315,0,0,0-1.207-1.626.44.44,0,0,0-.721,0,6.3,6.3,0,0,0-.715,2.752,4.169,4.169,0,0,0,.145,2.075.547.547,0,0,0,.832.135c.31-.238.251-1.751.3-2.527s.124-.64.124-.64c.068-.018.423.695.423.695s.934,1.912,1.521,2.2a.939.939,0,0,0,1.253-.6,5.68,5.68,0,0,0,.031-3.42,3.338,3.338,0,0,0-1.434-2.057Z" transform="translate(-718.144 -438.125)" fill="#fff"/>
      <path id="Trazado_109059" data-name="Trazado 109059" d="M510.681,485.965a17.908,17.908,0,0,0-.233-2.462.755.755,0,0,0-.424-.594.525.525,0,0,0-.086-.025c-.16-.031-.252.189-.295.3a7.253,7.253,0,0,0-.242,1.341,18.488,18.488,0,0,0-.009,3.349c.053.37.175.611.549.688a.931.931,0,0,0,.55-.052.5.5,0,0,0,.205-.305,4.643,4.643,0,0,0,.028-1.073c-.016-.388-.026-.774-.044-1.166Z" transform="translate(-492.254 -466.702)" fill="#fff"/>
      <path id="Trazado_109060" data-name="Trazado 109060" d="M566.73,476.639a5.675,5.675,0,0,0-2.959-.328,3.637,3.637,0,0,0-2.472,1.068,1.324,1.324,0,0,0-.209,1.009.683.683,0,0,0,.375.427,9.349,9.349,0,0,0,2,.272,8.026,8.026,0,0,1,1.859.342s.463.161.46.426a.407.407,0,0,1-.2.306,4.476,4.476,0,0,1-2.613.646,2.087,2.087,0,0,1-.854-.183c-.13-.057-.3-.161-.276-.338.036-.284.362-.354.62-.33a1.951,1.951,0,0,1,.474.13c.57.225.829.414,1.33.338.187-.028.835-.169.922-.436a.187.187,0,0,0-.057-.184,2.907,2.907,0,0,0-.564-.26,6.436,6.436,0,0,0-1.507-.275,1.869,1.869,0,0,0-1.554.527c-.271.395-.332,1.189,1.013,1.858a3.856,3.856,0,0,0,2.082.372,2.462,2.462,0,0,0,1.985-1.14,1.884,1.884,0,0,0-.041-1.617c-.166-.308-.368-.718-1.869-.907-.24-.03-2.006-.235-2.168-.26-.09-.014-.5-.063-.358-.221a.639.639,0,0,1,.239-.1,15.788,15.788,0,0,1,3.077-.279,5.161,5.161,0,0,0,.951-.119.648.648,0,0,0,.468-.482c.026-.133-.037-.2-.162-.262Z" transform="translate(-542.263 -460.298)" fill="#fff"/>
      <path id="Trazado_109061" data-name="Trazado 109061" d="M1243.961,432h-2.774a20.221,20.221,0,0,0-.29-2.837.334.334,0,0,0-.328-.276h-.748a.234.234,0,0,0-.229.277A18.787,18.787,0,0,1,1239.9,432h-2.818a.234.234,0,0,0-.234.235v.851a.234.234,0,0,0,.234.235h2.818a18.831,18.831,0,0,1-.311,2.836.234.234,0,0,0,.229.277h.748a.334.334,0,0,0,.328-.276,20.221,20.221,0,0,0,.29-2.837h2.774a.234.234,0,0,0,.234-.235v-.851A.234.234,0,0,0,1243.961,432Z" transform="translate(-1195.409 -414.52)" fill="#fff"/>
      <path id="Trazado_109062" data-name="Trazado 109062" d="M306.6,7.186a.3.3,0,0,0,.374-.1,18.547,18.547,0,0,1,3.178-2.727c7.78-5.314,19.2-4.541,25.883,2.193a16.852,16.852,0,0,1,4.037,6.419.334.334,0,0,0,.316.228h.767a.234.234,0,0,0,.221-.309,18.458,18.458,0,0,0-4.782-7.364A21.5,21.5,0,0,0,310.3,3.588a19.851,19.851,0,0,0-3.713,3.276.21.21,0,0,0,.011.323Z" transform="translate(-296.245 0.002)" fill="#fff"/>
    </g>
  </g>
  <circle id="Elipse_412" data-name="Elipse 412" cx="2.884" cy="2.884" r="2.884" transform="translate(68 17)" fill="#fff"/>
  <g id="Grupo_50955" data-name="Grupo 50955" transform="translate(302)">
    <g id="Grupo_50954" data-name="Grupo 50954" transform="translate(7 8)" clip-path="url(#clip-path-3)">
      <path id="Trazado_109197" data-name="Trazado 109197" d="M163.267,1.22l7.168,6.36-7.168,6.36-3.752-2.856,3.749-3.016V7.093l-3.739-3.027,3.742-2.845m-1,6.423-4.224,3.4a.082.082,0,0,0,0,.127l5.225,3.977a.069.069,0,0,0,.089,0l8.455-7.5a.083.083,0,0,0,0-.122l-8.455-7.5a.069.069,0,0,0-.089,0l-5.212,3.964a.081.081,0,0,0,0,.127l4.212,3.411a.082.082,0,0,1,0,.126Z" transform="translate(-137.837 0)" fill="#fff"/>
      <path id="Trazado_109198" data-name="Trazado 109198" d="M46.649,121.695a1.342,1.342,0,0,1-.5.272,2.134,2.134,0,0,1-.626.09,1.7,1.7,0,0,1-1.28-.464,1.862,1.862,0,0,1-.452-1.353v-2.595H42.96v-1.009h.829V115.4h1.177v1.232h1.347v1.009H44.966v2.564a.9.9,0,0,0,.179.6.646.646,0,0,0,.518.207.99.99,0,0,0,.659-.222l.329.9Z" transform="translate(-37.476 -99.604)" fill="#fff"/>
      <path id="Trazado_109199" data-name="Trazado 109199" d="M81.629,123.655v1.2a1.494,1.494,0,0,0-1.347.4,1.786,1.786,0,0,0-.386,1.236v2.615H78.72v-5.392h1.12v.787a1.912,1.912,0,0,1,1.789-.848Z" transform="translate(-68.67 -106.725)" fill="#fff"/>
      <path id="Trazado_109200" data-name="Trazado 109200" d="M110.1,126.816h-3.945a1.478,1.478,0,0,0,.541.943,1.69,1.69,0,0,0,1.088.348,1.769,1.769,0,0,0,1.365-.586l.631.778a2.141,2.141,0,0,1-.857.656,3.186,3.186,0,0,1-2.626-.131,2.444,2.444,0,0,1-.974-.984,3.158,3.158,0,0,1-.009-2.846,2.463,2.463,0,0,1,.927-.984,2.563,2.563,0,0,1,1.337-.353,2.494,2.494,0,0,1,1.314.348,2.4,2.4,0,0,1,.9.979,3.14,3.14,0,0,1,.324,1.46q0,.131-.019.374Zm-3.479-1.792a1.542,1.542,0,0,0-.475.954H109a1.525,1.525,0,0,0-.461-.949,1.449,1.449,0,0,0-1.915-.005Z" transform="translate(-91.578 -106.725)" fill="#fff"/>
      <path id="Trazado_109201" data-name="Trazado 109201" d="M149.782,129a2.915,2.915,0,0,1-.932-.434l.452-.96a2.807,2.807,0,0,0,.815.389,3.183,3.183,0,0,0,.937.147q1.055,0,1.054-.6a.4.4,0,0,0-.268-.394,4.357,4.357,0,0,0-.862-.212,6.529,6.529,0,0,1-1.012-.233,1.544,1.544,0,0,1-.678-.46,1.341,1.341,0,0,1-.287-.913,1.469,1.469,0,0,1,.6-1.227,2.583,2.583,0,0,1,1.615-.46,4.388,4.388,0,0,1,1.035.126,2.821,2.821,0,0,1,.848.338l-.452.96a2.637,2.637,0,0,0-1.44-.4,1.509,1.509,0,0,0-.786.167.5.5,0,0,0-.268.44.437.437,0,0,0,.287.429,4.26,4.26,0,0,0,.89.237,6.422,6.422,0,0,1,.988.233,1.538,1.538,0,0,1,.664.444,1.3,1.3,0,0,1,.277.889,1.435,1.435,0,0,1-.612,1.212,2.741,2.741,0,0,1-1.666.455,4.248,4.248,0,0,1-1.2-.171Z" transform="translate(-129.847 -106.716)" fill="#fff"/>
      <path id="Trazado_109202" data-name="Trazado 109202" d="M194.691,124.007a2.4,2.4,0,0,1,.909.969,3.341,3.341,0,0,1,0,2.893,2.387,2.387,0,0,1-.909.975,2.526,2.526,0,0,1-1.314.344,1.968,1.968,0,0,1-1.61-.727v2.2H190.59v-6.938h1.12v.706a1.821,1.821,0,0,1,.72-.575,2.3,2.3,0,0,1,.946-.192,2.532,2.532,0,0,1,1.314.344Zm-.377,3.635a1.99,1.99,0,0,0,0-2.443,1.376,1.376,0,0,0-1.069-.464,1.415,1.415,0,0,0-1.3.8,2.094,2.094,0,0,0,0,1.777,1.415,1.415,0,0,0,1.3.8,1.376,1.376,0,0,0,1.069-.464" transform="translate(-166.259 -106.733)" fill="#fff"/>
      <rect id="Rectángulo_28918" data-name="Rectángulo 28918" width="1.177" height="7.106" transform="translate(30.695 15.278)" fill="#fff"/>
      <path id="Trazado_109203" data-name="Trazado 109203" d="M262.188,124.235a2.3,2.3,0,0,1,.589,1.721v3.16h-1.111v-.656a1.385,1.385,0,0,1-.617.539,2.267,2.267,0,0,1-.965.186,2.22,2.22,0,0,1-.988-.207,1.57,1.57,0,0,1-.655-.575,1.54,1.54,0,0,1-.231-.832,1.468,1.468,0,0,1,.5-1.167,2.376,2.376,0,0,1,1.587-.44h1.3v-.081a1.145,1.145,0,0,0-.315-.868,1.307,1.307,0,0,0-.937-.3,2.535,2.535,0,0,0-.834.141,2,2,0,0,0-.692.394l-.461-.919a2.771,2.771,0,0,1,.951-.494,3.945,3.945,0,0,1,1.177-.171,2.343,2.343,0,0,1,1.7.571Zm-1.074,3.817a1.173,1.173,0,0,0,.485-.62v-.626h-1.214q-1.017,0-1.016.717a.658.658,0,0,0,.254.545,1.11,1.11,0,0,0,.706.2,1.425,1.425,0,0,0,.786-.218Z" transform="translate(-225.246 -106.733)" fill="#fff"/>
      <path id="Trazado_109204" data-name="Trazado 109204" d="M3.978,124.235a2.3,2.3,0,0,1,.589,1.721v3.16H3.456v-.656a1.385,1.385,0,0,1-.617.539,2.268,2.268,0,0,1-.965.186,2.22,2.22,0,0,1-.988-.207,1.569,1.569,0,0,1-.655-.575A1.54,1.54,0,0,1,0,127.571,1.468,1.468,0,0,1,.5,126.4a2.376,2.376,0,0,1,1.587-.44h1.3v-.081a1.145,1.145,0,0,0-.315-.868,1.307,1.307,0,0,0-.937-.3,2.536,2.536,0,0,0-.834.141,2,2,0,0,0-.692.394l-.461-.919a2.771,2.771,0,0,1,.951-.494,3.945,3.945,0,0,1,1.177-.171,2.343,2.343,0,0,1,1.7.571ZM2.9,128.052a1.173,1.173,0,0,0,.485-.62v-.626H2.175q-1.017,0-1.016.717a.658.658,0,0,0,.254.545,1.11,1.11,0,0,0,.706.2,1.425,1.425,0,0,0,.786-.218Z" transform="translate(0 -106.733)" fill="#fff"/>
      <path id="Trazado_109205" data-name="Trazado 109205" d="M346.971,126.816h-3.945a1.479,1.479,0,0,0,.541.943,1.69,1.69,0,0,0,1.088.348,1.769,1.769,0,0,0,1.365-.586l.631.778a2.142,2.142,0,0,1-.857.656,3.186,3.186,0,0,1-2.626-.131,2.445,2.445,0,0,1-.974-.984,3.158,3.158,0,0,1-.009-2.846,2.464,2.464,0,0,1,.927-.984,2.563,2.563,0,0,1,1.337-.353,2.494,2.494,0,0,1,1.314.348,2.4,2.4,0,0,1,.9.979,3.139,3.139,0,0,1,.324,1.46q0,.131-.019.374Zm-3.479-1.792a1.542,1.542,0,0,0-.475.954h2.852a1.525,1.525,0,0,0-.461-.949,1.449,1.449,0,0,0-1.915-.005Z" transform="translate(-298.209 -106.725)" fill="#fff"/>
      <path id="Trazado_109206" data-name="Trazado 109206" d="M393.119,123.655v1.2a1.494,1.494,0,0,0-1.347.4,1.786,1.786,0,0,0-.386,1.236v2.615H390.21v-5.392h1.12v.787a1.912,1.912,0,0,1,1.788-.848Z" transform="translate(-340.395 -106.725)" fill="#fff"/>
      <path id="Trazado_109207" data-name="Trazado 109207" d="M301.395,124.625l-1.662,4.168-1.653-4.168H296.8l1.833,4.521h.9l-.437,1.135-.467,1.168,1.144,0,2.806-6.827Z" transform="translate(-258.91 -107.562)" fill="#fff"/>
    </g>
    <rect id="Rectángulo_18532-5" data-name="Rectángulo 18532" width="66.126" height="39.913" rx="5" fill="none"/>
  </g>
  <circle id="Elipse_527" data-name="Elipse 527" cx="2.884" cy="2.884" r="2.884" transform="translate(143 17)" fill="#fff"/>
  <circle id="Elipse_528" data-name="Elipse 528" cx="2.884" cy="2.884" r="2.884" transform="translate(219 17)" fill="#fff"/>
  <circle id="Elipse_529" data-name="Elipse 529" cx="2.884" cy="2.884" r="2.884" transform="translate(294 17)" fill="#fff"/>
</svg>
