<svg xmlns="http://www.w3.org/2000/svg" width="223.713" height="39.735" viewBox="0 0 223.713 39.735">
  <g id="Grupo_50938" data-name="Grupo 50938" transform="translate(-805 -549)">
    <g id="Grupo_50936" data-name="Grupo 50936" transform="translate(884 549)">
      <rect id="Rectángulo_18532" data-name="Rectángulo 18532" width="65.83" height="39.735" rx="5" transform="translate(0 0)" fill="none"/>
      <g id="Grupo_22158" data-name="Grupo 22158" transform="translate(10.676 7.71)">
        <path id="Trazado_42240" data-name="Trazado 42240" d="M43.417-378.069c-.4.019-.807.035-1.211.045-.08,0-.1.021-.1.1,0,.813,0,1.626,0,2.439,0,.183.006.367,0,.549a.894.894,0,0,1-1.016.945.809.809,0,0,1-.788-.6,1.5,1.5,0,0,1-.065-.451c0-.927,0-1.855,0-2.782,0-.1-.026-.12-.125-.115-.441.021-.882.058-1.325.053v3.275a1.074,1.074,0,0,1,.068.3,1.859,1.859,0,0,0,1.321,1.483,3.258,3.258,0,0,0,1.926.008,1.864,1.864,0,0,0,1.29-1.266,3.4,3.4,0,0,0,.155-1.081c0-.927,0-1.855,0-2.782C43.552-378.059,43.512-378.074,43.417-378.069Z" transform="translate(-38.788 387.641)" fill="#fff"/>
        <path id="Trazado_42241" data-name="Trazado 42241" d="M232.1-373.942c-.093,0-.111-.032-.11-.118,0-1.236,0-2.473,0-3.71,0-.1-.028-.121-.116-.124-.4-.015-.8-.032-1.2-.057-.1-.006-.109.024-.109.109q0,2.525,0,5.05c0,.086.016.114.109.114.729,0,1.458,0,2.187,0l1.534,0v-1.237C233.637-373.929,232.87-373.938,232.1-373.942Z" transform="translate(-189.835 387.548)" fill="#fff"/>
        <path id="Trazado_42242" data-name="Trazado 42242" d="M140.685-423.111c0-.006.009-.011.006-.019h-.664c0,.009,0,.014.006.02Z" transform="translate(-118.521 423.13)" fill="#fff"/>
        <path id="Trazado_42243" data-name="Trazado 42243" d="M143.314-423.112c0-.006.008-.011,0-.018h-.16c0,.006,0,.013,0,.019Z" transform="translate(-120.988 423.13)" fill="#fff"/>
        <path id="Trazado_42244" data-name="Trazado 42244" d="M139.43-423.11a.128.128,0,0,0,0-.02h-.16c0,.007,0,.013,0,.019Z" transform="translate(-117.926 423.13)" fill="#fff"/>
        <path id="Trazado_42245" data-name="Trazado 42245" d="M89.8-415.214a10.913,10.913,0,0,1,.535-1.159,10.772,10.772,0,0,1,3.7-4.079,10.412,10.412,0,0,1,6.189-1.652,10.635,10.635,0,0,1,2.969.542,11.361,11.361,0,0,1,4.948,3.27,11.218,11.218,0,0,1,2.111,3.449c.031.079.065.115.153.108.114-.009.229,0,.343,0,.133,0,.133,0,.092-.123a11.944,11.944,0,0,0-3.185-4.971,11.926,11.926,0,0,0-7.661-3.281.1.1,0,0,1,0-.02h-.137a.044.044,0,0,1,0,.018h-.006c0,.005,0,.012,0,.016a.122.122,0,0,1-.149-.016h-.009c0,.006,0,.013-.005.018a2.01,2.01,0,0,1-.642,0c-.006,0,0-.011,0-.016h-.008a.125.125,0,0,1-.15.014c-.005,0,0-.011,0-.016h-.006a.092.092,0,0,1,0-.019h-.137a.05.05,0,0,1,0,.02,12.1,12.1,0,0,0-10.759,8.025c.579-.013,1.153-.027,1.729-.037C89.768-415.124,89.779-415.169,89.8-415.214Z" transform="translate(-77.524 423.13)" fill="#fff"/>
        <path id="Trazado_42246" data-name="Trazado 42246" d="M70.5-378.832c0-.08-.017-.1-.1-.1-.4.016-.8.026-1.2.034-.083,0-.113.026-.113.118,0,.862,0,1.725,0,2.587a.241.241,0,0,1-.018.136l-.131-.174-1.883-2.519c-.032-.043-.058-.083-.125-.081-.385.014-.769.027-1.154.034-.079,0-.1.024-.1.1q0,2.571,0,5.141c0,.083.027.1.1.1.393,0,.786,0,1.179,0,.094,0,.119-.023.119-.119,0-.893,0-1.786,0-2.679,0-.037-.014-.08.02-.117q1.049,1.421,2.088,2.831a.171.171,0,0,0,.158.083q.527-.007,1.053,0c.084,0,.107-.017.107-.1,0-.863,0-1.725,0-2.588C70.5-377.038,70.5-377.935,70.5-378.832Z" transform="translate(-59.967 388.319)" fill="#fff"/>
        <path id="Trazado_42247" data-name="Trazado 42247" d="M159.006-375.793c-.042-.067-.039-.091.036-.13a1.677,1.677,0,0,0,.87-1.038,2.2,2.2,0,0,0,.075-.839,1.715,1.715,0,0,0-.97-1.474,2.4,2.4,0,0,0-1.082-.249c-.79,0-1.58,0-2.37,0-.082,0-.11.015-.11.105q0,2.7,0,5.393c0,.082.015.111.1.109q.613-.008,1.225,0c.1,0,.11-.032.109-.116,0-.5,0-.992,0-1.488,0-.094.028-.114.115-.11a4.277,4.277,0,0,0,.469,0,.184.184,0,0,1,.2.121c.261.507.53,1.011.795,1.516.021.04.033.078.1.078.526,0,1.052,0,1.6,0l-.076-.126Q159.548-374.92,159.006-375.793Zm-.461-1.532a.606.606,0,0,1-.519.44,7.9,7.9,0,0,1-1.084.026c-.064,0-.048-.046-.048-.08,0-.2,0-.4,0-.606s0-.4,0-.595c0-.045,0-.081.062-.079.331.008.664-.017.994.012A.658.658,0,0,1,158.545-377.325Z" transform="translate(-130.674 388.787)" fill="#fff"/>
        <path id="Trazado_42248" data-name="Trazado 42248" d="M131.8-373.919q1.969,0,3.939,0c.075,0,.095-.019.094-.093,0-.363-.006-.725,0-1.088,0-.109-.017-.146-.139-.145-.805.007-1.611,0-2.416,0-.082,0-.122-.01-.119-.109.008-.221.009-.443,0-.664,0-.1.027-.125.127-.124.717,0,1.435,0,2.152,0,.086,0,.109-.022.108-.108-.005-.336-.006-.672,0-1.008,0-.1-.025-.119-.12-.118-.721,0-1.442,0-2.164,0-.079,0-.1-.019-.1-.1.005-.21.008-.42,0-.63,0-.1.023-.118.118-.117.805,0,1.611,0,2.416,0,.069,0,.1-.009.1-.09q-.007-.567,0-1.133c0-.087-.032-.1-.106-.1q-1.935,0-3.87,0c-.09,0-.113.023-.113.113,0,.9,0,1.794,0,2.691s0,1.8,0,2.7C131.7-373.945,131.715-373.919,131.8-373.919Z" transform="translate(-111.965 388.789)" fill="#fff"/>
        <path id="Trazado_42249" data-name="Trazado 42249" d="M182.544-377.048a4.876,4.876,0,0,0-1.008-.359,2.454,2.454,0,0,1-.723-.273.321.321,0,0,1-.182-.34.333.333,0,0,1,.284-.262,1.172,1.172,0,0,1,.455-.009,2.491,2.491,0,0,1,1.12.484c.066.048.09.04.133-.026.191-.3.385-.595.585-.887.053-.078.044-.113-.026-.171a3.036,3.036,0,0,0-1.985-.7,2.636,2.636,0,0,0-.669.073,1.664,1.664,0,0,0-1.3,2.028,1.531,1.531,0,0,0,.817,1.007,4.505,4.505,0,0,0,1.117.423,2.35,2.35,0,0,1,.64.236.321.321,0,0,1,.168.315.329.329,0,0,1-.226.29.9.9,0,0,1-.325.055,2.416,2.416,0,0,1-1.564-.578c-.114-.09-.113-.091-.2.027l-.58.752c-.123.161-.125.163.033.294a3.371,3.371,0,0,0,2.815.732,1.641,1.641,0,0,0,1.461-1.438A1.461,1.461,0,0,0,182.544-377.048Z" transform="translate(-149.205 388.836)" fill="#fff"/>
        <path id="Trazado_42250" data-name="Trazado 42250" d="M205.685-375.556l-1.22-3.048c-.021-.051-.032-.1-.113-.1q-.6-.007-1.2-.03c-.082,0-.109.03-.136.1q-.863,2.162-1.73,4.322l-.4,1c.015.008.021.013.027.013.466,0,.931,0,1.4,0,.064,0,.074-.039.09-.081.1-.27.21-.539.311-.809a.1.1,0,0,1,.115-.078q.893,0,1.786,0a.1.1,0,0,1,.114.08c.1.267.205.532.3.8a.118.118,0,0,0,.132.09c.447,0,.893,0,1.34,0,.026,0,.051,0,.075,0,.012-.035-.007-.056-.017-.081Zm-2.533.119.575-1.51.558,1.51Z" transform="translate(-166.452 388.167)" fill="#fff"/>
        <path id="Trazado_42251" data-name="Trazado 42251" d="M106.98-379.407q-.287.944-.581,1.886c-.155.5-.311,1.006-.468,1.514-.039-.02-.04-.055-.049-.081q-.281-.8-.558-1.606l-.6-1.712c-.015-.043-.024-.079-.089-.079-.5,0-1,0-1.523,0,.022.066.031.094.041.122q1,2.681,2.005,5.361a.115.115,0,0,0,.132.087q.584-.006,1.168,0a.127.127,0,0,0,.144-.1q.848-2.379,1.7-4.756l.267-.748h-.127c-.446,0-.893.011-1.339.009C107.028-379.509,107-379.478,106.98-379.407Z" transform="translate(-89.453 388.782)" fill="#fff"/>
        <path id="Trazado_42252" data-name="Trazado 42252" d="M94.708-379.166c-.431.013-.861.021-1.292.027-.067,0-.08.022-.08.084q0,2.667,0,5.334c0,.074.023.086.09.086.416,0,.832,0,1.248,0,.086,0,.114-.018.113-.11,0-.881,0-1.763,0-2.644s0-1.785,0-2.678C94.785-379.121,94.8-379.169,94.708-379.166Z" transform="translate(-81.749 388.505)" fill="#fff"/>
        <path id="Trazado_42253" data-name="Trazado 42253" d="M183.419-345.664h-1.53v-1.53H180.65v1.53h-1.53v1.239h1.53v1.53h1.239v-1.53h1.53Z" transform="translate(-149.312 363.324)" fill="#fff"/>
        <path id="Trazado_42254" data-name="Trazado 42254" d="M101.144-339.312a12.39,12.39,0,0,1-2.965-.086,10.891,10.891,0,0,1-3.362-1.05,10.562,10.562,0,0,1-4.564-4.461,11.64,11.64,0,0,1-.712-1.567c-.014-.039-.015-.089-.083-.089-.35,0-.7,0-1.047,0-.017.041.006.068.015.1a11.285,11.285,0,0,0,2.615,4.31,11.7,11.7,0,0,0,7.448,3.554,12.465,12.465,0,0,0,4.29-.317,11.462,11.462,0,0,0,5.3-2.913l-.729-.036A10.487,10.487,0,0,1,101.144-339.312Z" transform="translate(-77.865 362.829)" fill="#fff"/>
      </g>
    </g>
    <g id="Grupo_50937" data-name="Grupo 50937" transform="translate(963 549)">
      <rect id="Rectángulo_18532-2" data-name="Rectángulo 18532" width="65.713" height="39.664" rx="5" transform="translate(0 0)" fill="none"/>
      <g id="edye_calado" data-name="edye calado" transform="translate(13.449 8.219)">
        <g id="Grupo_19717" data-name="Grupo 19717" transform="translate(0 0)">
          <path id="Trazado_42096" data-name="Trazado 42096" d="M52.492,55.2a.943.943,0,0,0-.984,1.014A1.076,1.076,0,0,0,52.58,57.35a1.06,1.06,0,0,0,1.125-1.083A1.116,1.116,0,0,0,52.492,55.2Z" transform="translate(-38.959 -41.752)" fill="#fff"/>
          <path id="Trazado_42097" data-name="Trazado 42097" d="M23.276,49.106c-.194-.831-.651-1.184-1.293-1.039-.739.172-1.031.685-.87,1.589Z" transform="translate(-15.936 -36.333)" fill="#fff"/>
          <path id="Trazado_42098" data-name="Trazado 42098" d="M139.96,50.963c-.75-.132-1.215.236-1.416,1.132l2.21.324C140.894,51.577,140.608,51.076,139.96,50.963Z" transform="translate(-104.79 -38.527)" fill="#fff"/>
          <g id="Grupo_19716" data-name="Grupo 19716" transform="translate(0 4.394)">
            <path id="Trazado_42099" data-name="Trazado 42099" d="M136.67,63.735a4.6,4.6,0,0,0,2.141.281,4.778,4.778,0,0,0,.509-.074.208.208,0,0,1,.243.119.209.209,0,0,0-.245-.124,4.859,4.859,0,0,1-.509.073,4.606,4.606,0,0,1-2.141-.28,1.2,1.2,0,0,1-.838-.978A1.189,1.189,0,0,0,136.67,63.735Z" transform="translate(-102.737 -51.858)" fill="none"/>
            <path id="Trazado_42100" data-name="Trazado 42100" d="M139.96,50.962c-.75-.132-1.215.231-1.416,1.132l2.21.324C140.894,51.577,140.608,51.075,139.96,50.962Z" transform="translate(-104.79 -42.92)" fill="none"/>
            <path id="Trazado_42101" data-name="Trazado 42101" d="M121.877,47.37a4.688,4.688,0,0,1,1.2-2.421c.052-.053.106-.1.161-.153a3.94,3.94,0,0,1,6.138,1.242,3.941,3.941,0,0,0-6.14-1.247c-.055.053-.109.1-.161.153a4.684,4.684,0,0,0-1.2,2.421,4.534,4.534,0,0,0,.1,2.094A4.535,4.535,0,0,1,121.877,47.37Z" transform="translate(-92.124 -37.533)" fill="none"/>
            <path id="Trazado_42102" data-name="Trazado 42102" d="M48.433,24.627c-.755.029-.769.043-.788.815-.027,1.168-.031,2.336-.045,3.555a1.4,1.4,0,0,1-.181-.064,3.531,3.531,0,0,0-4.6,1.051,4.006,4.006,0,0,0-.75,2.491,6.277,6.277,0,0,0,.112,1.067c.008.043.018.085.027.126a3.459,3.459,0,0,0,3.586,2.9,12.1,12.1,0,0,0,1.98-.448c-.121.548.306.619.764.626.712.006,1.424-.021,2.134,0,.382.012.467-.144.477-.5q.011-.332.02-.664.082-2.8.17-5.608.053-1.7.107-3.391c0-.114.013-.227.013-.34,0-.045.006-.222.012-.446,0-.138.013-.275.013-.414,0-.165.01-.333.01-.507V24.59c-.819,0-1.639,0-2.459.018Q48.734,24.615,48.433,24.627Z" transform="translate(-31.816 -22.993)" fill="none"/>
            <path id="Trazado_42103" data-name="Trazado 42103" d="M13.928,46.905a4.764,4.764,0,0,1-2.527.828,1.126,1.126,0,0,1-1.266-.92c-.019-.114.028-.136.1-.124a1.715,1.715,0,0,1,.29.092,3.811,3.811,0,0,0,3.615-1,.408.408,0,0,0,.054-.254c-.445-2.859-3.231-4.208-5.868-2.479a3.649,3.649,0,0,0-1.39,1.715c-.836,2.122.126,5.08,2.44,5.742a4.873,4.873,0,0,0,3.548-.366A4.144,4.144,0,0,0,14.452,49a1.783,1.783,0,0,0,.123-1.078C14.5,47.295,14.234,46.694,13.928,46.905Z" transform="translate(-5.022 -36.377)" fill="none"/>
            <path id="Trazado_42104" data-name="Trazado 42104" d="M89.546,40.422c-.071-.012-.221.149-.259.256-.178.5-.348,1.012-.521,1.527-.078.231-.155.466-.233.7l-.152.461-.261.8c-.059-.252-.089-.377-.119-.5l-.005-.021q-.2-.842-.4-1.683-.145-.6-.289-1.2c-.047-.2-.12-.343-.372-.3-.829.141-1.66.277-2.512.416-.242.039-.561.1-.807.139a1.4,1.4,0,0,0,.122.4c.041.119.081.238.122.358q.246.714.489,1.429.424,1.236.853,2.469.314.9.642,1.792a1.213,1.213,0,0,1-.008,1.04c-.4.832-.765,1.678-1.158,2.546a10.44,10.44,0,0,0,2.8,1.186c.593.153.6.154.837-.387q1.513-3.436,3.009-6.88l.5-1.149c.12-.28.235-.562.351-.849.153-.374.3-.756.453-1.157l.083-.213.211-.536C91.749,40.835,90.647,40.616,89.546,40.422Z" transform="translate(-63.242 -34.968)" fill="none"/>
            <path id="Trazado_42105" data-name="Trazado 42105" d="M38.957,26.565a5.07,5.07,0,0,0-1.256-2.3,5.507,5.507,0,0,0-5.149-1.444,5.209,5.209,0,0,0-.668.176c-.086.029-.205-.036-.286-.063-.126-.042-.257-.069-.386-.1-1.19-.288-2.39-.529-3.591-.766-.308-.061-.616-.138-.928-.171a.554.554,0,0,1-.1-.006,1.769,1.769,0,0,0-1.537.5,1.9,1.9,0,0,0-1.63-.458c-.723.122-1.437.239-2.186.362l.057-1.809c0-.172.006-.334.008-.507v-.239l.018-1.447s-3.94-.281-4.768-.252a2.356,2.356,0,0,0-1.776.623,2.4,2.4,0,0,0-.576,1.78c-.011.485-.018.964-.024,1.448a5.044,5.044,0,0,0-1.525.159A5.9,5.9,0,0,0,9.6,24.176a6.958,6.958,0,0,0-1.87-1.432,5.712,5.712,0,0,0-6.667,1.891A5.58,5.58,0,0,0,.007,27.7,6.407,6.407,0,0,0,2.2,32.916c2.286,1.833,6.063,1.264,8.126-.652.018-.017.215-.21.214-.211a4.938,4.938,0,0,0,2.971,1.187,5.153,5.153,0,0,0,1.038-.051,2.707,2.707,0,0,0,.41-.083c.062-.019.21-.1.274-.059a2.772,2.772,0,0,0,1.49.372c.684.009,1.367,0,2.05,0,.3,0,1.211-.023,1.368-.374-.06.133-.12.268-.181.4l-.595,1.317a21.893,21.893,0,0,0,2.538,1.4,7.121,7.121,0,0,0,2.794.851,1.828,1.828,0,0,0,.777-.169,2.206,2.206,0,0,0,1.062-1.2c.6-1.331,1.161-2.679,1.759-4.012.036-.084.276-.486.244-.559a4.994,4.994,0,0,0,1.484,1.912,6.437,6.437,0,0,0,3.992,1.374c.189,0,.382-.009.573-.025a5.558,5.558,0,0,0,2.615-.754,3.232,3.232,0,0,0,1.178-1.856,3.913,3.913,0,0,0,.133-1.527,2.348,2.348,0,0,0,.435-.9A5.8,5.8,0,0,0,38.957,26.565ZM9.43,30.657A4.144,4.144,0,0,1,7.9,31.8a4.873,4.873,0,0,1-3.548.366c-2.314-.662-3.276-3.62-2.44-5.742A3.649,3.649,0,0,1,3.3,24.712c2.637-1.729,5.424-.38,5.868,2.479a.408.408,0,0,1-.054.254,3.811,3.811,0,0,1-3.615,1,1.717,1.717,0,0,0-.29-.092c-.073-.012-.119.01-.1.124a1.126,1.126,0,0,0,1.266.92,4.764,4.764,0,0,0,2.527-.828c.306-.211.567.39.647,1.015A1.783,1.783,0,0,1,9.43,30.657ZM19.676,19.924c0,.173,0,.341-.01.507,0,.139-.009.276-.013.414-.006.224-.01.4-.012.446,0,.113-.009.226-.013.34q-.054,1.695-.107,3.391-.089,2.8-.17,5.608-.009.332-.02.664c-.01.356-.1.512-.477.5-.711-.021-1.423.006-2.134,0-.458-.007-.885-.078-.764-.626a12.1,12.1,0,0,1-1.98.448,3.459,3.459,0,0,1-3.586-2.9c-.009-.042-.019-.084-.027-.126a6.276,6.276,0,0,1-.112-1.067A4.006,4.006,0,0,1,11,25.027a3.531,3.531,0,0,1,4.6-1.051,1.4,1.4,0,0,0,.181.064c.014-1.219.018-2.387.045-3.555.019-.772.033-.786.788-.815q.3-.012.6-.019c.82-.02,1.64-.018,2.459-.018Zm9.795,4.746-.083.213c-.154.4-.3.782-.453,1.157-.115.287-.23.569-.351.849l-.5,1.149q-1.5,3.443-3.009,6.88c-.237.541-.243.54-.837.387a10.44,10.44,0,0,1-2.8-1.186c.392-.868.761-1.714,1.158-2.546a1.213,1.213,0,0,0,.008-1.04q-.327-.893-.642-1.792-.429-1.233-.853-2.469-.243-.715-.489-1.429c-.041-.12-.081-.24-.122-.358a1.4,1.4,0,0,1-.122-.4c.246-.04.565-.1.807-.139.852-.139,1.683-.275,2.512-.416.252-.043.325.1.372.3q.144.6.289,1.2.2.841.4,1.683l.005.021c.03.124.06.249.119.5l.261-.8.152-.461c.078-.234.155-.469.233-.7.172-.515.343-1.026.521-1.527.038-.107.188-.268.259-.256,1.1.194,2.2.413,3.378.643Zm7.89,4.289c-.079.323-.648.5-1.343.508a3.833,3.833,0,0,1-2.524-.766,1.732,1.732,0,0,0-.232-.2c-.061-.039-.11-.046-.141.076a1.067,1.067,0,0,0-.027.354,1.2,1.2,0,0,0,.838.978,4.605,4.605,0,0,0,2.141.28,4.854,4.854,0,0,0,.509-.073.209.209,0,0,1,.245.124,2.277,2.277,0,0,1-.561,2.01,4.161,4.161,0,0,1-1.853.468A4.861,4.861,0,0,1,31,31.691a3.436,3.436,0,0,1-1.147-1.728,4.534,4.534,0,0,1-.1-2.094,4.684,4.684,0,0,1,1.2-2.421c.052-.053.106-.1.161-.153a3.941,3.941,0,0,1,6.14,1.247A4.059,4.059,0,0,1,37.36,28.959Z" transform="translate(0 -18.036)" fill="#fff"/>
            <path id="Trazado_42106" data-name="Trazado 42106" d="M140.078,55.357c-.079.322-.648.5-1.343.508a3.833,3.833,0,0,1-2.524-.766,1.7,1.7,0,0,0-.232-.2c-.061-.039-.114-.036-.142.076a1.058,1.058,0,0,0-.024.359,1.066,1.066,0,0,1,.027-.354c.031-.122.08-.115.141-.076a1.732,1.732,0,0,1,.232.2,3.833,3.833,0,0,0,2.524.766c.7-.012,1.265-.185,1.343-.508a4.058,4.058,0,0,0-.107-2.418A4.046,4.046,0,0,1,140.078,55.357Z" transform="translate(-102.72 -44.439)" fill="#153188"/>
            <path id="Trazado_42107" data-name="Trazado 42107" d="M128.937,69.272a4.151,4.151,0,0,1-1.853.468,4.862,4.862,0,0,1-3.414-1.027,3.434,3.434,0,0,1-1.145-1.723,3.436,3.436,0,0,0,1.147,1.728,4.861,4.861,0,0,0,3.414,1.027,4.161,4.161,0,0,0,1.853-.468,2.277,2.277,0,0,0,.561-2.01A2.284,2.284,0,0,1,128.937,69.272Z" transform="translate(-92.673 -55.063)" fill="#153188"/>
          </g>
          <path id="Trazado_42108" data-name="Trazado 42108" d="M37.3,31.58a.647.647,0,1,0-.647-.647A.646.646,0,0,0,37.3,31.58Z" transform="translate(-27.727 -22.908)" fill="#fff"/>
          <path id="Trazado_42109" data-name="Trazado 42109" d="M40.433,23.326A1.121,1.121,0,1,0,39.312,22.2,1.121,1.121,0,0,0,40.433,23.326Z" transform="translate(-29.734 -15.947)" fill="#fff"/>
          <path id="Trazado_42110" data-name="Trazado 42110" d="M32.332,11.1A1.607,1.607,0,1,0,30.725,9.5,1.607,1.607,0,0,0,32.332,11.1Z" transform="translate(-23.239 -5.968)" fill="#fff"/>
          <path id="Trazado_42111" data-name="Trazado 42111" d="M40.872,1.923a.962.962,0,1,0-.961-.962A.961.961,0,0,0,40.872,1.923Z" transform="translate(-30.187 0)" fill="#fff"/>
        </g>
      </g>
    </g>
    <g id="Grupo_50929" data-name="Grupo 50929" transform="translate(370 -126)">
      <rect id="Rectángulo_18532-3" data-name="Rectángulo 18532" width="65.713" height="39.664" rx="5" transform="translate(435 675)" fill="none"/>
      <g id="Disney_Logo_2024_BLACK_RGB" data-name="Disney+Logo_2024_BLACK_RGB" transform="translate(443.002 682.002)">
        <path id="Trazado_109054" data-name="Trazado 109054" d="M7.656,293.437a12,12,0,0,0-6.441-.285,1.536,1.536,0,0,0-1.038.744.883.883,0,0,0-.162.641c.05.189.319.255.536.289s.68.058.808-.094c.066-.079.068-.3-.278-.375-.128-.027-.475-.039-.5-.1,0,0,.012-.041.2-.1a6.33,6.33,0,0,1,2.39-.226A16.3,16.3,0,0,1,8.787,295.2a12.512,12.512,0,0,1,5.049,3.544,5.172,5.172,0,0,1,1.088,2.343c.179,1.955-1.731,3.605-5.608,3.473a11.174,11.174,0,0,1-1.468-.18l-.08-3.775a12.046,12.046,0,0,1,3.455.585c.154.051.31.152.324.3a.4.4,0,0,1-.183.3c-.188.164-.447.236-.5.305a.119.119,0,0,0,.012.169,1.221,1.221,0,0,0,.7.157,1.3,1.3,0,0,0,.991-.651c.245-.369.384-1.308-.919-1.907a9.334,9.334,0,0,0-3.886-.629s-.011-.512-.034-.853c-.038-.559-.193-1.658-.7-1.974a.2.2,0,0,0-.272.023,2.749,2.749,0,0,0-.217.748,16.52,16.52,0,0,0-.192,2.182.117.117,0,0,1-.02.018,10.588,10.588,0,0,0-2.412.667,2.636,2.636,0,0,0-1.343,1.041c-.262.609.2,1.275.978,2.013a10.175,10.175,0,0,0,2.353,1.623c.184.087.4.194.4.194s.047.436.084.688a.772.772,0,0,0,1.019.737c.31-.063.37-.27.413-.509a1.737,1.737,0,0,0,.014-.32s.469.108.784.165a9.051,9.051,0,0,0,2.774.081c3.449-.471,4.318-2.1,4.593-2.53.477-.755,1.49-2.857-1.561-5.977a14.63,14.63,0,0,0-6.757-3.821Zm-4.555,8.5a.513.513,0,0,1-.192-.439c.028-.163.348-.307.509-.355a12.083,12.083,0,0,1,2.875-.482s-.012.558-.015,1.123c-.005,1.069.023,2.155.023,2.155a8.141,8.141,0,0,1-3.2-2Z" transform="translate(0 -283.016)" fill="#fff"/>
        <path id="Trazado_109055" data-name="Trazado 109055" d="M472.286,328.3a5.136,5.136,0,0,0,1.863-1.28,1.671,1.671,0,0,0,.518-1.4,1.034,1.034,0,0,0-.38-.608,1.41,1.41,0,0,0-.54-.256.61.61,0,0,1-.141-.031.411.411,0,0,1-.077-.088,1.383,1.383,0,0,0-.564-.38,2.771,2.771,0,0,0-1.816.167,4.172,4.172,0,0,0-1.413.967,1.683,1.683,0,0,0-.467,2.06,1.87,1.87,0,0,1,.245.414,1.8,1.8,0,0,1,.005.288.854.854,0,0,0,.272.6c.12.106.293.137.467-.126.058-.088.155-.268.155-.268a1.747,1.747,0,0,0,.69.151A3.118,3.118,0,0,0,472.286,328.3Zm-2.337-1.284s-.034-.071-.056-.124c-.15-.373.181-.794.484-1.052a1.785,1.785,0,0,1,1.09-.49s-.12.1-.219.183A7.028,7.028,0,0,0,469.949,327.013Zm1.289-.014a6.342,6.342,0,0,1,1.492-1.318,1.026,1.026,0,0,1,.914-.174.445.445,0,0,1,.27.357c.062.524-.542.961-.946,1.2a3.075,3.075,0,0,1-2.032.366c0-.013.22-.318.3-.428Z" transform="translate(-453.381 -313.3)" fill="#fff"/>
        <path id="Trazado_109056" data-name="Trazado 109056" d="M1019.225,472.917c-1.169-.811-3.055,1.761-3.885,3.037a2.733,2.733,0,0,1,.316-1.473s.7-1.22.8-1.467.152-.762.031-.812-.3.114-.3.114a5.465,5.465,0,0,0-1.8,2.995,2.57,2.57,0,0,0,.282,1.861,9.657,9.657,0,0,0-1.195,4.473,1.82,1.82,0,0,0,.953,1.379c.323.135.38-.254.38-.254a17.16,17.16,0,0,1,1.263-4.655c1.649.379,2.89-1.226,3.329-1.993a3.509,3.509,0,0,0,.4-1.654,1.9,1.9,0,0,0-.574-1.551Zm-1.074,3.185a3.01,3.01,0,0,1-1.466.605,12.055,12.055,0,0,1,1.814-2.554c.5-.559.561-.051.561-.051a2.439,2.439,0,0,1-.91,2Z" transform="translate(-979.502 -456.372)" fill="#fff"/>
        <path id="Trazado_109057" data-name="Trazado 109057" d="M904.489,482.626a.631.631,0,0,0-.441-.691,15.732,15.732,0,0,0-2.211.341c-.227.061-.126-.153-.126-.153l.273-.925s1.689-.065,1.935-.106c.227-.041.241-.2.241-.2a4.148,4.148,0,0,0,.021-.512c-.025-.265-.237-.24-.237-.24a10.035,10.035,0,0,0-1.551.009l.227-.71a22.115,22.115,0,0,0,2.479-.245c.351-.083.144-.427.144-.427-.426-.852-.917-.8-.917-.8a14.69,14.69,0,0,0-3.69.438c-.209.1-.187.253.086.6a1,1,0,0,0,.786.329l-.433.9a.829.829,0,0,0-.475.135c-.2.217.077.86.077.86s-.613,1.376-.169,2.1c.478.763,1.043.726,1.043.726a4.315,4.315,0,0,0,2.936-1.42Z" transform="translate(-870.184 -461.945)" fill="#fff"/>
        <path id="Trazado_109058" data-name="Trazado 109058" d="M746.277,453.341s-.25-.117-.314.133a.99.99,0,0,0,.031.51,22.032,22.032,0,0,1,.764,3.362s.029.367-.042.388c-.05.038-.106-.014-.106-.014a10.242,10.242,0,0,1-.754-1.143l-.133-.224a8.315,8.315,0,0,0-1.207-1.626.44.44,0,0,0-.721,0,6.3,6.3,0,0,0-.715,2.752,4.169,4.169,0,0,0,.145,2.075.547.547,0,0,0,.832.135c.31-.238.251-1.751.3-2.527s.124-.64.124-.64c.068-.018.423.695.423.695s.934,1.912,1.521,2.2a.939.939,0,0,0,1.253-.6,5.68,5.68,0,0,0,.031-3.42,3.338,3.338,0,0,0-1.434-2.057Z" transform="translate(-718.146 -438.127)" fill="#fff"/>
        <path id="Trazado_109059" data-name="Trazado 109059" d="M510.681,485.965a17.908,17.908,0,0,0-.233-2.462.755.755,0,0,0-.424-.594.525.525,0,0,0-.086-.025c-.16-.031-.252.189-.295.3a7.253,7.253,0,0,0-.242,1.341,18.488,18.488,0,0,0-.009,3.349c.053.37.175.611.549.688a.931.931,0,0,0,.55-.052.5.5,0,0,0,.205-.305,4.643,4.643,0,0,0,.028-1.073c-.016-.388-.026-.774-.044-1.166Z" transform="translate(-492.255 -466.704)" fill="#fff"/>
        <path id="Trazado_109060" data-name="Trazado 109060" d="M566.73,476.639a5.675,5.675,0,0,0-2.959-.328,3.637,3.637,0,0,0-2.472,1.068,1.324,1.324,0,0,0-.209,1.009.683.683,0,0,0,.375.427,9.349,9.349,0,0,0,2,.272,8.026,8.026,0,0,1,1.859.342s.463.161.46.426a.407.407,0,0,1-.2.306,4.476,4.476,0,0,1-2.613.646,2.087,2.087,0,0,1-.854-.183c-.13-.057-.3-.161-.276-.338.036-.284.362-.354.62-.33a1.951,1.951,0,0,1,.474.13c.57.225.829.414,1.33.338.187-.028.835-.169.922-.436a.187.187,0,0,0-.057-.184,2.907,2.907,0,0,0-.564-.26,6.436,6.436,0,0,0-1.507-.275,1.869,1.869,0,0,0-1.554.527c-.271.395-.332,1.189,1.013,1.858a3.856,3.856,0,0,0,2.082.372,2.462,2.462,0,0,0,1.985-1.14,1.884,1.884,0,0,0-.041-1.617c-.166-.308-.368-.718-1.869-.907-.24-.03-2.006-.235-2.168-.26-.09-.014-.5-.063-.358-.221a.639.639,0,0,1,.239-.1,15.788,15.788,0,0,1,3.077-.279,5.161,5.161,0,0,0,.951-.119.648.648,0,0,0,.468-.482c.026-.133-.037-.2-.162-.262Z" transform="translate(-542.264 -460.3)" fill="#fff"/>
        <path id="Trazado_109061" data-name="Trazado 109061" d="M1243.961,432h-2.774a20.221,20.221,0,0,0-.29-2.837.334.334,0,0,0-.328-.276h-.748a.234.234,0,0,0-.229.277A18.787,18.787,0,0,1,1239.9,432h-2.818a.234.234,0,0,0-.234.235v.851a.234.234,0,0,0,.234.235h2.818a18.831,18.831,0,0,1-.311,2.836.234.234,0,0,0,.229.277h.748a.334.334,0,0,0,.328-.276,20.221,20.221,0,0,0,.29-2.837h2.774a.234.234,0,0,0,.234-.235v-.851A.234.234,0,0,0,1243.961,432Z" transform="translate(-1195.41 -414.522)" fill="#fff"/>
        <path id="Trazado_109062" data-name="Trazado 109062" d="M306.6,7.186a.3.3,0,0,0,.374-.1,18.547,18.547,0,0,1,3.178-2.727c7.78-5.314,19.2-4.541,25.883,2.193a16.852,16.852,0,0,1,4.037,6.419.334.334,0,0,0,.316.228h.767a.234.234,0,0,0,.221-.309,18.458,18.458,0,0,0-4.782-7.364A21.5,21.5,0,0,0,310.3,3.588a19.851,19.851,0,0,0-3.713,3.276.21.21,0,0,0,.011.323Z" transform="translate(-296.246 0)" fill="#fff"/>
      </g>
    </g>
    <circle id="Elipse_525" data-name="Elipse 525" cx="2.5" cy="2.5" r="2.5" transform="translate(875 566)" fill="#fff"/>
    <circle id="Elipse_526" data-name="Elipse 526" cx="2.5" cy="2.5" r="2.5" transform="translate(954 566)" fill="#fff"/>
  </g>
</svg>
