<svg xmlns="http://www.w3.org/2000/svg" xmlns:xlink="http://www.w3.org/1999/xlink" width="388.83" height="77.291" viewBox="0 0 388.83 77.291">
  <defs>
    <clipPath id="clip-path">
      <rect id="Rectángulo_10197" data-name="Rectángulo 10197" width="40.585" height="25.265" fill="none"/>
    </clipPath>
    <clipPath id="clip-path-2">
      <rect id="Rectángulo_28919" data-name="Rectángulo 28919" width="52.725" height="23.93" fill="none"/>
    </clipPath>
    <clipPath id="clip-path-3">
      <rect id="Rectángulo_28912" data-name="Rectángulo 28912" width="30.08" height="27.158" fill="none"/>
    </clipPath>
  </defs>
  <g id="Grupo_50966" data-name="Grupo 50966" transform="translate(-1259 -724)">
    <g id="Grupo_50965" data-name="Grupo 50965">
      <g id="Grupo_50952" data-name="Grupo 50952" transform="translate(1582 724)">
        <rect id="Rectángulo_18532" data-name="Rectángulo 18532" width="65.83" height="39.735" rx="5" transform="translate(0 0)" fill="none"/>
        <g id="Grupo_22158" data-name="Grupo 22158" transform="translate(10.676 7.71)">
          <path id="Trazado_42240" data-name="Trazado 42240" d="M43.417-378.069c-.4.019-.807.035-1.211.045-.08,0-.1.021-.1.1,0,.813,0,1.626,0,2.439,0,.183.006.367,0,.549a.894.894,0,0,1-1.016.945.809.809,0,0,1-.788-.6,1.5,1.5,0,0,1-.065-.451c0-.927,0-1.855,0-2.782,0-.1-.026-.12-.125-.115-.441.021-.882.058-1.325.053v3.275a1.074,1.074,0,0,1,.068.3,1.859,1.859,0,0,0,1.321,1.483,3.258,3.258,0,0,0,1.926.008,1.864,1.864,0,0,0,1.29-1.266,3.4,3.4,0,0,0,.155-1.081c0-.927,0-1.855,0-2.782C43.552-378.059,43.512-378.074,43.417-378.069Z" transform="translate(-38.788 387.641)" fill="#fff"/>
          <path id="Trazado_42241" data-name="Trazado 42241" d="M232.1-373.942c-.093,0-.111-.032-.11-.118,0-1.236,0-2.473,0-3.71,0-.1-.028-.121-.116-.124-.4-.015-.8-.032-1.2-.057-.1-.006-.109.024-.109.109q0,2.525,0,5.05c0,.086.016.114.109.114.729,0,1.458,0,2.187,0l1.534,0v-1.237C233.637-373.929,232.87-373.938,232.1-373.942Z" transform="translate(-189.835 387.548)" fill="#fff"/>
          <path id="Trazado_42242" data-name="Trazado 42242" d="M140.685-423.111c0-.006.009-.011.006-.019h-.664c0,.009,0,.014.006.02Z" transform="translate(-118.521 423.13)" fill="#fff"/>
          <path id="Trazado_42243" data-name="Trazado 42243" d="M143.314-423.112c0-.006.008-.011,0-.018h-.16c0,.006,0,.013,0,.019Z" transform="translate(-120.988 423.13)" fill="#fff"/>
          <path id="Trazado_42244" data-name="Trazado 42244" d="M139.43-423.11a.128.128,0,0,0,0-.02h-.16c0,.007,0,.013,0,.019Z" transform="translate(-117.926 423.13)" fill="#fff"/>
          <path id="Trazado_42245" data-name="Trazado 42245" d="M89.8-415.214a10.913,10.913,0,0,1,.535-1.159,10.772,10.772,0,0,1,3.7-4.079,10.412,10.412,0,0,1,6.189-1.652,10.635,10.635,0,0,1,2.969.542,11.361,11.361,0,0,1,4.948,3.27,11.218,11.218,0,0,1,2.111,3.449c.031.079.065.115.153.108.114-.009.229,0,.343,0,.133,0,.133,0,.092-.123a11.944,11.944,0,0,0-3.185-4.971,11.926,11.926,0,0,0-7.661-3.281.1.1,0,0,1,0-.02h-.137a.044.044,0,0,1,0,.018h-.006c0,.005,0,.012,0,.016a.122.122,0,0,1-.149-.016h-.009c0,.006,0,.013-.005.018a2.01,2.01,0,0,1-.642,0c-.006,0,0-.011,0-.016h-.008a.125.125,0,0,1-.15.014c-.005,0,0-.011,0-.016h-.006a.092.092,0,0,1,0-.019h-.137a.05.05,0,0,1,0,.02,12.1,12.1,0,0,0-10.759,8.025c.579-.013,1.153-.027,1.729-.037C89.768-415.124,89.779-415.169,89.8-415.214Z" transform="translate(-77.524 423.13)" fill="#fff"/>
          <path id="Trazado_42246" data-name="Trazado 42246" d="M70.5-378.832c0-.08-.017-.1-.1-.1-.4.016-.8.026-1.2.034-.083,0-.113.026-.113.118,0,.862,0,1.725,0,2.587a.241.241,0,0,1-.018.136l-.131-.174-1.883-2.519c-.032-.043-.058-.083-.125-.081-.385.014-.769.027-1.154.034-.079,0-.1.024-.1.1q0,2.571,0,5.141c0,.083.027.1.1.1.393,0,.786,0,1.179,0,.094,0,.119-.023.119-.119,0-.893,0-1.786,0-2.679,0-.037-.014-.08.02-.117q1.049,1.421,2.088,2.831a.171.171,0,0,0,.158.083q.527-.007,1.053,0c.084,0,.107-.017.107-.1,0-.863,0-1.725,0-2.588C70.5-377.038,70.5-377.935,70.5-378.832Z" transform="translate(-59.967 388.319)" fill="#fff"/>
          <path id="Trazado_42247" data-name="Trazado 42247" d="M159.006-375.793c-.042-.067-.039-.091.036-.13a1.677,1.677,0,0,0,.87-1.038,2.2,2.2,0,0,0,.075-.839,1.715,1.715,0,0,0-.97-1.474,2.4,2.4,0,0,0-1.082-.249c-.79,0-1.58,0-2.37,0-.082,0-.11.015-.11.105q0,2.7,0,5.393c0,.082.015.111.1.109q.613-.008,1.225,0c.1,0,.11-.032.109-.116,0-.5,0-.992,0-1.488,0-.094.028-.114.115-.11a4.277,4.277,0,0,0,.469,0,.184.184,0,0,1,.2.121c.261.507.53,1.011.795,1.516.021.04.033.078.1.078.526,0,1.052,0,1.6,0l-.076-.126Q159.548-374.92,159.006-375.793Zm-.461-1.532a.606.606,0,0,1-.519.44,7.9,7.9,0,0,1-1.084.026c-.064,0-.048-.046-.048-.08,0-.2,0-.4,0-.606s0-.4,0-.595c0-.045,0-.081.062-.079.331.008.664-.017.994.012A.658.658,0,0,1,158.545-377.325Z" transform="translate(-130.674 388.787)" fill="#fff"/>
          <path id="Trazado_42248" data-name="Trazado 42248" d="M131.8-373.919q1.969,0,3.939,0c.075,0,.095-.019.094-.093,0-.363-.006-.725,0-1.088,0-.109-.017-.146-.139-.145-.805.007-1.611,0-2.416,0-.082,0-.122-.01-.119-.109.008-.221.009-.443,0-.664,0-.1.027-.125.127-.124.717,0,1.435,0,2.152,0,.086,0,.109-.022.108-.108-.005-.336-.006-.672,0-1.008,0-.1-.025-.119-.12-.118-.721,0-1.442,0-2.164,0-.079,0-.1-.019-.1-.1.005-.21.008-.42,0-.63,0-.1.023-.118.118-.117.805,0,1.611,0,2.416,0,.069,0,.1-.009.1-.09q-.007-.567,0-1.133c0-.087-.032-.1-.106-.1q-1.935,0-3.87,0c-.09,0-.113.023-.113.113,0,.9,0,1.794,0,2.691s0,1.8,0,2.7C131.7-373.945,131.715-373.919,131.8-373.919Z" transform="translate(-111.965 388.789)" fill="#fff"/>
          <path id="Trazado_42249" data-name="Trazado 42249" d="M182.544-377.048a4.876,4.876,0,0,0-1.008-.359,2.454,2.454,0,0,1-.723-.273.321.321,0,0,1-.182-.34.333.333,0,0,1,.284-.262,1.172,1.172,0,0,1,.455-.009,2.491,2.491,0,0,1,1.12.484c.066.048.09.04.133-.026.191-.3.385-.595.585-.887.053-.078.044-.113-.026-.171a3.036,3.036,0,0,0-1.985-.7,2.636,2.636,0,0,0-.669.073,1.664,1.664,0,0,0-1.3,2.028,1.531,1.531,0,0,0,.817,1.007,4.505,4.505,0,0,0,1.117.423,2.35,2.35,0,0,1,.64.236.321.321,0,0,1,.168.315.329.329,0,0,1-.226.29.9.9,0,0,1-.325.055,2.416,2.416,0,0,1-1.564-.578c-.114-.09-.113-.091-.2.027l-.58.752c-.123.161-.125.163.033.294a3.371,3.371,0,0,0,2.815.732,1.641,1.641,0,0,0,1.461-1.438A1.461,1.461,0,0,0,182.544-377.048Z" transform="translate(-149.205 388.836)" fill="#fff"/>
          <path id="Trazado_42250" data-name="Trazado 42250" d="M205.685-375.556l-1.22-3.048c-.021-.051-.032-.1-.113-.1q-.6-.007-1.2-.03c-.082,0-.109.03-.136.1q-.863,2.162-1.73,4.322l-.4,1c.015.008.021.013.027.013.466,0,.931,0,1.4,0,.064,0,.074-.039.09-.081.1-.27.21-.539.311-.809a.1.1,0,0,1,.115-.078q.893,0,1.786,0a.1.1,0,0,1,.114.08c.1.267.205.532.3.8a.118.118,0,0,0,.132.09c.447,0,.893,0,1.34,0,.026,0,.051,0,.075,0,.012-.035-.007-.056-.017-.081Zm-2.533.119.575-1.51.558,1.51Z" transform="translate(-166.452 388.167)" fill="#fff"/>
          <path id="Trazado_42251" data-name="Trazado 42251" d="M106.98-379.407q-.287.944-.581,1.886c-.155.5-.311,1.006-.468,1.514-.039-.02-.04-.055-.049-.081q-.281-.8-.558-1.606l-.6-1.712c-.015-.043-.024-.079-.089-.079-.5,0-1,0-1.523,0,.022.066.031.094.041.122q1,2.681,2.005,5.361a.115.115,0,0,0,.132.087q.584-.006,1.168,0a.127.127,0,0,0,.144-.1q.848-2.379,1.7-4.756l.267-.748h-.127c-.446,0-.893.011-1.339.009C107.028-379.509,107-379.478,106.98-379.407Z" transform="translate(-89.453 388.782)" fill="#fff"/>
          <path id="Trazado_42252" data-name="Trazado 42252" d="M94.708-379.166c-.431.013-.861.021-1.292.027-.067,0-.08.022-.08.084q0,2.667,0,5.334c0,.074.023.086.09.086.416,0,.832,0,1.248,0,.086,0,.114-.018.113-.11,0-.881,0-1.763,0-2.644s0-1.785,0-2.678C94.785-379.121,94.8-379.169,94.708-379.166Z" transform="translate(-81.749 388.505)" fill="#fff"/>
          <path id="Trazado_42253" data-name="Trazado 42253" d="M183.419-345.664h-1.53v-1.53H180.65v1.53h-1.53v1.239h1.53v1.53h1.239v-1.53h1.53Z" transform="translate(-149.312 363.324)" fill="#fff"/>
          <path id="Trazado_42254" data-name="Trazado 42254" d="M101.144-339.312a12.39,12.39,0,0,1-2.965-.086,10.891,10.891,0,0,1-3.362-1.05,10.562,10.562,0,0,1-4.564-4.461,11.64,11.64,0,0,1-.712-1.567c-.014-.039-.015-.089-.083-.089-.35,0-.7,0-1.047,0-.017.041.006.068.015.1a11.285,11.285,0,0,0,2.615,4.31,11.7,11.7,0,0,0,7.448,3.554,12.465,12.465,0,0,0,4.29-.317,11.462,11.462,0,0,0,5.3-2.913l-.729-.036A10.487,10.487,0,0,1,101.144-339.312Z" transform="translate(-77.865 362.829)" fill="#fff"/>
        </g>
      </g>
      <g id="Grupo_50951" data-name="Grupo 50951" transform="translate(1501 724)">
        <rect id="Rectángulo_18532-2" data-name="Rectángulo 18532" width="65.83" height="39.735" rx="5" transform="translate(0 0)" fill="none"/>
        <g id="paramount_Blanco" data-name="paramount + Blanco" transform="translate(12.455 7.117)">
          <g id="paramount_Blanco-2" data-name="paramount + Blanco" transform="translate(0 0)" clip-path="url(#clip-path)">
            <path id="Trazado_25772" data-name="Trazado 25772" d="M362.588,245.9c-.1-.04-.263-.227.009-.735l.633-1.324c.018-.04-.027-.089-.058-.058l-.553.557a9.555,9.555,0,0,0-.793,1.181l-.668,1.114a.089.089,0,0,1,.08.134l-.615,1.029c-.152.254.12.437.156.374.963-1.555,1.524-1.431,1.524-1.431l.321-.744a.076.076,0,0,0,0-.06.076.076,0,0,0-.042-.043" transform="translate(-344.508 -232.914)" fill="#fff"/>
            <path id="Trazado_25773" data-name="Trazado 25773" d="M240.787,0a9.987,9.987,0,0,0-8.035,15.918,2.083,2.083,0,0,0,.82-.66l1.858-2.38a.379.379,0,0,1,.147-.116l.281-.12,3.057-3.877.446-.348.909-1.27a.378.378,0,0,1,.085-.085l.4-.29a.285.285,0,0,1,.33,0l.481.339a1.894,1.894,0,0,1,.611.7l1.934,3.4a.3.3,0,0,0,.152.147,2.653,2.653,0,0,1,1.105.762c.232.25,1.243,1.386,2.665,3.146a2.014,2.014,0,0,0,.8.651A9.988,9.988,0,0,0,240.787,0m-7.3,10.539-.646-.209-.4.553V10.2l-.646-.209.646-.209V9.1l.4.553.646-.209-.4.553Zm-.152,2.228-.209.646-.209-.646h-.682l.553-.4-.214-.646.553.4.553-.4-.209.646.553.4Zm.129-5.156.209.646-.553-.4-.553.4.21-.646-.553-.4h.682l.209-.646.209.646h.682Zm1.092-1.466-.4-.553-.646.209.4-.553-.4-.553.646.209.4-.553v.682l.646.209-.646.209Zm1.7-2.384-.209.651-.209-.651h-.682l.553-.4-.209-.646.553.4.553-.4-.209.646.553.4Zm2.144-1.092-.4.553V2.54l-.646-.209.646-.209V1.439l.4.553.646-.209-.4.553.4.553Zm2.718-.624.209.646-.553-.4-.553.4.209-.646-.553-.4h.682L240.778,1l.209.646h.682Zm2.442.495v.682l-.4-.553-.646.209.4-.553-.4-.553.646.209.4-.553v.691l.646.209Zm4.514,6.9.646.209.4-.553v.682l.646.209-.646.209v.682l-.4-.553-.646.209.4-.553Zm-2.563-5.027-.209-.646h-.682l.553-.4-.209-.646.553.4.553-.4-.209.646.553.4h-.686Zm1.493,1.734V5.464l-.646-.209.646-.209V4.363l.4.553.646-.209-.4.553.4.553-.646-.209Zm1.221,1.065.209-.646.209.646h.682l-.553.4.209.646-.553-.4-.553.4.209-.646-.553-.4Zm.419,5.557-.2.646-.209-.646h-.682l.553-.4-.214-.646.553.4.553-.4-.209.646.553.4Z" transform="translate(-220.514)" fill="#fff"/>
            <path id="Trazado_25774" data-name="Trazado 25774" d="M421.543,174.747a.64.64,0,0,0-.022-.615l-.441-1.19c-.062-.151.071-.245.16-.143a13.214,13.214,0,0,1,1.052,1.364l.41.682c.357.022,1.332.049,2.273.049a2.685,2.685,0,0,1-.263-.3c-1.6-1.992-2.625-3.1-2.634-3.111a1.8,1.8,0,0,0-.726-.535l-.116-.053v.3a.037.037,0,0,1-.071.018l-2.362-4.149v-.013a1.329,1.329,0,0,0-.423-.49l-.232-.16L417.02,169a.245.245,0,0,1,.223.339l-1.043,2.406h.954a2.839,2.839,0,0,1,1.079.214l.254.1a7.954,7.954,0,0,0-.762,2.389,1.71,1.71,0,0,0,.062.441h1.751l-.076-.486a18.711,18.711,0,0,0,2.081.343" transform="translate(-397.652 -158.984)" fill="#fff"/>
            <path id="Trazado_25775" data-name="Trazado 25775" d="M10.364,359.384c0-1.609-1.707-2.384-3.73-2.384-2.166,0-4.158.963-4.884,2.451a2.821,2.821,0,0,0-.307,1.279,1.925,1.925,0,0,0,.307,1.087,1.907,1.907,0,0,0,1.689.753c1.007,0,1.8-.553,1.8-1.511a.263.263,0,0,0-.3-.267c-.312,0-.321.178-.312.267a1.188,1.188,0,0,1-1.208,1.355c-.9,0-1.266-.758-1.266-1.573a3.558,3.558,0,0,1,2.554-3.24,5.2,5.2,0,0,1,1.907-.334c1.475,0,2.683.566,2.683,2.086a2.53,2.53,0,0,1-2.34,2.442l.053-.169a9.328,9.328,0,0,1,1.1-2.705,2.088,2.088,0,0,1,.143-.192l-.076-.089a3.1,3.1,0,0,0-.321.223c-2.442,1.907-2.518,7.268-5.771,7.268a2.518,2.518,0,0,1-.334-.022,1.138,1.138,0,0,1-1.034-1.2c0-.125.045-.3.045-.4a.325.325,0,0,0-.321-.334H.408c-.29,0-.41.232-.419.557-.022.945.677,1.5,1.756,1.6.12.009.236.013.365.013,2.54,0,4.1-1.921,4.759-4.251a5.589,5.589,0,0,0,.989-.209c1.176-.33,2.5-1.119,2.5-2.509" transform="translate(0.011 -341.091)" fill="#fff"/>
            <path id="Trazado_25776" data-name="Trazado 25776" d="M207.493,423.1H206.6l-.2.468-.352.789h-.419l-.125.267h.432l-.517,1.154c-.374.811-.954,1.609-1.288,1.609-.076,0-.12-.031-.12-.1a1.059,1.059,0,0,1,.1-.352c.08-.209.276-.6.4-.864a4.246,4.246,0,0,0,.486-1.257.5.5,0,0,0-.553-.521,1.715,1.715,0,0,0-1.123.6l.223-.535h-.838l-.686,1.564c-.276.553-.833,1.466-1.185,1.466-.076,0-.1-.045-.1-.12a.628.628,0,0,1,.053-.192l.441-1.029.74-1.7h-.909L200.335,426c-.223.512-.789,1.386-1.154,1.386a.116.116,0,0,1-.125-.1v-.031a1.243,1.243,0,0,1,.12-.374l.379-.833.78-1.7h-.9l-.178.388a.874.874,0,0,1-.713.566.3.3,0,0,1-.29-.134.888.888,0,0,0-.954-.878,1.926,1.926,0,0,0-1.622.976,4.989,4.989,0,0,0-.535,1.185c-.321.53-.655.94-.923.94-.067,0-.111-.036-.111-.125a1.465,1.465,0,0,1,.12-.365l.579-1.261a2.454,2.454,0,0,0,.276-.9.459.459,0,0,0-.49-.463,1.792,1.792,0,0,0-1.252.646.851.851,0,0,0,.013-.192.4.4,0,0,0-.455-.455,1.62,1.62,0,0,0-1.154.646l.236-.579h-.816l-.691,1.564c-.33.735-.856,1.466-1.154,1.466-.067,0-.111-.036-.111-.125a3.924,3.924,0,0,1,.214-.633l.918-2.077c.067-.156-.374-.254-.931-.254a2.66,2.66,0,0,0-1.6.646,1.441,1.441,0,0,1-.642.379c-.111,0-.08-.031-.08-.067,0-.125.308-.486.308-.758,0-.125-.067-.209-.241-.209a1.613,1.613,0,0,0-1,.642l.236-.575h-.8l-.691,1.564c-.33.735-.873,1.506-1.168,1.506-.067,0-.111-.036-.111-.125a3.221,3.221,0,0,1,.232-.664l.918-2.086c.067-.156-.374-.254-.931-.254a2.752,2.752,0,0,0-2.054,1.132,3.638,3.638,0,0,0-.8,1.809.61.61,0,0,0,.664.7,1.674,1.674,0,0,0,1.132-.691,1.494,1.494,0,0,0-.031.178c0,.3.12.513.486.513a1.547,1.547,0,0,0,1.087-.691l-.276.633h.869l.856-1.943c.285-.633.6-.963.691-.963s.045.013.045.036a1.333,1.333,0,0,0-.134.41c0,.165.089.29.33.29a.976.976,0,0,0,.579-.21,3.209,3.209,0,0,0-.735,1.734.61.61,0,0,0,.664.7,1.764,1.764,0,0,0,1.145-.744,1.82,1.82,0,0,0-.013.209.486.486,0,0,0,.5.535c.334,0,.669-.232,1.043-.686l-.276.624h.9l.82-1.854c.357-.8.842-1.234,1.078-1.234a.107.107,0,0,1,.12.1v.022a.8.8,0,0,1-.076.258l-1.177,2.718h.918l.833-1.89c.357-.811.753-1.208,1.052-1.208.089,0,.125.045.125.143a.812.812,0,0,1-.08.3l-.807,1.711a1.588,1.588,0,0,0-.134.521c0,.263.143.49.544.49.521,0,.918-.4,1.364-.985v.125a.885.885,0,0,0,.989.878,2.138,2.138,0,0,0,1.885-1.466,3.177,3.177,0,0,0,.29-1.007.567.567,0,0,0,.29.058.785.785,0,0,0,.388-.1l-.143.307c-.165.343-.343.722-.486,1.043a1.679,1.679,0,0,0-.156.6.5.5,0,0,0,.544.553,1.831,1.831,0,0,0,1.221-.829h.009a1.374,1.374,0,0,0-.036.307c0,.267.08.521.455.521a1.641,1.641,0,0,0,1.1-.709l-.276.624h.9l.722-1.64c.41-.922.82-1.484,1.2-1.484a.125.125,0,0,1,.125.111v.022a4.762,4.762,0,0,1-.423,1.007c-.2.428-.33.686-.423.918a1.752,1.752,0,0,0-.156.619.461.461,0,0,0,.508.5,1.987,1.987,0,0,0,1.332-.887,1.853,1.853,0,0,0-.1.566.707.707,0,0,0,.753.784,1.4,1.4,0,0,0,.811-.267,3.716,3.716,0,0,0,.851-.922l-.156-.147a3.324,3.324,0,0,1-.7.775.757.757,0,0,1-.463.178c-.187,0-.307-.1-.307-.334a3.065,3.065,0,0,1,.285-.989c.009-.009.254-.557.486-1.087.192-.446.388-.878.423-.967h.588l.12-.267h-.579Zm-25.4,4.3c-.125,0-.214-.045-.214-.21a4.109,4.109,0,0,1,.829-1.845,1.59,1.59,0,0,1,1.185-.753l-.566,1.266c-.423.954-.887,1.542-1.23,1.542m5.571,0a.193.193,0,0,1-.223-.21,4.109,4.109,0,0,1,.829-1.845,1.59,1.59,0,0,1,1.185-.753l-.575,1.266c-.432.976-.869,1.542-1.221,1.542m9.889-2.464a5.9,5.9,0,0,1-.945,2.353c-.2.281-.374.365-.521.365s-.267-.169-.236-.423a5.708,5.708,0,0,1,.918-2.175c.232-.321.388-.455.566-.455s.232.147.223.334" transform="translate(-172.928 -404.245)" fill="#fff"/>
            <path id="Trazado_25777" data-name="Trazado 25777" d="M791.978,410.694l.82-1.894h-.971l-.82,1.894h-2.063l-.343.793h2.063l-.82,1.894h.971l.82-1.894H793.7l.343-.793Z" transform="translate(-753.456 -390.582)" fill="#fff"/>
          </g>
        </g>
      </g>
      <g id="Grupo_50929" data-name="Grupo 50929" transform="translate(824 50)">
        <rect id="Rectángulo_18532-3" data-name="Rectángulo 18532" width="65.713" height="39.664" rx="5" transform="translate(435 675)" fill="none"/>
        <g id="Disney_Logo_2024_BLACK_RGB" data-name="Disney+Logo_2024_BLACK_RGB" transform="translate(443.002 682.002)">
          <path id="Trazado_109054" data-name="Trazado 109054" d="M7.656,293.437a12,12,0,0,0-6.441-.285,1.536,1.536,0,0,0-1.038.744.883.883,0,0,0-.162.641c.05.189.319.255.536.289s.68.058.808-.094c.066-.079.068-.3-.278-.375-.128-.027-.475-.039-.5-.1,0,0,.012-.041.2-.1a6.33,6.33,0,0,1,2.39-.226A16.3,16.3,0,0,1,8.787,295.2a12.512,12.512,0,0,1,5.049,3.544,5.172,5.172,0,0,1,1.088,2.343c.179,1.955-1.731,3.605-5.608,3.473a11.174,11.174,0,0,1-1.468-.18l-.08-3.775a12.046,12.046,0,0,1,3.455.585c.154.051.31.152.324.3a.4.4,0,0,1-.183.3c-.188.164-.447.236-.5.305a.119.119,0,0,0,.012.169,1.221,1.221,0,0,0,.7.157,1.3,1.3,0,0,0,.991-.651c.245-.369.384-1.308-.919-1.907a9.334,9.334,0,0,0-3.886-.629s-.011-.512-.034-.853c-.038-.559-.193-1.658-.7-1.974a.2.2,0,0,0-.272.023,2.749,2.749,0,0,0-.217.748,16.52,16.52,0,0,0-.192,2.182.117.117,0,0,1-.02.018,10.588,10.588,0,0,0-2.412.667,2.636,2.636,0,0,0-1.343,1.041c-.262.609.2,1.275.978,2.013a10.175,10.175,0,0,0,2.353,1.623c.184.087.4.194.4.194s.047.436.084.688a.772.772,0,0,0,1.019.737c.31-.063.37-.27.413-.509a1.737,1.737,0,0,0,.014-.32s.469.108.784.165a9.051,9.051,0,0,0,2.774.081c3.449-.471,4.318-2.1,4.593-2.53.477-.755,1.49-2.857-1.561-5.977a14.63,14.63,0,0,0-6.757-3.821Zm-4.555,8.5a.513.513,0,0,1-.192-.439c.028-.163.348-.307.509-.355a12.083,12.083,0,0,1,2.875-.482s-.012.558-.015,1.123c-.005,1.069.023,2.155.023,2.155a8.141,8.141,0,0,1-3.2-2Z" transform="translate(0 -283.016)" fill="#fff"/>
          <path id="Trazado_109055" data-name="Trazado 109055" d="M472.286,328.3a5.136,5.136,0,0,0,1.863-1.28,1.671,1.671,0,0,0,.518-1.4,1.034,1.034,0,0,0-.38-.608,1.41,1.41,0,0,0-.54-.256.61.61,0,0,1-.141-.031.411.411,0,0,1-.077-.088,1.383,1.383,0,0,0-.564-.38,2.771,2.771,0,0,0-1.816.167,4.172,4.172,0,0,0-1.413.967,1.683,1.683,0,0,0-.467,2.06,1.87,1.87,0,0,1,.245.414,1.8,1.8,0,0,1,.005.288.854.854,0,0,0,.272.6c.12.106.293.137.467-.126.058-.088.155-.268.155-.268a1.747,1.747,0,0,0,.69.151A3.118,3.118,0,0,0,472.286,328.3Zm-2.337-1.284s-.034-.071-.056-.124c-.15-.373.181-.794.484-1.052a1.785,1.785,0,0,1,1.09-.49s-.12.1-.219.183A7.028,7.028,0,0,0,469.949,327.013Zm1.289-.014a6.342,6.342,0,0,1,1.492-1.318,1.026,1.026,0,0,1,.914-.174.445.445,0,0,1,.27.357c.062.524-.542.961-.946,1.2a3.075,3.075,0,0,1-2.032.366c0-.013.22-.318.3-.428Z" transform="translate(-453.381 -313.3)" fill="#fff"/>
          <path id="Trazado_109056" data-name="Trazado 109056" d="M1019.225,472.917c-1.169-.811-3.055,1.761-3.885,3.037a2.733,2.733,0,0,1,.316-1.473s.7-1.22.8-1.467.152-.762.031-.812-.3.114-.3.114a5.465,5.465,0,0,0-1.8,2.995,2.57,2.57,0,0,0,.282,1.861,9.657,9.657,0,0,0-1.195,4.473,1.82,1.82,0,0,0,.953,1.379c.323.135.38-.254.38-.254a17.16,17.16,0,0,1,1.263-4.655c1.649.379,2.89-1.226,3.329-1.993a3.509,3.509,0,0,0,.4-1.654,1.9,1.9,0,0,0-.574-1.551Zm-1.074,3.185a3.01,3.01,0,0,1-1.466.605,12.055,12.055,0,0,1,1.814-2.554c.5-.559.561-.051.561-.051a2.439,2.439,0,0,1-.91,2Z" transform="translate(-979.502 -456.372)" fill="#fff"/>
          <path id="Trazado_109057" data-name="Trazado 109057" d="M904.489,482.626a.631.631,0,0,0-.441-.691,15.732,15.732,0,0,0-2.211.341c-.227.061-.126-.153-.126-.153l.273-.925s1.689-.065,1.935-.106c.227-.041.241-.2.241-.2a4.148,4.148,0,0,0,.021-.512c-.025-.265-.237-.24-.237-.24a10.035,10.035,0,0,0-1.551.009l.227-.71a22.115,22.115,0,0,0,2.479-.245c.351-.083.144-.427.144-.427-.426-.852-.917-.8-.917-.8a14.69,14.69,0,0,0-3.69.438c-.209.1-.187.253.086.6a1,1,0,0,0,.786.329l-.433.9a.829.829,0,0,0-.475.135c-.2.217.077.86.077.86s-.613,1.376-.169,2.1c.478.763,1.043.726,1.043.726a4.315,4.315,0,0,0,2.936-1.42Z" transform="translate(-870.184 -461.945)" fill="#fff"/>
          <path id="Trazado_109058" data-name="Trazado 109058" d="M746.277,453.341s-.25-.117-.314.133a.99.99,0,0,0,.031.51,22.032,22.032,0,0,1,.764,3.362s.029.367-.042.388c-.05.038-.106-.014-.106-.014a10.242,10.242,0,0,1-.754-1.143l-.133-.224a8.315,8.315,0,0,0-1.207-1.626.44.44,0,0,0-.721,0,6.3,6.3,0,0,0-.715,2.752,4.169,4.169,0,0,0,.145,2.075.547.547,0,0,0,.832.135c.31-.238.251-1.751.3-2.527s.124-.64.124-.64c.068-.018.423.695.423.695s.934,1.912,1.521,2.2a.939.939,0,0,0,1.253-.6,5.68,5.68,0,0,0,.031-3.42,3.338,3.338,0,0,0-1.434-2.057Z" transform="translate(-718.146 -438.127)" fill="#fff"/>
          <path id="Trazado_109059" data-name="Trazado 109059" d="M510.681,485.965a17.908,17.908,0,0,0-.233-2.462.755.755,0,0,0-.424-.594.525.525,0,0,0-.086-.025c-.16-.031-.252.189-.295.3a7.253,7.253,0,0,0-.242,1.341,18.488,18.488,0,0,0-.009,3.349c.053.37.175.611.549.688a.931.931,0,0,0,.55-.052.5.5,0,0,0,.205-.305,4.643,4.643,0,0,0,.028-1.073c-.016-.388-.026-.774-.044-1.166Z" transform="translate(-492.255 -466.704)" fill="#fff"/>
          <path id="Trazado_109060" data-name="Trazado 109060" d="M566.73,476.639a5.675,5.675,0,0,0-2.959-.328,3.637,3.637,0,0,0-2.472,1.068,1.324,1.324,0,0,0-.209,1.009.683.683,0,0,0,.375.427,9.349,9.349,0,0,0,2,.272,8.026,8.026,0,0,1,1.859.342s.463.161.46.426a.407.407,0,0,1-.2.306,4.476,4.476,0,0,1-2.613.646,2.087,2.087,0,0,1-.854-.183c-.13-.057-.3-.161-.276-.338.036-.284.362-.354.62-.33a1.951,1.951,0,0,1,.474.13c.57.225.829.414,1.33.338.187-.028.835-.169.922-.436a.187.187,0,0,0-.057-.184,2.907,2.907,0,0,0-.564-.26,6.436,6.436,0,0,0-1.507-.275,1.869,1.869,0,0,0-1.554.527c-.271.395-.332,1.189,1.013,1.858a3.856,3.856,0,0,0,2.082.372,2.462,2.462,0,0,0,1.985-1.14,1.884,1.884,0,0,0-.041-1.617c-.166-.308-.368-.718-1.869-.907-.24-.03-2.006-.235-2.168-.26-.09-.014-.5-.063-.358-.221a.639.639,0,0,1,.239-.1,15.788,15.788,0,0,1,3.077-.279,5.161,5.161,0,0,0,.951-.119.648.648,0,0,0,.468-.482c.026-.133-.037-.2-.162-.262Z" transform="translate(-542.264 -460.3)" fill="#fff"/>
          <path id="Trazado_109061" data-name="Trazado 109061" d="M1243.961,432h-2.774a20.221,20.221,0,0,0-.29-2.837.334.334,0,0,0-.328-.276h-.748a.234.234,0,0,0-.229.277A18.787,18.787,0,0,1,1239.9,432h-2.818a.234.234,0,0,0-.234.235v.851a.234.234,0,0,0,.234.235h2.818a18.831,18.831,0,0,1-.311,2.836.234.234,0,0,0,.229.277h.748a.334.334,0,0,0,.328-.276,20.221,20.221,0,0,0,.29-2.837h2.774a.234.234,0,0,0,.234-.235v-.851A.234.234,0,0,0,1243.961,432Z" transform="translate(-1195.41 -414.522)" fill="#fff"/>
          <path id="Trazado_109062" data-name="Trazado 109062" d="M306.6,7.186a.3.3,0,0,0,.374-.1,18.547,18.547,0,0,1,3.178-2.727c7.78-5.314,19.2-4.541,25.883,2.193a16.852,16.852,0,0,1,4.037,6.419.334.334,0,0,0,.316.228h.767a.234.234,0,0,0,.221-.309,18.458,18.458,0,0,0-4.782-7.364A21.5,21.5,0,0,0,310.3,3.588a19.851,19.851,0,0,0-3.713,3.276.21.21,0,0,0,.011.323Z" transform="translate(-296.246 0)" fill="#fff"/>
        </g>
      </g>
      <circle id="Elipse_412" data-name="Elipse 412" cx="2.884" cy="2.884" r="2.884" transform="translate(1329 741)" fill="#fff"/>
      <circle id="Elipse_527" data-name="Elipse 527" cx="2.884" cy="2.884" r="2.884" transform="translate(1410 741)" fill="#fff"/>
      <circle id="Elipse_528" data-name="Elipse 528" cx="2.884" cy="2.884" r="2.884" transform="translate(1491 741)" fill="#fff"/>
      <circle id="Elipse_529" data-name="Elipse 529" cx="2.884" cy="2.884" r="2.884" transform="translate(1572 741)" fill="#fff"/>
      <g id="Grupo_50958" data-name="Grupo 50958" transform="translate(1340 725)">
        <rect id="Rectángulo_18532-4" data-name="Rectángulo 18532" width="65.712" height="39.664" rx="5" transform="translate(0 0)" fill="none"/>
        <g id="Max_Logo_00000139253708955800189760000016894300687880031154_" transform="translate(10.294 14.107)">
          <path id="x" d="M411.79,15.867h3.889a25.679,25.679,0,0,1,3.146-4.1,26.4,26.4,0,0,1,3.068,4.1h3.928a47.27,47.27,0,0,0-4.573-5.941,44.982,44.982,0,0,0,4.573-5.785h-3.85a27.542,27.542,0,0,1-3.146,3.967,25.072,25.072,0,0,1-3.146-3.967H411.79a38.747,38.747,0,0,0,4.593,5.785,50,50,0,0,0-4.593,5.941" transform="translate(-380.697 -3.829)" fill="#fff"/>
          <path id="a" d="M238.805,12.352a4.986,4.986,0,0,0,4.006-1.857v1.544h3.068V.313h-3.068V1.857A4.986,4.986,0,0,0,238.805,0a6.041,6.041,0,0,0-5.863,6.176,6.041,6.041,0,0,0,5.863,6.176m-2.97-6.176a3.459,3.459,0,1,1,3.459,3.459,3.453,3.453,0,0,1-3.459-3.459m.8,0A2.658,2.658,0,1,0,239.294,3.5a2.665,2.665,0,0,0-2.658,2.677" transform="translate(-215.353 0)" fill="#fff"/>
          <path id="m" d="M0,12.039H3.225V4.749C4.632,3.635,5.277,3.283,5.8,3.283c.625,0,1.036.391,1.036,1.368v7.387h3.225V4.73c1.407-1.094,2.033-1.446,2.58-1.446.625,0,1.036.391,1.036,1.368v7.387H16.9V3.518C16.9.879,15.4,0,13.954,0A6.822,6.822,0,0,0,9.83,1.759,2.787,2.787,0,0,0,7.114,0,6.805,6.805,0,0,0,3.029,1.778V.313H0Z" transform="translate(0 0)" fill="#fff"/>
        </g>
      </g>
      <g id="Grupo_50961" data-name="Grupo 50961" transform="translate(-31 -250)">
        <rect id="Rectángulo_18532-5" data-name="Rectángulo 18532" width="65.83" height="39.735" rx="5" transform="translate(1451 974)" fill="none"/>
        <g id="Grupo_50960" data-name="Grupo 50960" transform="translate(1455 988)">
          <path id="Trazado_108190" data-name="Trazado 108190" d="M1696.019,136.752h1.011a.16.16,0,0,0,.165-.165v-2.85c0-.733.279-1.131.792-1.131.468,0,.727.342.727.955v3.029a.16.16,0,0,0,.165.165h1.012a.16.16,0,0,0,.165-.165V133.46c0-1.284-.594-2.08-1.562-2.08a1.321,1.321,0,0,0-1.284.9h-.05l-.126-.62a.18.18,0,0,0-.177-.165h-.835a.16.16,0,0,0-.165.165v4.93a.16.16,0,0,0,.165.165ZM1692,134.124c0-1.075.316-1.669.885-1.669s.9.594.9,1.669-.322,1.669-.9,1.669S1692,135.2,1692,134.124Zm-1.392,0a2.323,2.323,0,1,0,2.277-2.744A2.486,2.486,0,0,0,1690.6,134.124Zm-3.865,2.611a5.022,5.022,0,0,1,1.734-.322,4.188,4.188,0,0,1,1.632.322c.126.05.222,0,.222-.133v-.727a.219.219,0,0,0-.146-.215,3.842,3.842,0,0,0-1.632-.335,2.038,2.038,0,0,0-.361.032l1.962-2.693a.376.376,0,0,0,.076-.24v-.766a.16.16,0,0,0-.165-.165h-3.328a.16.16,0,0,0-.165.165v.733a.16.16,0,0,0,.165.165h2.025l-2.164,3.028a.377.377,0,0,0-.076.24v.777c0,.133.1.176.222.133Zm-3.7-1.6a.988.988,0,0,1,1.12-.992,1.894,1.894,0,0,1,.335.032v.335c0,.879-.285,1.36-.809,1.36a.649.649,0,0,1-.646-.733Zm.133,1.732a1.343,1.343,0,0,0,1.309-.872h.05l.126.594a.18.18,0,0,0,.176.165h.835a.16.16,0,0,0,.165-.165V133.41a1.792,1.792,0,0,0-1.968-2.03,1.9,1.9,0,0,0-2.049,1.384.168.168,0,0,0,.133.228l.879.152c.107.019.172-.037.2-.152a.736.736,0,0,1,.746-.613c.48,0,.715.309.715.955v.133a2.489,2.489,0,0,0-.524-.044c-1.418,0-2.31.727-2.31,1.865a1.466,1.466,0,0,0,1.512,1.58h0Zm3.467,1.195c.063.146.246.146.531.089.759-.165,1.721-.176,1.886.05s-.189,1.131-.6,1.789c-.152.253-.215.411-.089.531a.187.187,0,0,0,.126.057,1,1,0,0,0,.531-.322,3.011,3.011,0,0,0,.879-1.29,2.03,2.03,0,0,0,.076-1.416,1.973,1.973,0,0,0-1.348-.4,3.267,3.267,0,0,0-1.525.379c-.291.159-.557.335-.468.537h0ZM1672.6,137.8a1.708,1.708,0,0,0,.3.487,10.3,10.3,0,0,0,8.085,3.445,10.629,10.629,0,0,0,6.808-2.2c.278-.246.424-.442.424-.594a.247.247,0,0,0-.07-.165c-.139-.146-.348-.037-.6.1a14.228,14.228,0,0,1-6.282,1.334,12.772,12.772,0,0,1-8-2.5c-.215-.17-.448-.342-.607-.215-.057.044-.109.139-.05.316h0Zm1.657-1.044h1.012a.16.16,0,0,0,.165-.165v-2.85c0-.733.259-1.131.753-1.131.45,0,.689.342.689.955v3.029a.16.16,0,0,0,.165.165h1.011a.16.16,0,0,0,.165-.165v-2.85c0-.733.259-1.131.753-1.131.448,0,.69.342.69.955v3.029a.16.16,0,0,0,.165.165h1.012a.16.16,0,0,0,.165-.165v-3.129c0-1.284-.576-2.08-1.525-2.08a1.6,1.6,0,0,0-1.405.949h-.05a1.38,1.38,0,0,0-1.329-.949,1.292,1.292,0,0,0-1.246.9h-.05l-.126-.62a.18.18,0,0,0-.176-.165h-.835a.16.16,0,0,0-.165.165v4.93a.16.16,0,0,0,.165.165Zm-3.746-1.617a.988.988,0,0,1,1.12-.992,1.9,1.9,0,0,1,.335.032v.335c0,.879-.285,1.36-.809,1.36a.649.649,0,0,1-.646-.733Zm.133,1.732a1.343,1.343,0,0,0,1.31-.872h.05l.126.594a.18.18,0,0,0,.177.165h.835a.16.16,0,0,0,.165-.165V133.41a1.792,1.792,0,0,0-1.968-2.03,1.9,1.9,0,0,0-2.049,1.384.168.168,0,0,0,.133.228l.879.152c.107.019.172-.037.2-.152a.736.736,0,0,1,.746-.613c.481,0,.715.309.715.955v.133a2.488,2.488,0,0,0-.524-.044c-1.418,0-2.31.727-2.31,1.865a1.466,1.466,0,0,0,1.512,1.58h0Z" transform="translate(-1669.13 -129.509)" fill="#fff"/>
          <path id="Trazado_108191" data-name="Trazado 108191" d="M1875.73,138.225v-6.577a.16.16,0,0,1,.165-.165h.835c.1,0,.155.05.176.165l.126.62h.05a1.45,1.45,0,0,1,1.329-.9c1.088,0,1.809,1.094,1.809,2.742s-.722,2.745-1.809,2.745a1.386,1.386,0,0,1-1.29-.861h-.05v2.227a.16.16,0,0,1-.165.165H1875.9a.16.16,0,0,1-.165-.165h0Zm2.214-2.486c.57,0,.885-.583.885-1.625s-.316-1.624-.885-1.624-.9.589-.9,1.624S1877.368,135.739,1877.944,135.739Z" transform="translate(-1842.288 -129.5)" fill="#fff"/>
          <path id="Trazado_108192" data-name="Trazado 108192" d="M1910.841,132.86a1.619,1.619,0,0,0-.683-.189c-.52,0-.8.392-.8,1.12v2.857a.16.16,0,0,1-.165.165h-1.011a.16.16,0,0,1-.165-.165v-4.932a.16.16,0,0,1,.165-.165h.835c.1,0,.155.063.176.165l.126.62h.05a1.288,1.288,0,0,1,1.253-.885,1.429,1.429,0,0,1,.607.126c.089.05.107.11.076.241l-.241.968c-.026.1-.113.126-.228.076h0Z" transform="translate(-1869.352 -129.568)" fill="#fff"/>
          <path id="Trazado_108193" data-name="Trazado 108193" d="M1931.4,119.82a.785.785,0,1,1-.785.785A.751.751,0,0,1,1931.4,119.82Zm-.672,7.08v-4.932a.16.16,0,0,1,.165-.165h1.012a.16.16,0,0,1,.165.165V126.9a.16.16,0,0,1-.165.165h-1.012A.16.16,0,0,1,1930.723,126.9Z" transform="translate(-1888.285 -119.82)" fill="#fff"/>
          <path id="Trazado_108194" data-name="Trazado 108194" d="M1947.9,131.37a1.382,1.382,0,0,1,1.329.949h.05a1.6,1.6,0,0,1,1.405-.949c.949,0,1.525.8,1.525,2.082v3.129a.16.16,0,0,1-.165.165h-1.012a.16.16,0,0,1-.165-.165v-3.027c0-.613-.241-.955-.689-.955-.494,0-.753.4-.753,1.133v2.85a.16.16,0,0,1-.165.165h-1.011a.16.16,0,0,1-.165-.165v-3.027c0-.613-.241-.955-.69-.955-.494,0-.753.4-.753,1.133v2.851a.16.16,0,0,1-.165.165h-1.012a.16.16,0,0,1-.165-.165v-4.932a.16.16,0,0,1,.165-.165h.835a.177.177,0,0,1,.176.165l.126.62h.05a1.293,1.293,0,0,1,1.247-.9Z" transform="translate(-1900.597 -129.5)" fill="#fff"/>
          <path id="Trazado_108195" data-name="Trazado 108195" d="M1994.443,131.37c1.29,0,2.182,1.12,2.182,2.7v.265a.156.156,0,0,1-.165.165h-2.9c.063.861.353,1.3.884,1.3a.767.767,0,0,0,.809-.67.144.144,0,0,1,.189-.126l.936.209a.138.138,0,0,1,.113.2,2.034,2.034,0,0,1-2.049,1.442c-1.353,0-2.291-1.094-2.291-2.708s.949-2.781,2.291-2.781h0Zm.816,2.25c-.079-.78-.346-1.193-.816-1.193s-.777.424-.869,1.193h1.686Z" transform="translate(-1939.864 -129.5)" fill="#fff"/>
        </g>
      </g>
    </g>
    <g id="Grupo_50964" data-name="Grupo 50964" transform="translate(4)">
      <g id="Grupo_50955" data-name="Grupo 50955" transform="translate(462 -51)">
        <g id="Grupo_50954" data-name="Grupo 50954" transform="translate(962 820)" clip-path="url(#clip-path-2)">
          <path id="Trazado_109197" data-name="Trazado 109197" d="M163.267,1.22l7.168,6.36-7.168,6.36-3.752-2.856,3.749-3.016V7.093l-3.739-3.027,3.742-2.845m-1,6.423-4.224,3.4a.082.082,0,0,0,0,.127l5.225,3.977a.069.069,0,0,0,.089,0l8.455-7.5a.083.083,0,0,0,0-.122l-8.455-7.5a.069.069,0,0,0-.089,0l-5.212,3.964a.081.081,0,0,0,0,.127l4.212,3.411a.082.082,0,0,1,0,.126Z" transform="translate(-137.837 0)" fill="#fff"/>
          <path id="Trazado_109198" data-name="Trazado 109198" d="M46.649,121.695a1.342,1.342,0,0,1-.5.272,2.134,2.134,0,0,1-.626.09,1.7,1.7,0,0,1-1.28-.464,1.862,1.862,0,0,1-.452-1.353v-2.595H42.96v-1.009h.829V115.4h1.177v1.232h1.347v1.009H44.966v2.564a.9.9,0,0,0,.179.6.646.646,0,0,0,.518.207.99.99,0,0,0,.659-.222l.329.9Z" transform="translate(-37.476 -99.604)" fill="#fff"/>
          <path id="Trazado_109199" data-name="Trazado 109199" d="M81.629,123.655v1.2a1.494,1.494,0,0,0-1.347.4,1.786,1.786,0,0,0-.386,1.236v2.615H78.72v-5.392h1.12v.787a1.912,1.912,0,0,1,1.789-.848Z" transform="translate(-68.67 -106.725)" fill="#fff"/>
          <path id="Trazado_109200" data-name="Trazado 109200" d="M110.1,126.816h-3.945a1.478,1.478,0,0,0,.541.943,1.69,1.69,0,0,0,1.088.348,1.769,1.769,0,0,0,1.365-.586l.631.778a2.141,2.141,0,0,1-.857.656,3.186,3.186,0,0,1-2.626-.131,2.444,2.444,0,0,1-.974-.984,3.158,3.158,0,0,1-.009-2.846,2.463,2.463,0,0,1,.927-.984,2.563,2.563,0,0,1,1.337-.353,2.494,2.494,0,0,1,1.314.348,2.4,2.4,0,0,1,.9.979,3.14,3.14,0,0,1,.324,1.46q0,.131-.019.374Zm-3.479-1.792a1.542,1.542,0,0,0-.475.954H109a1.525,1.525,0,0,0-.461-.949,1.449,1.449,0,0,0-1.915-.005Z" transform="translate(-91.578 -106.725)" fill="#fff"/>
          <path id="Trazado_109201" data-name="Trazado 109201" d="M149.782,129a2.915,2.915,0,0,1-.932-.434l.452-.96a2.807,2.807,0,0,0,.815.389,3.183,3.183,0,0,0,.937.147q1.055,0,1.054-.6a.4.4,0,0,0-.268-.394,4.357,4.357,0,0,0-.862-.212,6.529,6.529,0,0,1-1.012-.233,1.544,1.544,0,0,1-.678-.46,1.341,1.341,0,0,1-.287-.913,1.469,1.469,0,0,1,.6-1.227,2.583,2.583,0,0,1,1.615-.46,4.388,4.388,0,0,1,1.035.126,2.821,2.821,0,0,1,.848.338l-.452.96a2.637,2.637,0,0,0-1.44-.4,1.509,1.509,0,0,0-.786.167.5.5,0,0,0-.268.44.437.437,0,0,0,.287.429,4.26,4.26,0,0,0,.89.237,6.422,6.422,0,0,1,.988.233,1.538,1.538,0,0,1,.664.444,1.3,1.3,0,0,1,.277.889,1.435,1.435,0,0,1-.612,1.212,2.741,2.741,0,0,1-1.666.455,4.248,4.248,0,0,1-1.2-.171Z" transform="translate(-129.847 -106.716)" fill="#fff"/>
          <path id="Trazado_109202" data-name="Trazado 109202" d="M194.691,124.007a2.4,2.4,0,0,1,.909.969,3.341,3.341,0,0,1,0,2.893,2.387,2.387,0,0,1-.909.975,2.526,2.526,0,0,1-1.314.344,1.968,1.968,0,0,1-1.61-.727v2.2H190.59v-6.938h1.12v.706a1.821,1.821,0,0,1,.72-.575,2.3,2.3,0,0,1,.946-.192,2.532,2.532,0,0,1,1.314.344Zm-.377,3.635a1.99,1.99,0,0,0,0-2.443,1.376,1.376,0,0,0-1.069-.464,1.415,1.415,0,0,0-1.3.8,2.094,2.094,0,0,0,0,1.777,1.415,1.415,0,0,0,1.3.8,1.376,1.376,0,0,0,1.069-.464" transform="translate(-166.259 -106.733)" fill="#fff"/>
          <rect id="Rectángulo_28918" data-name="Rectángulo 28918" width="1.177" height="7.106" transform="translate(30.695 15.278)" fill="#fff"/>
          <path id="Trazado_109203" data-name="Trazado 109203" d="M262.188,124.235a2.3,2.3,0,0,1,.589,1.721v3.16h-1.111v-.656a1.385,1.385,0,0,1-.617.539,2.267,2.267,0,0,1-.965.186,2.22,2.22,0,0,1-.988-.207,1.57,1.57,0,0,1-.655-.575,1.54,1.54,0,0,1-.231-.832,1.468,1.468,0,0,1,.5-1.167,2.376,2.376,0,0,1,1.587-.44h1.3v-.081a1.145,1.145,0,0,0-.315-.868,1.307,1.307,0,0,0-.937-.3,2.535,2.535,0,0,0-.834.141,2,2,0,0,0-.692.394l-.461-.919a2.771,2.771,0,0,1,.951-.494,3.945,3.945,0,0,1,1.177-.171,2.343,2.343,0,0,1,1.7.571Zm-1.074,3.817a1.173,1.173,0,0,0,.485-.62v-.626h-1.214q-1.017,0-1.016.717a.658.658,0,0,0,.254.545,1.11,1.11,0,0,0,.706.2,1.425,1.425,0,0,0,.786-.218Z" transform="translate(-225.246 -106.733)" fill="#fff"/>
          <path id="Trazado_109204" data-name="Trazado 109204" d="M3.978,124.235a2.3,2.3,0,0,1,.589,1.721v3.16H3.456v-.656a1.385,1.385,0,0,1-.617.539,2.268,2.268,0,0,1-.965.186,2.22,2.22,0,0,1-.988-.207,1.569,1.569,0,0,1-.655-.575A1.54,1.54,0,0,1,0,127.571,1.468,1.468,0,0,1,.5,126.4a2.376,2.376,0,0,1,1.587-.44h1.3v-.081a1.145,1.145,0,0,0-.315-.868,1.307,1.307,0,0,0-.937-.3,2.536,2.536,0,0,0-.834.141,2,2,0,0,0-.692.394l-.461-.919a2.771,2.771,0,0,1,.951-.494,3.945,3.945,0,0,1,1.177-.171,2.343,2.343,0,0,1,1.7.571ZM2.9,128.052a1.173,1.173,0,0,0,.485-.62v-.626H2.175q-1.017,0-1.016.717a.658.658,0,0,0,.254.545,1.11,1.11,0,0,0,.706.2,1.425,1.425,0,0,0,.786-.218Z" transform="translate(0 -106.733)" fill="#fff"/>
          <path id="Trazado_109205" data-name="Trazado 109205" d="M346.971,126.816h-3.945a1.479,1.479,0,0,0,.541.943,1.69,1.69,0,0,0,1.088.348,1.769,1.769,0,0,0,1.365-.586l.631.778a2.142,2.142,0,0,1-.857.656,3.186,3.186,0,0,1-2.626-.131,2.445,2.445,0,0,1-.974-.984,3.158,3.158,0,0,1-.009-2.846,2.464,2.464,0,0,1,.927-.984,2.563,2.563,0,0,1,1.337-.353,2.494,2.494,0,0,1,1.314.348,2.4,2.4,0,0,1,.9.979,3.139,3.139,0,0,1,.324,1.46q0,.131-.019.374Zm-3.479-1.792a1.542,1.542,0,0,0-.475.954h2.852a1.525,1.525,0,0,0-.461-.949,1.449,1.449,0,0,0-1.915-.005Z" transform="translate(-298.209 -106.725)" fill="#fff"/>
          <path id="Trazado_109206" data-name="Trazado 109206" d="M393.119,123.655v1.2a1.494,1.494,0,0,0-1.347.4,1.786,1.786,0,0,0-.386,1.236v2.615H390.21v-5.392h1.12v.787a1.912,1.912,0,0,1,1.788-.848Z" transform="translate(-340.395 -106.725)" fill="#fff"/>
          <path id="Trazado_109207" data-name="Trazado 109207" d="M301.395,124.625l-1.662,4.168-1.653-4.168H296.8l1.833,4.521h.9l-.437,1.135-.467,1.168,1.144,0,2.806-6.827Z" transform="translate(-258.91 -107.562)" fill="#fff"/>
        </g>
        <rect id="Rectángulo_18532-6" data-name="Rectángulo 18532" width="66.126" height="39.913" rx="5" transform="translate(955 812)" fill="none"/>
      </g>
      <g id="Grupo_50962" data-name="Grupo 50962" transform="translate(1335 761)">
        <rect id="Rectángulo_18532-7" data-name="Rectángulo 18532" width="66.751" height="40.291" rx="5" transform="translate(0 0)" fill="none"/>
        <g id="Grupo_22160" data-name="Grupo 22160" transform="translate(8.108 13.946)">
          <path id="Trazado_42620" data-name="Trazado 42620" d="M0,10.65A4.435,4.435,0,0,1,4.555,6.132,4.183,4.183,0,0,1,8.813,9.049l-2.011.5A2.27,2.27,0,0,0,4.568,8.068,2.429,2.429,0,0,0,2.11,10.638a2.47,2.47,0,0,0,2.457,2.594A2.237,2.237,0,0,0,6.8,11.779l2.011.509a4.142,4.142,0,0,1-4.22,2.88A4.444,4.444,0,0,1,0,10.65" transform="translate(0 -5.503)" fill="#fff"/>
          <rect id="Rectángulo_18371" data-name="Rectángulo 18371" width="1.986" height="6.33" transform="translate(11.754 3.161)" fill="#fff"/>
          <path id="Trazado_42621" data-name="Trazado 42621" d="M174.339,7.827v8.688h-1.676l-3.91-4.977v4.977h-2.06V7.827h1.676l3.91,4.977V7.827Z" transform="translate(-149.589 -7.024)" fill="#fff"/>
          <path id="Trazado_42622" data-name="Trazado 42622" d="M281.987,12.171a4.033,4.033,0,0,1-4.108,4.344H273.87V7.827h4.009a4.021,4.021,0,0,1,4.108,4.344m-2.085-.037a2.177,2.177,0,0,0-2.073-2.458h-1.924v4.99h1.924c1.167,0,2.073-1.005,2.073-2.532" transform="translate(-245.768 -7.024)" fill="#fff"/>
          <path id="Trazado_42623" data-name="Trazado 42623" d="M432.764,9.689V11.2h3.9V13h-3.9v1.651h4.518v1.862h-6.529V7.827h6.541V9.689Z" transform="translate(-386.554 -7.024)" fill="#fff"/>
          <path id="Trazado_42624" data-name="Trazado 42624" d="M113.548,1.328A1.328,1.328,0,1,1,112.22,0a1.328,1.328,0,0,1,1.328,1.328" transform="translate(-99.513 0)" fill="#fff"/>
          <rect id="Rectángulo_18372" data-name="Rectángulo 18372" width="1.986" height="6.33" transform="translate(39.147 0.574)" fill="#fff"/>
          <path id="Trazado_42625" data-name="Trazado 42625" d="M379.351,72.1a1.328,1.328,0,1,0,1.328,1.328,1.328,1.328,0,0,0-1.328-1.328" transform="translate(-339.234 -64.698)" fill="#fff"/>
          <path id="Trazado_42626" data-name="Trazado 42626" d="M9.186,115.588v1.156h-.3V116.6a.451.451,0,0,1-.37.178c-.3,0-.457-.2-.457-.514v-.674h.3v.617c0,.176.08.29.247.29s.279-.133.279-.338v-.569Z" transform="translate(-7.23 -103.727)" fill="#fff"/>
          <path id="Trazado_42627" data-name="Trazado 42627" d="M23.083,115.788v.676h-.3v-.619c0-.176-.08-.288-.247-.288s-.279.132-.279.336v.571h-.3v-1.156h.3v.146a.459.459,0,0,1,.372-.178c.3,0,.455.2.455.512" transform="translate(-19.701 -103.447)" fill="#fff"/>
          <path id="Trazado_42628" data-name="Trazado 42628" d="M43.057,115.776v.688h-.3v-.624c0-.174-.064-.283-.222-.283s-.245.121-.245.318v.59h-.3v-.624c0-.171-.062-.283-.217-.283s-.249.123-.249.327v.58h-.3v-1.156h.3v.137a.42.42,0,0,1,.343-.169.387.387,0,0,1,.347.174.481.481,0,0,1,.391-.174.442.442,0,0,1,.457.5" transform="translate(-36.989 -103.447)" fill="#fff"/>
          <path id="Trazado_42629" data-name="Trazado 42629" d="M62.836,115.588v1.156h-.3V116.6a.451.451,0,0,1-.37.178c-.3,0-.457-.2-.457-.514v-.674h.3v.617c0,.176.08.29.247.29s.279-.133.279-.338v-.569Z" transform="translate(-55.375 -103.727)" fill="#fff"/>
          <path id="Trazado_42630" data-name="Trazado 42630" d="M76.733,115.788v.676h-.3v-.619c0-.176-.08-.288-.247-.288s-.279.132-.279.336v.571h-.3v-1.156h.3v.146a.459.459,0,0,1,.372-.178c.3,0,.455.2.455.512" transform="translate(-67.846 -103.447)" fill="#fff"/>
          <path id="Trazado_42631" data-name="Trazado 42631" d="M89.946,110.6v1.668h-.3v-.142a.46.46,0,0,1-.372.174.611.611,0,0,1,0-1.22.458.458,0,0,1,.372.171V110.6Zm-.295,1.088a.326.326,0,0,0-.329-.338.341.341,0,0,0,0,.681.328.328,0,0,0,.329-.343" transform="translate(-79.597 -99.25)" fill="#fff"/>
          <path id="Trazado_42632" data-name="Trazado 42632" d="M103.063,115.886a.618.618,0,1,1,.619.61.6.6,0,0,1-.619-.61m.944,0a.325.325,0,1,0-.324.336.319.319,0,0,0,.324-.336" transform="translate(-92.488 -103.447)" fill="#fff"/>
          <path id="Trazado_42633" data-name="Trazado 42633" d="M123.374,110.6v1.668h-.3v-.142a.46.46,0,0,1-.373.174.611.611,0,0,1,0-1.22.458.458,0,0,1,.373.171V110.6Zm-.295,1.088a.326.326,0,0,0-.329-.338.341.341,0,0,0,0,.681.328.328,0,0,0,.329-.343" transform="translate(-109.595 -99.25)" fill="#fff"/>
          <path id="Trazado_42634" data-name="Trazado 42634" d="M136.491,115.886a.585.585,0,0,1,.605-.61.609.609,0,0,1,.59.7h-.9a.3.3,0,0,0,.336.263.3.3,0,0,0,.281-.153l.272.08a.632.632,0,0,1-1.186-.281m.907-.1a.284.284,0,0,0-.3-.256.3.3,0,0,0-.306.256Z" transform="translate(-122.486 -103.447)" fill="#fff"/>
          <path id="Trazado_42635" data-name="Trazado 42635" d="M155.22,115.886a.586.586,0,0,1,.605-.61.609.609,0,0,1,.59.7h-.9a.3.3,0,0,0,.336.263.3.3,0,0,0,.281-.153l.272.08a.632.632,0,0,1-1.186-.281m.907-.1a.284.284,0,0,0-.3-.256.3.3,0,0,0-.306.256Z" transform="translate(-139.293 -103.447)" fill="#fff"/>
          <path id="Trazado_42636" data-name="Trazado 42636" d="M170.29,115.788v.676h-.3v-.619c0-.176-.08-.288-.247-.288s-.279.132-.279.336v.571h-.3v-1.156h.3v.146a.459.459,0,0,1,.372-.178c.3,0,.455.2.455.512" transform="translate(-151.803 -103.447)" fill="#fff"/>
          <path id="Trazado_42637" data-name="Trazado 42637" d="M182.66,113.43a.7.7,0,0,1-.27.055.362.362,0,0,1-.386-.414v-.5h-.194v-.265H182v-.375h.3v.375h.338v.265h-.338v.5a.128.128,0,0,0,.142.146.282.282,0,0,0,.137-.032Z" transform="translate(-163.155 -100.45)" fill="#fff"/>
          <path id="Trazado_42638" data-name="Trazado 42638" d="M192.8,115.391v.283c-.247-.039-.382.075-.382.386v.5h-.3v-1.156h.3v.171a.348.348,0,0,1,.382-.187" transform="translate(-172.408 -103.546)" fill="#fff"/>
          <path id="Trazado_42639" data-name="Trazado 42639" d="M199.382,115.886a.586.586,0,0,1,.606-.61.609.609,0,0,1,.59.7h-.9a.3.3,0,0,0,.336.263.3.3,0,0,0,.281-.153l.272.08a.632.632,0,0,1-1.186-.281m.907-.1a.283.283,0,0,0-.3-.256.3.3,0,0,0-.306.256Z" transform="translate(-178.923 -103.447)" fill="#fff"/>
          <path id="Trazado_42640" data-name="Trazado 42640" d="M212.7,113.43a.694.694,0,0,1-.27.055.362.362,0,0,1-.386-.414v-.5h-.194v-.265h.194v-.375h.3v.375h.338v.265h-.338v.5a.128.128,0,0,0,.142.146.281.281,0,0,0,.137-.032Z" transform="translate(-190.116 -100.45)" fill="#fff"/>
          <path id="Trazado_42641" data-name="Trazado 42641" d="M220.94,115.886a.586.586,0,0,1,.605-.61.609.609,0,0,1,.59.7h-.9a.3.3,0,0,0,.336.263.3.3,0,0,0,.281-.153l.272.08a.632.632,0,0,1-1.186-.281m.907-.1a.283.283,0,0,0-.3-.256.3.3,0,0,0-.306.256Z" transform="translate(-198.269 -103.447)" fill="#fff"/>
          <path id="Trazado_42642" data-name="Trazado 42642" d="M236.01,115.788v.676h-.3v-.619c0-.176-.08-.288-.247-.288s-.279.132-.279.336v.571h-.3v-1.156h.3v.146a.459.459,0,0,1,.372-.178c.3,0,.455.2.455.512" transform="translate(-210.78 -103.447)" fill="#fff"/>
          <path id="Trazado_42643" data-name="Trazado 42643" d="M248.4,110.751a.181.181,0,1,1,.18.178.177.177,0,0,1-.18-.178m.025.341h.3v1.156h-.3Z" transform="translate(-222.911 -99.231)" fill="#fff"/>
          <path id="Trazado_42644" data-name="Trazado 42644" d="M256.385,115.776v.688h-.3v-.624c0-.174-.064-.283-.222-.283s-.245.121-.245.318v.59h-.3v-.624c0-.171-.062-.283-.217-.283s-.249.123-.249.327v.58h-.3v-1.156h.3v.137a.42.42,0,0,1,.343-.169.387.387,0,0,1,.347.174.481.481,0,0,1,.391-.174.442.442,0,0,1,.457.5" transform="translate(-228.427 -103.447)" fill="#fff"/>
          <path id="Trazado_42645" data-name="Trazado 42645" d="M274.99,110.751a.181.181,0,1,1,.181.178.177.177,0,0,1-.181-.178m.025.341h.3v1.156h-.3Z" transform="translate(-246.773 -99.231)" fill="#fff"/>
          <path id="Trazado_42646" data-name="Trazado 42646" d="M280.446,115.886a.586.586,0,0,1,.606-.61.564.564,0,0,1,.6.594.554.554,0,0,1-.007.107h-.9a.3.3,0,0,0,.336.263.3.3,0,0,0,.281-.153l.272.08a.632.632,0,0,1-1.186-.281m.907-.1a.283.283,0,0,0-.3-.256.3.3,0,0,0-.306.256Z" transform="translate(-251.67 -103.447)" fill="#fff"/>
          <path id="Trazado_42647" data-name="Trazado 42647" d="M295.517,115.788v.676h-.3v-.619c0-.176-.08-.288-.247-.288s-.279.132-.279.336v.571h-.3v-1.156h.3v.146a.459.459,0,0,1,.372-.178c.3,0,.455.2.455.512" transform="translate(-264.181 -103.447)" fill="#fff"/>
          <path id="Trazado_42648" data-name="Trazado 42648" d="M307.888,113.43a.7.7,0,0,1-.27.055.362.362,0,0,1-.386-.414v-.5h-.194v-.265h.194v-.375h.3v.375h.338v.265h-.338v.5a.128.128,0,0,0,.142.146.281.281,0,0,0,.137-.032Z" transform="translate(-275.533 -100.45)" fill="#fff"/>
          <path id="Trazado_42649" data-name="Trazado 42649" d="M316.123,115.886a.618.618,0,1,1,.619.61.6.6,0,0,1-.619-.61m.944,0a.325.325,0,1,0-.324.336.319.319,0,0,0,.324-.336" transform="translate(-283.686 -103.447)" fill="#fff"/>
          <path id="Trazado_42650" data-name="Trazado 42650" d="M335.61,110.751a.181.181,0,1,1,.181.178.177.177,0,0,1-.181-.178m.025.341h.3v1.156h-.3Z" transform="translate(-301.173 -99.231)" fill="#fff"/>
          <path id="Trazado_42651" data-name="Trazado 42651" d="M342.886,115.788v.676h-.3v-.619c0-.176-.08-.288-.247-.288s-.279.132-.279.336v.571h-.3v-1.156h.3v.146a.459.459,0,0,1,.372-.178c.3,0,.455.2.455.512" transform="translate(-306.689 -103.447)" fill="#fff"/>
          <path id="Trazado_42652" data-name="Trazado 42652" d="M356.1,110.6v1.668h-.3v-.142a.46.46,0,0,1-.372.174.611.611,0,0,1,0-1.22.458.458,0,0,1,.372.171V110.6Zm-.295,1.088a.326.326,0,0,0-.329-.338.341.341,0,0,0,0,.681.328.328,0,0,0,.329-.343" transform="translate(-318.441 -99.25)" fill="#fff"/>
          <path id="Trazado_42653" data-name="Trazado 42653" d="M369.216,115.886a.586.586,0,0,1,.605-.61.609.609,0,0,1,.59.7h-.9a.3.3,0,0,0,.336.263.3.3,0,0,0,.281-.153l.272.08a.632.632,0,0,1-1.186-.281m.907-.1a.283.283,0,0,0-.3-.256.3.3,0,0,0-.306.256Z" transform="translate(-331.331 -103.447)" fill="#fff"/>
          <path id="Trazado_42654" data-name="Trazado 42654" d="M384.4,115.886a.579.579,0,0,1-.569.61.464.464,0,0,1-.375-.174v.621h-.3v-1.636h.3v.139a.463.463,0,0,1,.375-.171.578.578,0,0,1,.569.61m-.3,0a.318.318,0,0,0-.324-.338.341.341,0,0,0,0,.681.321.321,0,0,0,.324-.343" transform="translate(-343.841 -103.447)" fill="#fff"/>
          <path id="Trazado_42655" data-name="Trazado 42655" d="M396.831,115.886a.586.586,0,0,1,.605-.61.609.609,0,0,1,.59.7h-.9a.3.3,0,0,0,.336.263.3.3,0,0,0,.281-.153l.272.08a.632.632,0,0,1-1.186-.281m.907-.1a.283.283,0,0,0-.3-.256.3.3,0,0,0-.306.256Z" transform="translate(-356.112 -103.447)" fill="#fff"/>
          <path id="Trazado_42656" data-name="Trazado 42656" d="M411.9,115.788v.676h-.3v-.619c0-.176-.08-.288-.247-.288s-.279.132-.279.336v.571h-.3v-1.156h.3v.146a.459.459,0,0,1,.372-.178c.3,0,.455.2.455.512" transform="translate(-368.624 -103.447)" fill="#fff"/>
          <path id="Trazado_42657" data-name="Trazado 42657" d="M425.115,110.6v1.668h-.3v-.142a.459.459,0,0,1-.372.174.611.611,0,0,1,0-1.22.458.458,0,0,1,.372.171V110.6Zm-.295,1.088a.326.326,0,0,0-.329-.338.341.341,0,0,0,0,.681.328.328,0,0,0,.329-.343" transform="translate(-380.374 -99.25)" fill="#fff"/>
          <path id="Trazado_42658" data-name="Trazado 42658" d="M438.655,110.751a.181.181,0,1,1,.181.178.177.177,0,0,1-.181-.178m.025.341h.3v1.156h-.3Z" transform="translate(-393.645 -99.231)" fill="#fff"/>
          <path id="Trazado_42659" data-name="Trazado 42659" d="M444.112,115.886a.585.585,0,0,1,.606-.61.609.609,0,0,1,.59.7h-.9a.3.3,0,0,0,.336.263.3.3,0,0,0,.281-.153l.272.08a.632.632,0,0,1-1.186-.281m.907-.1a.284.284,0,0,0-.3-.256.3.3,0,0,0-.306.256Z" transform="translate(-398.542 -103.447)" fill="#fff"/>
          <path id="Trazado_42660" data-name="Trazado 42660" d="M459.182,115.788v.676h-.3v-.619c0-.176-.08-.288-.247-.288s-.279.132-.279.336v.571h-.3v-1.156h.3v.146a.459.459,0,0,1,.372-.178c.3,0,.455.2.455.512" transform="translate(-411.053 -103.447)" fill="#fff"/>
          <path id="Trazado_42661" data-name="Trazado 42661" d="M471.553,113.43a.694.694,0,0,1-.27.055.362.362,0,0,1-.386-.414v-.5H470.7v-.265h.194v-.375h.3v.375h.338v.265H471.2v.5a.128.128,0,0,0,.142.146.282.282,0,0,0,.137-.032Z" transform="translate(-422.405 -100.45)" fill="#fff"/>
          <path id="Trazado_42662" data-name="Trazado 42662" d="M479.789,115.886a.586.586,0,0,1,.606-.61.609.609,0,0,1,.59.7h-.9a.3.3,0,0,0,.336.263.3.3,0,0,0,.281-.153l.272.08a.632.632,0,0,1-1.186-.281m.907-.1a.283.283,0,0,0-.3-.256.3.3,0,0,0-.306.256Z" transform="translate(-430.558 -103.447)" fill="#fff"/>
        </g>
      </g>
      <g id="Grupo_50963" data-name="Grupo 50963" transform="translate(1052 88)">
        <rect id="Rectángulo_18532-8" data-name="Rectángulo 18532" width="65.713" height="39.664" rx="5" transform="translate(447 673)" fill="none"/>
        <g id="Grupo_50932" data-name="Grupo 50932" transform="translate(465 679)">
          <g id="Grupo_50931" data-name="Grupo 50931" clip-path="url(#clip-path-3)">
            <path id="Trazado_109160" data-name="Trazado 109160" d="M107.077,88.256l.346-.1h-.013l.018-.005a12.256,12.256,0,0,0-1.583.526c.113-.044.247-.095.436-.165,0,0,.4-.14.8-.252" transform="translate(-94.953 -79.077)" fill="#7eaf00"/>
            <path id="Trazado_109161" data-name="Trazado 109161" d="M95.475,94.227c-.409.176-.658.307-.658.307-.092.055-.181.114-.266.175a2.692,2.692,0,0,1,.252-.148c.335-.172.506-.26.672-.335" transform="translate(-84.822 -84.531)" fill="#7eaf00"/>
            <path id="Trazado_109162" data-name="Trazado 109162" d="M109.462,90.1c.315-.037.63-.064.933-.083a2.488,2.488,0,0,1,1.245-1.655l-.338-.006a4.083,4.083,0,0,0-.943.537,3.093,3.093,0,0,0-.9,1.206" transform="translate(-98.198 -79.265)" fill="#fff"/>
            <path id="Trazado_109163" data-name="Trazado 109163" d="M116.771,58.648a.577.577,0,1,0,.005.077.6.6,0,0,0-.005-.077" transform="translate(-103.692 -52.146)" fill="#fff"/>
            <path id="Trazado_109164" data-name="Trazado 109164" d="M145.982,208.8a.183.183,0,0,0-.022.016l.021-.005a.012.012,0,0,1,0-.011" transform="translate(-130.941 -187.316)" fill="#fff"/>
            <path id="Trazado_109165" data-name="Trazado 109165" d="M87.31,55.8a7.667,7.667,0,0,0-.286-1.43,6.662,6.662,0,0,0-.573-1.315,4.432,4.432,0,0,0-.987-1.242,8.8,8.8,0,0,0-2.654-1.208c-.061-.017-.323-.107-.349-.115l.022,0h0a.955.955,0,0,1-.209-.077,2.016,2.016,0,0,0-.711-.577,2.611,2.611,0,0,0-1.158-.263.619.619,0,0,1,.2-.266,1.96,1.96,0,0,1,.776-.226A.8.8,0,0,0,82,48.823c.159-.2.14-.251.183-.724a3.6,3.6,0,0,1,.063-.485l.026,0a.715.715,0,1,0-.416-.138,7.135,7.135,0,0,0-.041.925c-.012.311-.17.349-.571.435a1.339,1.339,0,0,0-.851.379.987.987,0,0,0-.212.36l-.144.009a.725.725,0,0,1-.262-.22,2.554,2.554,0,0,1-.187-.859c-.042-.27-.219-.548-.767-.568a.581.581,0,0,1,.005.077.589.589,0,0,1-.066.266l.261,0a.31.31,0,0,1,.26.18,1.225,1.225,0,0,1,.106.4,1.039,1.039,0,0,0,.354.762,1.9,1.9,0,0,0-.683.247,2,2,0,0,0-.657.558.482.482,0,0,1-.186.079l-.018.005h.014l-.346.1c-.394.112-.8.252-.8.252-.189.07-.324.121-.436.165-.088.035-.163.066-.238.1-.166.075-.337.163-.672.335a2.692,2.692,0,0,0-.252.148,3,3,0,0,0-.688.631c-.064.081-.1.132-.1.132a4.549,4.549,0,0,0-.728,1.193,7.68,7.68,0,0,0-.572,1.9,8.988,8.988,0,0,0-.09,1.91c.017.332.034.6.055.835a6,6,0,0,0,.3,1.45,5.741,5.741,0,0,0,.747,1.546,3.236,3.236,0,0,0,1.853,1.264,6.834,6.834,0,0,0,.663.168,16.805,16.805,0,0,0,2.566.276c-.509-.019-1.36-.112-1.36-.112a9.608,9.608,0,0,1-1.738-.367,3.848,3.848,0,0,1-1.757-1.2,4.164,4.164,0,0,1-.668-1.357,8.034,8.034,0,0,1-.359-1.74,12.017,12.017,0,0,1-.011-1.929,8.627,8.627,0,0,1,.334-1.924,6.37,6.37,0,0,1,.908-1.888,3.751,3.751,0,0,1,1.491-1.168,11.831,11.831,0,0,1,1.973-.719l.085,0a6.867,6.867,0,0,0-2.531,1.322,4.269,4.269,0,0,0-1.346,2.4,12.48,12.48,0,0,0-.334,3.213,6.071,6.071,0,0,0,.591,3.1,3.315,3.315,0,0,0,2.326,2,9.8,9.8,0,0,0,2.484.366l.139.014a3.6,3.6,0,0,0,.5.013h.148a.012.012,0,0,0,.011-.012c0-.16.024-1.449.017-1.948.214,0,1.082-.015,1.811-.085a2.106,2.106,0,0,1-1.411,2.04s.005.005.015,0a3.793,3.793,0,0,0,2.224-.842,2.035,2.035,0,0,0,.726-1.436c.241-.048.447-.1.6-.139l.071-.019.022-.006a3.621,3.621,0,0,0,.4-.123,2.882,2.882,0,0,1-1.119,1.752,5.335,5.335,0,0,1-2.531.788c-.078.007-.142.011-.19.014q.167-.008.326-.018a8,8,0,0,0,2.625-.513,3.17,3.17,0,0,0,.978-.591,4.311,4.311,0,0,0,1.226-2.423,11.459,11.459,0,0,0,.193-2.492,21.245,21.245,0,0,0-.263-2.5,6.676,6.676,0,0,0-.631-1.7,4.13,4.13,0,0,0-1.379-1.328,4.941,4.941,0,0,0-1.1-.595c-.176-.066-.65-.234-.737-.265L82.4,50.5c.374.125.529.173.529.173a9.675,9.675,0,0,1,1.483.595,4.355,4.355,0,0,1,1.113.752,5.2,5.2,0,0,1,.784,1.111,9.528,9.528,0,0,1,.414.989c.082.192.239.945.277,1.1s.128,1.089.142,1.386-.016,1.39-.047,1.642-.144.94-.246,1.339a5.805,5.805,0,0,1-.553,1.33,3.329,3.329,0,0,1-.929,1,4.651,4.651,0,0,1-1.49.655c-.485.124-1.631.286-1.631.286a11.6,11.6,0,0,0,1.439-.212,4.95,4.95,0,0,0,1.642-.586,2.944,2.944,0,0,0,1.036-.981,5.361,5.361,0,0,0,.662-1.447,10.393,10.393,0,0,0,.272-1.3s.064-.657.079-1.195A12.517,12.517,0,0,0,87.31,55.8m-6.965-5.264.721-.006a2.526,2.526,0,0,1,.764,1.618c-.486-.013-.925-.014-1.215-.013l-.273,0c0-.182-.019-1.431,0-1.6m-3.459.977a5.835,5.835,0,0,1,1.719-.993l.24.005.338.006c.185,0,.386,0,.6.006a2.7,2.7,0,0,0-.537,1.6c-.367,0-.82.015-1.306.045-.3.019-.618.046-.933.083-.262.031-.524.069-.779.117a.646.646,0,0,0-.215.08,7.868,7.868,0,0,1,.874-.952m-1.414,8.709a1.988,1.988,0,0,0,.746.309l.094.024.05.013a2.829,2.829,0,0,0,2.21,2.163,8.515,8.515,0,0,0,.924.168c-2.488-.154-3.684-1.175-4.023-2.677M80,62.91a2.743,2.743,0,0,1-2.039-.891,2.633,2.633,0,0,1-.555-1.243c.285.045.6.087.913.119.218.022.455.038.689.05.023.41.158,1.718,1.083,1.975l.02.005L80,62.91m4.669-10.041a7.835,7.835,0,0,1,.9,3.665,10.038,10.038,0,0,1-.314,3.14c-.12.392-.521.5-.874.593l-.1.026a14.316,14.316,0,0,1-1.965.348c-.839.093-1.977.1-1.988.1s-1.15,0-1.989-.081a14.275,14.275,0,0,1-1.968-.33l-.1-.025c-.355-.091-.757-.194-.88-.585a10.041,10.041,0,0,1-.344-3.137,7.487,7.487,0,0,1,.869-3.673c.2-.32.369-.334,1.322-.413l.317-.026c.88-.075,1.885-.09,2.406-.093h.325l.324,0c.52,0,1.524,0,2.406.07l.316.023c.956.07,1.128.082,1.328.4m-.54-.565c-.188-.028-.43-.046-.763-.07l-.07-.005-.181-.013a2.737,2.737,0,0,0-.836-1.285,3.085,3.085,0,0,0-.649-.4l-.521,0c.326,0,.612-.01.841-.017a4.437,4.437,0,0,1,2.18,1.788" transform="translate(-65.742 -41.436)" fill="#fff"/>
            <path id="Trazado_109166" data-name="Trazado 109166" d="M163.9,161.335c-.334-.091-1.243.04-1.148.708.1.7,1.223.57,1.452.189a.593.593,0,0,0-.3-.9" transform="translate(-145.995 -144.711)" fill="#fff"/>
            <path id="Trazado_109167" data-name="Trazado 109167" d="M105.9,161.616a.593.593,0,0,0-.3.9c.233.379,1.357.5,1.451-.2.089-.669-.822-.791-1.155-.7" transform="translate(-94.646 -144.961)" fill="#fff"/>
            <path id="Trazado_109168" data-name="Trazado 109168" d="M105.22,133.825a.8.8,0,0,0-.587-.31.916.916,0,0,0-.858.735c-.129.411-.294,1.253.1,1.652a.979.979,0,0,0,1.383-.006,1.5,1.5,0,0,0,.254-1.213,1.6,1.6,0,0,0-.29-.858m-.062,1.09c-.117-.024-.21-.23-.221-.346s-.022-.309.09-.351c.153-.057.236.243.257.437s-.009.285-.126.26" transform="translate(-92.965 -119.776)" fill="#fff"/>
            <path id="Trazado_109169" data-name="Trazado 109169" d="M162.008,133.249a.8.8,0,0,0-.584.316,1.6,1.6,0,0,0-.282.861,1.5,1.5,0,0,0,.266,1.211.979.979,0,0,0,1.383-.007c.388-.4.214-1.243.082-1.653a.916.916,0,0,0-.864-.727m.483.7c.153-.057.236.243.257.437s-.009.285-.126.26-.209-.23-.22-.346-.022-.309.09-.351" transform="translate(-144.55 -119.536)" fill="#fff"/>
            <path id="Trazado_109170" data-name="Trazado 109170" d="M134.293,150.36c.08-.04.139-.134.219-.195a.385.385,0,0,1,.321,0c.1.033.24.041.267-.092s-.168-.262-.268-.3a.577.577,0,0,0-.746.464c.027.145.127.166.207.126" transform="translate(-120.287 -134.331)" fill="#fff"/>
            <path id="Trazado_109171" data-name="Trazado 109171" d="M136.151,159.392c-.124-.033-.394-.015-.37.165a.2.2,0,0,0,.208.173.526.526,0,0,1-.019.237,1.01,1.01,0,0,1-.4.486,1.236,1.236,0,0,1-.821.161,1.45,1.45,0,0,1-.649-.287.175.175,0,0,0-.22,0c-.063.08-.054.274.209.45a1.613,1.613,0,0,0,1.716-.008,1.346,1.346,0,0,0,.558-.733.207.207,0,0,0,.047.153c.071.1.141.1.217-.021s.042-.274-.073-.474a.625.625,0,0,0-.4-.3" transform="translate(-120.076 -142.978)" fill="#fff"/>
            <path id="Trazado_109172" data-name="Trazado 109172" d="M75.168,88.6a.522.522,0,0,0,.4-.449.336.336,0,0,0-.407-.345.442.442,0,0,0-.371.489c.016.195.085.369.38.3" transform="translate(-67.09 -78.764)" fill="#fff"/>
            <path id="Trazado_109173" data-name="Trazado 109173" d="M85.4,90.225a.338.338,0,0,0-.323.32c0,.189.192.193.329.2a.227.227,0,0,0,.245-.272.239.239,0,0,0-.251-.253" transform="translate(-76.319 -80.941)" fill="#fff"/>
            <path id="Trazado_109174" data-name="Trazado 109174" d="M76.616,98.37c-.147.1-.166.148-.168.231a.463.463,0,0,0,.5.35c.241-.037.252-.279.169-.432a.408.408,0,0,0-.506-.149" transform="translate(-68.582 -88.213)" fill="#fff"/>
            <path id="Trazado_109175" data-name="Trazado 109175" d="M70.586,97.78c-.087-.033-.069.152-.069.152a.456.456,0,0,0,.043.174c.033.085.135.174.183.1.116-.183-.068-.393-.157-.425" transform="translate(-63.26 -87.715)" fill="#fff"/>
            <path id="Trazado_109176" data-name="Trazado 109176" d="M72.536,75.608c-.021-.166-.263-.371-.454-.446a.588.588,0,0,0-.391-.182c-.026,0-.051,0-.074,0a.4.4,0,0,0-.326.135l-.01.014a.806.806,0,0,0-.286.218,1.336,1.336,0,0,1-.288-.227.577.577,0,0,1,.024-.076.077.077,0,0,0-.092-.1.117.117,0,0,0-.112.142c.011.076.117.065.117.065a1.184,1.184,0,0,0,.159.239.153.153,0,0,0-.123.079h-.013a2.384,2.384,0,0,0-1.425.364,1.6,1.6,0,0,0-.684,1.7,1.406,1.406,0,0,0,.506.8.718.718,0,0,0,.433.188q.045,0,.09,0a1.912,1.912,0,0,0,.576-.114,1.991,1.991,0,0,0,.61-.342c.012.059.024.134.035.178a1.161,1.161,0,0,0,.168.264c.061.085.109.135.165.134s.089-.023.09-.055-.012-.045-.052-.07-.059,0-.089-.036a.43.43,0,0,1-.08-.139,1.13,1.13,0,0,1-.033-.2.109.109,0,0,0-.026-.064.445.445,0,0,0-.005-.164l.028-.025a2.545,2.545,0,0,0,.2-.219h0c.044.057.083.1.083.1a.38.38,0,0,0,.224.283c.067.006.128.029.16,0a.089.089,0,0,0,.023-.1c-.013-.038-.094-.034-.1-.021a.036.036,0,0,1-.05.017c-.02-.013-.031-.084-.063-.174s-.054-.08-.054-.08a.718.718,0,0,0-.081-.23l.02-.031c.012-.019.024-.038.035-.058.026-.047.049-.089.07-.129l.007-.015a1.081,1.081,0,0,1,.206.089c0,.043.166.075.166.075s-.059.153,0,.146.214-.043.2-.123-.095-.039-.095-.039c.026-.088-.072-.134-.14-.177s-.185-.12-.252-.168l.006-.015a1.112,1.112,0,0,0,.045-.143.05.05,0,0,0,.046.012c.09-.018.183-.076.177-.129s-.089-.06-.1-.036a.269.269,0,0,1-.075.055v-.1a.841.841,0,0,0,.668-.34.977.977,0,0,0,.233-.729M71.689,75a.591.591,0,0,1,.341.141,2.092,2.092,0,0,0-.693-.032h-.015A.434.434,0,0,1,71.689,75m-.775.471-.007.014a.153.153,0,0,0,0-.017l.008,0M71.35,77.2c-.02.039-.043.081-.068.126-.01.018-.022.037-.036.06a2.17,2.17,0,0,1-.149.213,2.4,2.4,0,0,1-.195.217c-.055.054-.113.106-.173.155a1.9,1.9,0,0,1-.6.339,1.623,1.623,0,0,1-.624.1.623.623,0,0,1-.378-.165,1.3,1.3,0,0,1-.47-.743A1.5,1.5,0,0,1,69,76.175a.868.868,0,0,0,.336-.17,1.076,1.076,0,0,0,.3-.272,2.418,2.418,0,0,1,.907-.169h.075a.159.159,0,0,0,.053.092.152.152,0,0,0,.114.03l.019.024a.6.6,0,0,0,0,.077l-.054-.028a.851.851,0,0,1-.124-.1.361.361,0,0,0-.279-.063c-.165.016-.238.044-.221.1s.157.126.157.126a.128.128,0,0,0-.079.159c.021.131.157.163.254.165a.22.22,0,0,0,.212-.1,1.267,1.267,0,0,1,.073-.13.909.909,0,0,1,.068-.092.561.561,0,0,0,.038.13,2.222,2.222,0,0,0,.535.679.436.436,0,0,0,.126.067.776.776,0,0,1-.008.084.893.893,0,0,1-.055.2,2.207,2.207,0,0,1-.1.217m.741-1.018c-.061.095-.159.141-.219.1s-.059-.147,0-.242.159-.141.219-.1.059.147,0,.242m.143.117a.413.413,0,0,0,.028-.448c-.082-.1-.235-.078-.375.06a.453.453,0,0,0-.123.5c.068.1.2.1.321.024l-.031.023a.431.431,0,0,1-.423.018.477.477,0,0,1-.239-.431.559.559,0,0,1,.432-.583.469.469,0,0,1,.506.4.5.5,0,0,1-.1.439" transform="translate(-61.47 -67.228)" fill="#fff"/>
            <path id="Trazado_109177" data-name="Trazado 109177" d="M1.986,226.441a.513.513,0,0,0,.4-.52c0-.445-.626-.436-.754-.414a2.037,2.037,0,0,0-1.437,1.119,2,2,0,0,0,.436,2.256,1.94,1.94,0,0,0,1.935.463s.507-.163.5-.573-.45-.414-.613-.4a1.187,1.187,0,0,1-1.269-.458,1.032,1.032,0,0,1,.8-1.476" transform="translate(-0.001 -202.295)" fill="#fff"/>
            <path id="Trazado_109178" data-name="Trazado 109178" d="M37.423,236.293a1.464,1.464,0,1,1-1.464-1.464,1.464,1.464,0,0,1,1.464,1.464" transform="translate(-30.946 -210.665)" fill="#fff"/>
            <path id="Trazado_109179" data-name="Trazado 109179" d="M68.224,226.441a.513.513,0,0,0,.4-.52c0-.445-.626-.436-.754-.414a2.037,2.037,0,0,0-1.437,1.119,2,2,0,0,0,.436,2.256,1.94,1.94,0,0,0,1.935.463s.507-.163.5-.573-.45-.414-.613-.4a1.187,1.187,0,0,1-1.269-.458,1.032,1.032,0,0,1,.8-1.476" transform="translate(-59.423 -202.295)" fill="#fff"/>
            <path id="Trazado_109180" data-name="Trazado 109180" d="M102.291,236.293a1.464,1.464,0,1,1-1.464-1.464,1.464,1.464,0,0,1,1.464,1.464" transform="translate(-89.14 -210.665)" fill="#fff"/>
            <path id="Trazado_109181" data-name="Trazado 109181" d="M219.057,234.829a1.464,1.464,0,1,0,1.464,1.464,1.464,1.464,0,0,0-1.464-1.464m0,1.9a.439.439,0,1,1,.439-.439.439.439,0,0,1-.439.439" transform="translate(-195.203 -210.665)" fill="#fff"/>
            <path id="Trazado_109182" data-name="Trazado 109182" d="M133.228,237.457c.471,0,.454-.331.454-.331v-.291s0-.163.145-.163a.135.135,0,0,1,.141.141v.427s-.009.264.441.264c.423,0,.423-.256.423-.256v-2.042a.7.7,0,0,0-.718-.686c-.635-.018-.793.3-.828.353a.062.062,0,0,1-.055.031.063.063,0,0,1-.055-.026.975.975,0,0,0-.758-.357.737.737,0,0,0-.827.686c0,.007,0,1.958,0,1.958,0,.326.436.344.436.344.489,0,.458-.309.458-.309l0-.37s0-.163.145-.163a.135.135,0,0,1,.141.141v.317s-.009.331.457.331" transform="translate(-118.049 -210.389)" fill="#fff"/>
            <path id="Trazado_109183" data-name="Trazado 109183" d="M169.573,236.586H170.8s.529.041.529-.625a1.29,1.29,0,0,0-1.381-1.132,1.464,1.464,0,1,0,0,2.927,1.519,1.519,0,0,0,1.075-.371.411.411,0,0,0,.041-.511.447.447,0,0,0-.447-.106,1.981,1.981,0,0,1-.582.059c-.447.006-.623-.141-.623-.206s.159-.035.159-.035m.047-.705a.336.336,0,0,1,.335-.223.325.325,0,0,1,.329.223s.041.1-.076.1h-.523s-.106,0-.065-.1" transform="translate(-151.148 -210.665)" fill="#fff"/>
            <path id="Trazado_109184" data-name="Trazado 109184" d="M203.263,225.09a.557.557,0,0,1-1.088,0v-3.528a.557.557,0,0,1,1.088,0Z" transform="translate(-181.371 -198.37)" fill="#fff"/>
            <path id="Trazado_109185" data-name="Trazado 109185" d="M254.023,237.688c0,.131-.185.238-.414.238s-.414-.107-.414-.238l-.026-.776c0-.326-.115-.837-.582-.837-.546,0-.546.511-.546.837,0,.264-.009.776-.009.776,0,.131-.185.238-.414.238s-.414-.107-.414-.238v-1.3A1.313,1.313,0,0,1,252.569,235a1.344,1.344,0,0,1,1.454,1.393Z" transform="translate(-225.354 -210.819)" fill="#fff"/>
            <path id="Trazado_109186" data-name="Trazado 109186" d="M118,240.766a.429.429,0,0,1-.281-.284.119.119,0,0,1,.138-.163.424.424,0,0,1,.28.211.143.143,0,0,1,0,.188.159.159,0,0,1-.137.047" transform="translate(-105.601 -215.589)" fill="#fffdfc"/>
            <path id="Trazado_109187" data-name="Trazado 109187" d="M53.083,240.766a.429.429,0,0,1-.281-.284.119.119,0,0,1,.138-.163.424.424,0,0,1,.28.211.143.143,0,0,1,0,.188.16.16,0,0,1-.137.047" transform="translate(-47.362 -215.589)" fill="#fffdfc"/>
            <path id="Trazado_109188" data-name="Trazado 109188" d="M103.517,2.8a.922.922,0,0,0-.925,1.02.922.922,0,1,0,1.83.012.9.9,0,0,0-.905-1.032m-.1,1.64c-.277,0-.4-.269-.4-.589s.126-.561.4-.561.415.241.415.6c0,.34-.142.553-.415.553" transform="translate(-92.035 -2.515)" fill="#fff"/>
            <path id="Trazado_109189" data-name="Trazado 109189" d="M122.32,7.144a.982.982,0,0,0-.984,1.063.916.916,0,0,0,.941,1,.994.994,0,0,0,1-1.063.909.909,0,0,0-.953-1m.028,1.613c-.261,0-.419-.21-.419-.549s.19-.632.482-.632c.269,0,.439.19.439.542s-.178.64-.5.64" transform="translate(-108.851 -6.409)" fill="#fff"/>
            <path id="Trazado_109190" data-name="Trazado 109190" d="M71.859.482C71.812.15,71.669,0,71.448,0s-.36.138-.447.415l-.442,1.406L70.254.6c-.071-.285-.225-.4-.423-.4a.54.54,0,0,0-.494.415l-.629,1.814c-.087.257.044.455.277.455.213,0,.336-.079.411-.364l.367-1.384.42,1.127c.075.2.186.344.391.344s.332-.111.4-.383L71.369.761,71.7,2.209c.035.15.1.205.213.205.142,0,.213-.122.19-.273Z" transform="translate(-61.615 0)" fill="#fff"/>
            <path id="Trazado_109191" data-name="Trazado 109191" d="M195.275,5.119l-.146.032c-.115.024-.17.071-.17.166s.071.15.182.146l.261-.008c.111,0,.15.032.15.1,0,.15-.2.36-.549.36a.506.506,0,0,1-.541-.541.6.6,0,0,1,.62-.648c.166,0,.241.028.352.028a.246.246,0,0,0,.269-.265c0-.249-.273-.3-.565-.3a1.126,1.126,0,0,0-1.205,1.174,1.032,1.032,0,0,0,2.055.111c0-.36-.308-.439-.711-.352" transform="translate(-173.976 -3.755)" fill="#fff"/>
            <path id="Trazado_109192" data-name="Trazado 109192" d="M179.155,3.512c-.079,0-.123.063-.142.166l-.111.561c-.044.214-.119.474-.336.474-.253,0-.281-.332-.221-.767l.063-.466c.032-.221-.044-.407-.3-.407-.17,0-.292.111-.308.383l-.032.613c-.028.569.119,1.091.743,1.091.443,0,.7-.285.763-1.024l.035-.427c.008-.111-.035-.2-.158-.2" transform="translate(-159.476 -2.757)" fill="#fff"/>
            <path id="Trazado_109193" data-name="Trazado 109193" d="M161.108,4.382c.313-.131.423-.274.423-.476,0-.233-.194-.411-.573-.411a.956.956,0,0,0-.98,1.091c0,.648.265.988.854.988.482,0,.858-.229.858-.632,0-.357-.263-.481-.581-.56m-.21.71c-.3,0-.459-.178-.459-.632,0-.3.115-.545.411-.545.1,0,.162.036.162.1s-.075.134-.225.233a.217.217,0,0,0-.123.178c0,.107.063.158.166.182.336.075.435.154.435.281s-.174.2-.368.2" transform="translate(-143.515 -3.135)" fill="#fff"/>
            <path id="Trazado_109194" data-name="Trazado 109194" d="M142.988,2.952c-.008-.253-.134-.34-.3-.34-.229,0-.3.174-.277.383l.135,1.069-.72-.959a.338.338,0,0,0-.277-.154c-.221,0-.281.19-.265.391l.119,1.4c.016.17.091.225.182.225.119,0,.174-.1.174-.257l-.007-1.007.6.975c.13.214.253.273.4.273.19,0,.312-.138.3-.383Z" transform="translate(-126.748 -2.343)" fill="#fff"/>
            <path id="Trazado_109195" data-name="Trazado 109195" d="M282.42,228.683V228.2h-.182v-.065h.438v.065h-.183v.487Z" transform="translate(-253.196 -204.656)" fill="#fff"/>
            <path id="Trazado_109196" data-name="Trazado 109196" d="M287.2,228.683v-.553h.11l.131.391.026.082q.009-.03.029-.089l.132-.384h.1v.553h-.07v-.462l-.161.462h-.066l-.16-.47v.47Z" transform="translate(-257.648 -204.656)" fill="#fff"/>
          </g>
        </g>
      </g>
      <circle id="Elipse_530" data-name="Elipse 530" cx="2.884" cy="2.884" r="2.884" transform="translate(1407 778)" fill="#fff"/>
      <circle id="Elipse_531" data-name="Elipse 531" cx="2.884" cy="2.884" r="2.884" transform="translate(1488 778)" fill="#fff"/>
    </g>
  </g>
</svg>
