<svg xmlns="http://www.w3.org/2000/svg" xmlns:xlink="http://www.w3.org/1999/xlink" width="315.126" height="40.913" viewBox="0 0 315.126 40.913">
  <defs>
    <clipPath id="clip-path">
      <rect id="Rectángulo_22890" data-name="Rectángulo 22890" width="27.86" height="29.512" fill="none"/>
    </clipPath>
  </defs>
  <g id="Grupo_50943" data-name="Grupo 50943" transform="translate(-369 -753)">
    <g id="Grupo_50929" data-name="Grupo 50929" transform="translate(-66 79)">
      <rect id="Rectángulo_18532" data-name="Rectángulo 18532" width="65.713" height="39.664" rx="5" transform="translate(435 675)" fill="none"/>
      <g id="Disney_Logo_2024_BLACK_RGB" data-name="Disney+Logo_2024_BLACK_RGB" transform="translate(443.002 682.002)">
        <path id="Trazado_109054" data-name="Trazado 109054" d="M7.656,293.437a12,12,0,0,0-6.441-.285,1.536,1.536,0,0,0-1.038.744.883.883,0,0,0-.162.641c.05.189.319.255.536.289s.68.058.808-.094c.066-.079.068-.3-.278-.375-.128-.027-.475-.039-.5-.1,0,0,.012-.041.2-.1a6.33,6.33,0,0,1,2.39-.226A16.3,16.3,0,0,1,8.787,295.2a12.512,12.512,0,0,1,5.049,3.544,5.172,5.172,0,0,1,1.088,2.343c.179,1.955-1.731,3.605-5.608,3.473a11.174,11.174,0,0,1-1.468-.18l-.08-3.775a12.046,12.046,0,0,1,3.455.585c.154.051.31.152.324.3a.4.4,0,0,1-.183.3c-.188.164-.447.236-.5.305a.119.119,0,0,0,.012.169,1.221,1.221,0,0,0,.7.157,1.3,1.3,0,0,0,.991-.651c.245-.369.384-1.308-.919-1.907a9.334,9.334,0,0,0-3.886-.629s-.011-.512-.034-.853c-.038-.559-.193-1.658-.7-1.974a.2.2,0,0,0-.272.023,2.749,2.749,0,0,0-.217.748,16.52,16.52,0,0,0-.192,2.182.117.117,0,0,1-.02.018,10.588,10.588,0,0,0-2.412.667,2.636,2.636,0,0,0-1.343,1.041c-.262.609.2,1.275.978,2.013a10.175,10.175,0,0,0,2.353,1.623c.184.087.4.194.4.194s.047.436.084.688a.772.772,0,0,0,1.019.737c.31-.063.37-.27.413-.509a1.737,1.737,0,0,0,.014-.32s.469.108.784.165a9.051,9.051,0,0,0,2.774.081c3.449-.471,4.318-2.1,4.593-2.53.477-.755,1.49-2.857-1.561-5.977a14.63,14.63,0,0,0-6.757-3.821Zm-4.555,8.5a.513.513,0,0,1-.192-.439c.028-.163.348-.307.509-.355a12.083,12.083,0,0,1,2.875-.482s-.012.558-.015,1.123c-.005,1.069.023,2.155.023,2.155a8.141,8.141,0,0,1-3.2-2Z" transform="translate(0 -283.016)" fill="#fff"/>
        <path id="Trazado_109055" data-name="Trazado 109055" d="M472.286,328.3a5.136,5.136,0,0,0,1.863-1.28,1.671,1.671,0,0,0,.518-1.4,1.034,1.034,0,0,0-.38-.608,1.41,1.41,0,0,0-.54-.256.61.61,0,0,1-.141-.031.411.411,0,0,1-.077-.088,1.383,1.383,0,0,0-.564-.38,2.771,2.771,0,0,0-1.816.167,4.172,4.172,0,0,0-1.413.967,1.683,1.683,0,0,0-.467,2.06,1.87,1.87,0,0,1,.245.414,1.8,1.8,0,0,1,.005.288.854.854,0,0,0,.272.6c.12.106.293.137.467-.126.058-.088.155-.268.155-.268a1.747,1.747,0,0,0,.69.151A3.118,3.118,0,0,0,472.286,328.3Zm-2.337-1.284s-.034-.071-.056-.124c-.15-.373.181-.794.484-1.052a1.785,1.785,0,0,1,1.09-.49s-.12.1-.219.183A7.028,7.028,0,0,0,469.949,327.013Zm1.289-.014a6.342,6.342,0,0,1,1.492-1.318,1.026,1.026,0,0,1,.914-.174.445.445,0,0,1,.27.357c.062.524-.542.961-.946,1.2a3.075,3.075,0,0,1-2.032.366c0-.013.22-.318.3-.428Z" transform="translate(-453.381 -313.3)" fill="#fff"/>
        <path id="Trazado_109056" data-name="Trazado 109056" d="M1019.225,472.917c-1.169-.811-3.055,1.761-3.885,3.037a2.733,2.733,0,0,1,.316-1.473s.7-1.22.8-1.467.152-.762.031-.812-.3.114-.3.114a5.465,5.465,0,0,0-1.8,2.995,2.57,2.57,0,0,0,.282,1.861,9.657,9.657,0,0,0-1.195,4.473,1.82,1.82,0,0,0,.953,1.379c.323.135.38-.254.38-.254a17.16,17.16,0,0,1,1.263-4.655c1.649.379,2.89-1.226,3.329-1.993a3.509,3.509,0,0,0,.4-1.654,1.9,1.9,0,0,0-.574-1.551Zm-1.074,3.185a3.01,3.01,0,0,1-1.466.605,12.055,12.055,0,0,1,1.814-2.554c.5-.559.561-.051.561-.051a2.439,2.439,0,0,1-.91,2Z" transform="translate(-979.502 -456.372)" fill="#fff"/>
        <path id="Trazado_109057" data-name="Trazado 109057" d="M904.489,482.626a.631.631,0,0,0-.441-.691,15.732,15.732,0,0,0-2.211.341c-.227.061-.126-.153-.126-.153l.273-.925s1.689-.065,1.935-.106c.227-.041.241-.2.241-.2a4.148,4.148,0,0,0,.021-.512c-.025-.265-.237-.24-.237-.24a10.035,10.035,0,0,0-1.551.009l.227-.71a22.115,22.115,0,0,0,2.479-.245c.351-.083.144-.427.144-.427-.426-.852-.917-.8-.917-.8a14.69,14.69,0,0,0-3.69.438c-.209.1-.187.253.086.6a1,1,0,0,0,.786.329l-.433.9a.829.829,0,0,0-.475.135c-.2.217.077.86.077.86s-.613,1.376-.169,2.1c.478.763,1.043.726,1.043.726a4.315,4.315,0,0,0,2.936-1.42Z" transform="translate(-870.184 -461.945)" fill="#fff"/>
        <path id="Trazado_109058" data-name="Trazado 109058" d="M746.277,453.341s-.25-.117-.314.133a.99.99,0,0,0,.031.51,22.032,22.032,0,0,1,.764,3.362s.029.367-.042.388c-.05.038-.106-.014-.106-.014a10.242,10.242,0,0,1-.754-1.143l-.133-.224a8.315,8.315,0,0,0-1.207-1.626.44.44,0,0,0-.721,0,6.3,6.3,0,0,0-.715,2.752,4.169,4.169,0,0,0,.145,2.075.547.547,0,0,0,.832.135c.31-.238.251-1.751.3-2.527s.124-.64.124-.64c.068-.018.423.695.423.695s.934,1.912,1.521,2.2a.939.939,0,0,0,1.253-.6,5.68,5.68,0,0,0,.031-3.42,3.338,3.338,0,0,0-1.434-2.057Z" transform="translate(-718.146 -438.127)" fill="#fff"/>
        <path id="Trazado_109059" data-name="Trazado 109059" d="M510.681,485.965a17.908,17.908,0,0,0-.233-2.462.755.755,0,0,0-.424-.594.525.525,0,0,0-.086-.025c-.16-.031-.252.189-.295.3a7.253,7.253,0,0,0-.242,1.341,18.488,18.488,0,0,0-.009,3.349c.053.37.175.611.549.688a.931.931,0,0,0,.55-.052.5.5,0,0,0,.205-.305,4.643,4.643,0,0,0,.028-1.073c-.016-.388-.026-.774-.044-1.166Z" transform="translate(-492.255 -466.704)" fill="#fff"/>
        <path id="Trazado_109060" data-name="Trazado 109060" d="M566.73,476.639a5.675,5.675,0,0,0-2.959-.328,3.637,3.637,0,0,0-2.472,1.068,1.324,1.324,0,0,0-.209,1.009.683.683,0,0,0,.375.427,9.349,9.349,0,0,0,2,.272,8.026,8.026,0,0,1,1.859.342s.463.161.46.426a.407.407,0,0,1-.2.306,4.476,4.476,0,0,1-2.613.646,2.087,2.087,0,0,1-.854-.183c-.13-.057-.3-.161-.276-.338.036-.284.362-.354.62-.33a1.951,1.951,0,0,1,.474.13c.57.225.829.414,1.33.338.187-.028.835-.169.922-.436a.187.187,0,0,0-.057-.184,2.907,2.907,0,0,0-.564-.26,6.436,6.436,0,0,0-1.507-.275,1.869,1.869,0,0,0-1.554.527c-.271.395-.332,1.189,1.013,1.858a3.856,3.856,0,0,0,2.082.372,2.462,2.462,0,0,0,1.985-1.14,1.884,1.884,0,0,0-.041-1.617c-.166-.308-.368-.718-1.869-.907-.24-.03-2.006-.235-2.168-.26-.09-.014-.5-.063-.358-.221a.639.639,0,0,1,.239-.1,15.788,15.788,0,0,1,3.077-.279,5.161,5.161,0,0,0,.951-.119.648.648,0,0,0,.468-.482c.026-.133-.037-.2-.162-.262Z" transform="translate(-542.264 -460.3)" fill="#fff"/>
        <path id="Trazado_109061" data-name="Trazado 109061" d="M1243.961,432h-2.774a20.221,20.221,0,0,0-.29-2.837.334.334,0,0,0-.328-.276h-.748a.234.234,0,0,0-.229.277A18.787,18.787,0,0,1,1239.9,432h-2.818a.234.234,0,0,0-.234.235v.851a.234.234,0,0,0,.234.235h2.818a18.831,18.831,0,0,1-.311,2.836.234.234,0,0,0,.229.277h.748a.334.334,0,0,0,.328-.276,20.221,20.221,0,0,0,.29-2.837h2.774a.234.234,0,0,0,.234-.235v-.851A.234.234,0,0,0,1243.961,432Z" transform="translate(-1195.41 -414.522)" fill="#fff"/>
        <path id="Trazado_109062" data-name="Trazado 109062" d="M306.6,7.186a.3.3,0,0,0,.374-.1,18.547,18.547,0,0,1,3.178-2.727c7.78-5.314,19.2-4.541,25.883,2.193a16.852,16.852,0,0,1,4.037,6.419.334.334,0,0,0,.316.228h.767a.234.234,0,0,0,.221-.309,18.458,18.458,0,0,0-4.782-7.364A21.5,21.5,0,0,0,310.3,3.588a19.851,19.851,0,0,0-3.713,3.276.21.21,0,0,0,.011.323Z" transform="translate(-296.246 0)" fill="#fff"/>
      </g>
    </g>
    <circle id="Elipse_412" data-name="Elipse 412" cx="2.884" cy="2.884" r="2.884" transform="translate(440 771)" fill="#fff"/>
    <g id="Grupo_32726" data-name="Grupo 32726" transform="translate(534 753)">
      <rect id="Rectángulo_18532-2" data-name="Rectángulo 18532" width="66.751" height="40.291" rx="5" transform="translate(0 0)" fill="none"/>
      <g id="Grupo_22160" data-name="Grupo 22160" transform="translate(8.108 13.946)">
        <path id="Trazado_42620" data-name="Trazado 42620" d="M0,10.65A4.435,4.435,0,0,1,4.555,6.132,4.183,4.183,0,0,1,8.813,9.049l-2.011.5A2.27,2.27,0,0,0,4.568,8.068,2.429,2.429,0,0,0,2.11,10.638a2.47,2.47,0,0,0,2.457,2.594A2.237,2.237,0,0,0,6.8,11.779l2.011.509a4.142,4.142,0,0,1-4.22,2.88A4.444,4.444,0,0,1,0,10.65" transform="translate(0 -5.503)" fill="#fff"/>
        <rect id="Rectángulo_18371" data-name="Rectángulo 18371" width="1.986" height="6.33" transform="translate(11.754 3.161)" fill="#fff"/>
        <path id="Trazado_42621" data-name="Trazado 42621" d="M174.339,7.827v8.688h-1.676l-3.91-4.977v4.977h-2.06V7.827h1.676l3.91,4.977V7.827Z" transform="translate(-149.589 -7.024)" fill="#fff"/>
        <path id="Trazado_42622" data-name="Trazado 42622" d="M281.987,12.171a4.033,4.033,0,0,1-4.108,4.344H273.87V7.827h4.009a4.021,4.021,0,0,1,4.108,4.344m-2.085-.037a2.177,2.177,0,0,0-2.073-2.458h-1.924v4.99h1.924c1.167,0,2.073-1.005,2.073-2.532" transform="translate(-245.768 -7.024)" fill="#fff"/>
        <path id="Trazado_42623" data-name="Trazado 42623" d="M432.764,9.689V11.2h3.9V13h-3.9v1.651h4.518v1.862h-6.529V7.827h6.541V9.689Z" transform="translate(-386.554 -7.024)" fill="#fff"/>
        <path id="Trazado_42624" data-name="Trazado 42624" d="M113.548,1.328A1.328,1.328,0,1,1,112.22,0a1.328,1.328,0,0,1,1.328,1.328" transform="translate(-99.513 0)" fill="#fff"/>
        <rect id="Rectángulo_18372" data-name="Rectángulo 18372" width="1.986" height="6.33" transform="translate(39.147 0.574)" fill="#fff"/>
        <path id="Trazado_42625" data-name="Trazado 42625" d="M379.351,72.1a1.328,1.328,0,1,0,1.328,1.328,1.328,1.328,0,0,0-1.328-1.328" transform="translate(-339.234 -64.698)" fill="#fff"/>
        <path id="Trazado_42626" data-name="Trazado 42626" d="M9.186,115.588v1.156h-.3V116.6a.451.451,0,0,1-.37.178c-.3,0-.457-.2-.457-.514v-.674h.3v.617c0,.176.08.29.247.29s.279-.133.279-.338v-.569Z" transform="translate(-7.23 -103.727)" fill="#fff"/>
        <path id="Trazado_42627" data-name="Trazado 42627" d="M23.083,115.788v.676h-.3v-.619c0-.176-.08-.288-.247-.288s-.279.132-.279.336v.571h-.3v-1.156h.3v.146a.459.459,0,0,1,.372-.178c.3,0,.455.2.455.512" transform="translate(-19.701 -103.447)" fill="#fff"/>
        <path id="Trazado_42628" data-name="Trazado 42628" d="M43.057,115.776v.688h-.3v-.624c0-.174-.064-.283-.222-.283s-.245.121-.245.318v.59h-.3v-.624c0-.171-.062-.283-.217-.283s-.249.123-.249.327v.58h-.3v-1.156h.3v.137a.42.42,0,0,1,.343-.169.387.387,0,0,1,.347.174.481.481,0,0,1,.391-.174.442.442,0,0,1,.457.5" transform="translate(-36.989 -103.447)" fill="#fff"/>
        <path id="Trazado_42629" data-name="Trazado 42629" d="M62.836,115.588v1.156h-.3V116.6a.451.451,0,0,1-.37.178c-.3,0-.457-.2-.457-.514v-.674h.3v.617c0,.176.08.29.247.29s.279-.133.279-.338v-.569Z" transform="translate(-55.375 -103.727)" fill="#fff"/>
        <path id="Trazado_42630" data-name="Trazado 42630" d="M76.733,115.788v.676h-.3v-.619c0-.176-.08-.288-.247-.288s-.279.132-.279.336v.571h-.3v-1.156h.3v.146a.459.459,0,0,1,.372-.178c.3,0,.455.2.455.512" transform="translate(-67.846 -103.447)" fill="#fff"/>
        <path id="Trazado_42631" data-name="Trazado 42631" d="M89.946,110.6v1.668h-.3v-.142a.46.46,0,0,1-.372.174.611.611,0,0,1,0-1.22.458.458,0,0,1,.372.171V110.6Zm-.295,1.088a.326.326,0,0,0-.329-.338.341.341,0,0,0,0,.681.328.328,0,0,0,.329-.343" transform="translate(-79.597 -99.25)" fill="#fff"/>
        <path id="Trazado_42632" data-name="Trazado 42632" d="M103.063,115.886a.618.618,0,1,1,.619.61.6.6,0,0,1-.619-.61m.944,0a.325.325,0,1,0-.324.336.319.319,0,0,0,.324-.336" transform="translate(-92.488 -103.447)" fill="#fff"/>
        <path id="Trazado_42633" data-name="Trazado 42633" d="M123.374,110.6v1.668h-.3v-.142a.46.46,0,0,1-.373.174.611.611,0,0,1,0-1.22.458.458,0,0,1,.373.171V110.6Zm-.295,1.088a.326.326,0,0,0-.329-.338.341.341,0,0,0,0,.681.328.328,0,0,0,.329-.343" transform="translate(-109.595 -99.25)" fill="#fff"/>
        <path id="Trazado_42634" data-name="Trazado 42634" d="M136.491,115.886a.585.585,0,0,1,.605-.61.609.609,0,0,1,.59.7h-.9a.3.3,0,0,0,.336.263.3.3,0,0,0,.281-.153l.272.08a.632.632,0,0,1-1.186-.281m.907-.1a.284.284,0,0,0-.3-.256.3.3,0,0,0-.306.256Z" transform="translate(-122.486 -103.447)" fill="#fff"/>
        <path id="Trazado_42635" data-name="Trazado 42635" d="M155.22,115.886a.586.586,0,0,1,.605-.61.609.609,0,0,1,.59.7h-.9a.3.3,0,0,0,.336.263.3.3,0,0,0,.281-.153l.272.08a.632.632,0,0,1-1.186-.281m.907-.1a.284.284,0,0,0-.3-.256.3.3,0,0,0-.306.256Z" transform="translate(-139.293 -103.447)" fill="#fff"/>
        <path id="Trazado_42636" data-name="Trazado 42636" d="M170.29,115.788v.676h-.3v-.619c0-.176-.08-.288-.247-.288s-.279.132-.279.336v.571h-.3v-1.156h.3v.146a.459.459,0,0,1,.372-.178c.3,0,.455.2.455.512" transform="translate(-151.803 -103.447)" fill="#fff"/>
        <path id="Trazado_42637" data-name="Trazado 42637" d="M182.66,113.43a.7.7,0,0,1-.27.055.362.362,0,0,1-.386-.414v-.5h-.194v-.265H182v-.375h.3v.375h.338v.265h-.338v.5a.128.128,0,0,0,.142.146.282.282,0,0,0,.137-.032Z" transform="translate(-163.155 -100.45)" fill="#fff"/>
        <path id="Trazado_42638" data-name="Trazado 42638" d="M192.8,115.391v.283c-.247-.039-.382.075-.382.386v.5h-.3v-1.156h.3v.171a.348.348,0,0,1,.382-.187" transform="translate(-172.408 -103.546)" fill="#fff"/>
        <path id="Trazado_42639" data-name="Trazado 42639" d="M199.382,115.886a.586.586,0,0,1,.606-.61.609.609,0,0,1,.59.7h-.9a.3.3,0,0,0,.336.263.3.3,0,0,0,.281-.153l.272.08a.632.632,0,0,1-1.186-.281m.907-.1a.283.283,0,0,0-.3-.256.3.3,0,0,0-.306.256Z" transform="translate(-178.923 -103.447)" fill="#fff"/>
        <path id="Trazado_42640" data-name="Trazado 42640" d="M212.7,113.43a.694.694,0,0,1-.27.055.362.362,0,0,1-.386-.414v-.5h-.194v-.265h.194v-.375h.3v.375h.338v.265h-.338v.5a.128.128,0,0,0,.142.146.281.281,0,0,0,.137-.032Z" transform="translate(-190.116 -100.45)" fill="#fff"/>
        <path id="Trazado_42641" data-name="Trazado 42641" d="M220.94,115.886a.586.586,0,0,1,.605-.61.609.609,0,0,1,.59.7h-.9a.3.3,0,0,0,.336.263.3.3,0,0,0,.281-.153l.272.08a.632.632,0,0,1-1.186-.281m.907-.1a.283.283,0,0,0-.3-.256.3.3,0,0,0-.306.256Z" transform="translate(-198.269 -103.447)" fill="#fff"/>
        <path id="Trazado_42642" data-name="Trazado 42642" d="M236.01,115.788v.676h-.3v-.619c0-.176-.08-.288-.247-.288s-.279.132-.279.336v.571h-.3v-1.156h.3v.146a.459.459,0,0,1,.372-.178c.3,0,.455.2.455.512" transform="translate(-210.78 -103.447)" fill="#fff"/>
        <path id="Trazado_42643" data-name="Trazado 42643" d="M248.4,110.751a.181.181,0,1,1,.18.178.177.177,0,0,1-.18-.178m.025.341h.3v1.156h-.3Z" transform="translate(-222.911 -99.231)" fill="#fff"/>
        <path id="Trazado_42644" data-name="Trazado 42644" d="M256.385,115.776v.688h-.3v-.624c0-.174-.064-.283-.222-.283s-.245.121-.245.318v.59h-.3v-.624c0-.171-.062-.283-.217-.283s-.249.123-.249.327v.58h-.3v-1.156h.3v.137a.42.42,0,0,1,.343-.169.387.387,0,0,1,.347.174.481.481,0,0,1,.391-.174.442.442,0,0,1,.457.5" transform="translate(-228.427 -103.447)" fill="#fff"/>
        <path id="Trazado_42645" data-name="Trazado 42645" d="M274.99,110.751a.181.181,0,1,1,.181.178.177.177,0,0,1-.181-.178m.025.341h.3v1.156h-.3Z" transform="translate(-246.773 -99.231)" fill="#fff"/>
        <path id="Trazado_42646" data-name="Trazado 42646" d="M280.446,115.886a.586.586,0,0,1,.606-.61.564.564,0,0,1,.6.594.554.554,0,0,1-.007.107h-.9a.3.3,0,0,0,.336.263.3.3,0,0,0,.281-.153l.272.08a.632.632,0,0,1-1.186-.281m.907-.1a.283.283,0,0,0-.3-.256.3.3,0,0,0-.306.256Z" transform="translate(-251.67 -103.447)" fill="#fff"/>
        <path id="Trazado_42647" data-name="Trazado 42647" d="M295.517,115.788v.676h-.3v-.619c0-.176-.08-.288-.247-.288s-.279.132-.279.336v.571h-.3v-1.156h.3v.146a.459.459,0,0,1,.372-.178c.3,0,.455.2.455.512" transform="translate(-264.181 -103.447)" fill="#fff"/>
        <path id="Trazado_42648" data-name="Trazado 42648" d="M307.888,113.43a.7.7,0,0,1-.27.055.362.362,0,0,1-.386-.414v-.5h-.194v-.265h.194v-.375h.3v.375h.338v.265h-.338v.5a.128.128,0,0,0,.142.146.281.281,0,0,0,.137-.032Z" transform="translate(-275.533 -100.45)" fill="#fff"/>
        <path id="Trazado_42649" data-name="Trazado 42649" d="M316.123,115.886a.618.618,0,1,1,.619.61.6.6,0,0,1-.619-.61m.944,0a.325.325,0,1,0-.324.336.319.319,0,0,0,.324-.336" transform="translate(-283.686 -103.447)" fill="#fff"/>
        <path id="Trazado_42650" data-name="Trazado 42650" d="M335.61,110.751a.181.181,0,1,1,.181.178.177.177,0,0,1-.181-.178m.025.341h.3v1.156h-.3Z" transform="translate(-301.173 -99.231)" fill="#fff"/>
        <path id="Trazado_42651" data-name="Trazado 42651" d="M342.886,115.788v.676h-.3v-.619c0-.176-.08-.288-.247-.288s-.279.132-.279.336v.571h-.3v-1.156h.3v.146a.459.459,0,0,1,.372-.178c.3,0,.455.2.455.512" transform="translate(-306.689 -103.447)" fill="#fff"/>
        <path id="Trazado_42652" data-name="Trazado 42652" d="M356.1,110.6v1.668h-.3v-.142a.46.46,0,0,1-.372.174.611.611,0,0,1,0-1.22.458.458,0,0,1,.372.171V110.6Zm-.295,1.088a.326.326,0,0,0-.329-.338.341.341,0,0,0,0,.681.328.328,0,0,0,.329-.343" transform="translate(-318.441 -99.25)" fill="#fff"/>
        <path id="Trazado_42653" data-name="Trazado 42653" d="M369.216,115.886a.586.586,0,0,1,.605-.61.609.609,0,0,1,.59.7h-.9a.3.3,0,0,0,.336.263.3.3,0,0,0,.281-.153l.272.08a.632.632,0,0,1-1.186-.281m.907-.1a.283.283,0,0,0-.3-.256.3.3,0,0,0-.306.256Z" transform="translate(-331.331 -103.447)" fill="#fff"/>
        <path id="Trazado_42654" data-name="Trazado 42654" d="M384.4,115.886a.579.579,0,0,1-.569.61.464.464,0,0,1-.375-.174v.621h-.3v-1.636h.3v.139a.463.463,0,0,1,.375-.171.578.578,0,0,1,.569.61m-.3,0a.318.318,0,0,0-.324-.338.341.341,0,0,0,0,.681.321.321,0,0,0,.324-.343" transform="translate(-343.841 -103.447)" fill="#fff"/>
        <path id="Trazado_42655" data-name="Trazado 42655" d="M396.831,115.886a.586.586,0,0,1,.605-.61.609.609,0,0,1,.59.7h-.9a.3.3,0,0,0,.336.263.3.3,0,0,0,.281-.153l.272.08a.632.632,0,0,1-1.186-.281m.907-.1a.283.283,0,0,0-.3-.256.3.3,0,0,0-.306.256Z" transform="translate(-356.112 -103.447)" fill="#fff"/>
        <path id="Trazado_42656" data-name="Trazado 42656" d="M411.9,115.788v.676h-.3v-.619c0-.176-.08-.288-.247-.288s-.279.132-.279.336v.571h-.3v-1.156h.3v.146a.459.459,0,0,1,.372-.178c.3,0,.455.2.455.512" transform="translate(-368.624 -103.447)" fill="#fff"/>
        <path id="Trazado_42657" data-name="Trazado 42657" d="M425.115,110.6v1.668h-.3v-.142a.459.459,0,0,1-.372.174.611.611,0,0,1,0-1.22.458.458,0,0,1,.372.171V110.6Zm-.295,1.088a.326.326,0,0,0-.329-.338.341.341,0,0,0,0,.681.328.328,0,0,0,.329-.343" transform="translate(-380.374 -99.25)" fill="#fff"/>
        <path id="Trazado_42658" data-name="Trazado 42658" d="M438.655,110.751a.181.181,0,1,1,.181.178.177.177,0,0,1-.181-.178m.025.341h.3v1.156h-.3Z" transform="translate(-393.645 -99.231)" fill="#fff"/>
        <path id="Trazado_42659" data-name="Trazado 42659" d="M444.112,115.886a.585.585,0,0,1,.606-.61.609.609,0,0,1,.59.7h-.9a.3.3,0,0,0,.336.263.3.3,0,0,0,.281-.153l.272.08a.632.632,0,0,1-1.186-.281m.907-.1a.284.284,0,0,0-.3-.256.3.3,0,0,0-.306.256Z" transform="translate(-398.542 -103.447)" fill="#fff"/>
        <path id="Trazado_42660" data-name="Trazado 42660" d="M459.182,115.788v.676h-.3v-.619c0-.176-.08-.288-.247-.288s-.279.132-.279.336v.571h-.3v-1.156h.3v.146a.459.459,0,0,1,.372-.178c.3,0,.455.2.455.512" transform="translate(-411.053 -103.447)" fill="#fff"/>
        <path id="Trazado_42661" data-name="Trazado 42661" d="M471.553,113.43a.694.694,0,0,1-.27.055.362.362,0,0,1-.386-.414v-.5H470.7v-.265h.194v-.375h.3v.375h.338v.265H471.2v.5a.128.128,0,0,0,.142.146.282.282,0,0,0,.137-.032Z" transform="translate(-422.405 -100.45)" fill="#fff"/>
        <path id="Trazado_42662" data-name="Trazado 42662" d="M479.789,115.886a.586.586,0,0,1,.606-.61.609.609,0,0,1,.59.7h-.9a.3.3,0,0,0,.336.263.3.3,0,0,0,.281-.153l.272.08a.632.632,0,0,1-1.186-.281m.907-.1a.283.283,0,0,0-.3-.256.3.3,0,0,0-.306.256Z" transform="translate(-430.558 -103.447)" fill="#fff"/>
      </g>
    </g>
    <g id="Grupo_34972" data-name="Grupo 34972" transform="translate(618 754)">
      <rect id="Rectángulo_18532-3" data-name="Rectángulo 18532" width="66.126" height="39.913" rx="5" transform="translate(0)" fill="none"/>
      <g id="Grupo_34951" data-name="Grupo 34951" transform="translate(19.303 5.362)">
        <g id="Grupo_34950" data-name="Grupo 34950" clip-path="url(#clip-path)">
          <path id="Trazado_88249" data-name="Trazado 88249" d="M42.488,0l.028.1h-.2s1.267,4.5,1.339,4.717.233.262.582.364A5.014,5.014,0,0,1,47.371,9.92c0,3.4-2.7,4.523-5.533,4.6a.133.133,0,0,0-.094.124h-.085s-.109.013,0,.246,2.329,3.654,2.664,4.12a14.127,14.127,0,0,0,10.231-4.683C58.63,9.512,55.621.039,42.488,0" transform="translate(-32.874)" fill="#fff"/>
          <path id="Trazado_88250" data-name="Trazado 88250" d="M32.915,37.721A3.318,3.318,0,1,0,29.6,34.4a3.318,3.318,0,0,0,3.318,3.318" transform="translate(-23.384 -24.56)" fill="#fff"/>
          <path id="Trazado_88251" data-name="Trazado 88251" d="M3.152,101.549H2.12L.907,103.273v-1.724H0v3.969H.907v-1.837l1.27,1.837H3.209l-1.395-2.036Z" transform="translate(0 -80.23)" fill="#fff"/>
          <path id="Trazado_88252" data-name="Trazado 88252" d="M22.328,101.549H21.171l-1.349,3.969h.992l.2-.624h1.474l.2.624h.992Zm-1.043,2.495.465-1.457.465,1.457Z" transform="translate(-15.661 -80.23)" fill="#fff"/>
          <path id="Trazado_88253" data-name="Trazado 88253" d="M46.921,101.549h-.907V103.7l-1.531-2.155H43.8v3.969h.907v-2.155l1.531,2.155h.68Z" transform="translate(-34.607 -80.23)" fill="#fff"/>
          <path id="Trazado_88254" data-name="Trazado 88254" d="M66.779,101.549H65.622l-1.349,3.969h.992l.2-.624h1.474l.2.624h.992Zm-1.043,2.495.465-1.457.465,1.457Z" transform="translate(-50.78 -80.23)" fill="#fff"/>
          <path id="Trazado_88255" data-name="Trazado 88255" d="M89.161,101.549h-.907v3.969h2.325v-.873H89.161Z" transform="translate(-69.726 -80.23)" fill="#fff"/>
          <path id="Trazado_88256" data-name="Trazado 88256" d="M117.55,101.548h-1.588v3.969h1.588a1.985,1.985,0,0,0,0-3.969m0,3.1h-.68v-2.223h.68a1.113,1.113,0,0,1,0,2.223" transform="translate(-91.617 -80.229)" fill="#fff"/>
          <path id="Trazado_88257" data-name="Trazado 88257" d="M22.456,129.873h-.9v2.247h.9a1.124,1.124,0,0,0,0-2.247m0,1.753h-.385v-1.258h.385a.63.63,0,0,1,0,1.258" transform="translate(-17.031 -102.608)" fill="#fff"/>
          <path id="Trazado_88258" data-name="Trazado 88258" d="M43.255,130.644a.768.768,0,0,0-.77-.77h-.9v2.247H42.1v-.738h.244l.424.738h.552l-.479-.825a.74.74,0,0,0,.414-.652m-.77.289H42.1v-.578h.385a.291.291,0,0,1,0,.578" transform="translate(-32.856 -102.609)" fill="#fff"/>
          <path id="Trazado_88259" data-name="Trazado 88259" d="M60.662,129.873h-.655l-.764,2.247H59.8l.112-.353h.835l.112.353h.562Zm-.591,1.412.263-.825.263.825Z" transform="translate(-46.806 -102.608)" fill="#fff"/>
          <path id="Trazado_88260" data-name="Trazado 88260" d="M80.854,130.872l-.61-1h-.514v2.247h.514v-1.306l.581.953h.058l.581-.953v1.306h.514v-2.247h-.514Z" transform="translate(-62.992 -102.609)" fill="#fff"/>
          <path id="Trazado_88261" data-name="Trazado 88261" d="M101.287,129.873l-.764,2.247h.562l.112-.353h.835l.112.353h.562l-.764-2.247Zm.064,1.412.263-.825.263.825Z" transform="translate(-79.42 -102.608)" fill="#fff"/>
        </g>
      </g>
    </g>
    <g id="Grupo_34978" data-name="Grupo 34978" transform="translate(451 753)">
      <rect id="Rectángulo_18532-4" data-name="Rectángulo 18532" width="66.402" height="40.08" rx="5" transform="translate(0 0)" fill="none"/>
      <g id="Grupo_32685" data-name="Grupo 32685" transform="translate(15.691 9.713)">
        <path id="Trazado_43304" data-name="Trazado 43304" d="M4.3,18.173H6.49v5.918H4.3v-.53a1.926,1.926,0,0,1-1.586.7,2.447,2.447,0,0,1-1.954-.886A3.334,3.334,0,0,1,0,21.133a3.325,3.325,0,0,1,.758-2.238A2.447,2.447,0,0,1,2.712,18a1.93,1.93,0,0,1,1.586.7ZM2.481,21.927a.985.985,0,0,0,.764.32.985.985,0,0,0,.764-.32,1.231,1.231,0,0,0,0-1.587.985.985,0,0,0-.764-.32.985.985,0,0,0-.764.32,1.231,1.231,0,0,0,0,1.587" transform="translate(0.898 -15.307)" fill="#fff"/>
        <path id="Trazado_43305" data-name="Trazado 43305" d="M53.456,18.007a1.976,1.976,0,0,1,1.557.664,2.934,2.934,0,0,1,.587,1.993V24.1H53.409V20.913q0-.794-.734-.794a.734.734,0,0,0-.6.249,1.04,1.04,0,0,0-.2.686V24.1H49.678V18.178h2.194v.58a1.832,1.832,0,0,1,1.584-.751" transform="translate(-41.343 -15.311)" fill="#fff"/>
        <path id="Trazado_43306" data-name="Trazado 43306" d="M95.6,2.416a1.175,1.175,0,0,1-.859-.361A1.174,1.174,0,0,1,94.709.394l.033-.033A1.171,1.171,0,0,1,95.6,0a1.159,1.159,0,0,1,.847.361,1.175,1.175,0,0,1,.033,1.661l-.033.033a1.164,1.164,0,0,1-.847.361m-1.1.451H96.69V8.784H94.5Z" transform="translate(-79.354 0)" fill="#fff"/>
        <path id="Trazado_43307" data-name="Trazado 43307" d="M123.122,18.007a2.052,2.052,0,0,1,1.611.645,2.692,2.692,0,0,1,.585,1.845v3.6h-2.2v-3.3q0-.675-.6-.675-.7,0-.7.877v3.1h-2.191v-3.3q0-.675-.6-.675-.7,0-.7.877v3.1h-2.191V18.178h2.191v.553a1.951,1.951,0,0,1,1.611-.724,1.6,1.6,0,0,1,1.481.734,2.149,2.149,0,0,1,1.7-.734" transform="translate(-97.852 -15.311)" fill="#fff"/>
        <path id="Trazado_43308" data-name="Trazado 43308" d="M183.84,21.882a1.2,1.2,0,0,0,1.208.592,1.55,1.55,0,0,0,1.006-.371l1.434,1.208a3.242,3.242,0,0,1-2.511.959,3.361,3.361,0,0,1-2.435-.886,2.947,2.947,0,0,1-.918-2.221,3.078,3.078,0,0,1,3.152-3.156,2.98,2.98,0,0,1,2.221.886,3.037,3.037,0,0,1,.869,2.222,3.155,3.155,0,0,1-.094.775Zm-.035-1.409H185.8a.9.9,0,0,0-.96-.711,1.022,1.022,0,0,0-1.033.713Z" transform="translate(-153.535 -15.311)" fill="#fff"/>
        <g id="Polígono_5" data-name="Polígono 5" transform="matrix(0.719, -0.695, 0.695, 0.719, 0, 13.797)" fill="#fff">
          <path d="M.96,0l.96,1.28H0Z" stroke="none"/>
          <path d="M 0.9599711894989014 4.76837158203125e-06 L 1.919941186904907 1.279964804649353 L 1.192092895507812e-06 1.279964804649353 L 0.9599711894989014 4.76837158203125e-06 Z" stroke="none" fill="#fff"/>
        </g>
        <g id="Polígono_6" data-name="Polígono 6" transform="translate(5.468 12.447) rotate(49)" fill="#fff">
          <path d="M.96,0l.96,1.28H0Z" stroke="none"/>
          <path d="M 0.9599595069885254 0 L 1.919919490814209 1.279940009117126 L -4.76837158203125e-07 1.279940009117126 L 0.9599595069885254 0 Z" stroke="none" fill="#fff"/>
        </g>
        <path id="Trazado_43309" data-name="Trazado 43309" d="M283.651,18.11a1.992,1.992,0,0,0-1.816.953v-.806h-.974v5.6h.974V20.889a1.911,1.911,0,0,1,.448-1.395,1.582,1.582,0,0,1,1.177-.457,1.366,1.366,0,0,1,1.019.376,1.441,1.441,0,0,1,.37,1.059v3.382h.975V20.418a2.34,2.34,0,0,0-.594-1.686,2.081,2.081,0,0,0-1.579-.622" transform="translate(-273.291 -5.646)" fill="#fff"/>
        <path id="Trazado_43310" data-name="Trazado 43310" d="M324.223,18.11a2.83,2.83,0,0,0-2.118.838,2.889,2.889,0,0,0-.817,2.106,2.859,2.859,0,0,0,.838,2.112,2.944,2.944,0,0,0,2.168.838,2.736,2.736,0,0,0,2.464-1.266l-.828-.471a1.752,1.752,0,0,1-1.614.819,2.143,2.143,0,0,1-1.338-.419,1.844,1.844,0,0,1-.692-1.161h4.693a2.857,2.857,0,0,0,.034-.437,3.022,3.022,0,0,0-.778-2.094,2.588,2.588,0,0,0-2.011-.864m-1.938,2.544a1.86,1.86,0,0,1,1.938-1.624,1.8,1.8,0,0,1,1.176.419,1.887,1.887,0,0,1,.628,1.209Z" transform="translate(-307.994 -5.646)" fill="#fff"/>
        <path id="Trazado_43311" data-name="Trazado 43311" d="M370.386,19.217a2.377,2.377,0,0,0-2.107-1.11,2.732,2.732,0,0,0-2.027.846,3,3,0,0,0,0,4.144,2.722,2.722,0,0,0,2.027.851,2.387,2.387,0,0,0,2.107-1.12v.8a1.627,1.627,0,0,1-.5,1.257,1.935,1.935,0,0,1-1.372.46,1.83,1.83,0,0,1-1.826-.942l-.851.482a2.345,2.345,0,0,0,1.033,1.008,3.492,3.492,0,0,0,1.624.353,3.077,3.077,0,0,0,2.017-.689,2.36,2.36,0,0,0,.838-1.932V18.254h-.963Zm-.572,3.226a2.009,2.009,0,1,1,.572-1.419,1.933,1.933,0,0,1-.572,1.419" transform="translate(-345.878 -5.643)" fill="#fff"/>
        <path id="Trazado_43312" data-name="Trazado 43312" d="M418.477,19.219a2.377,2.377,0,0,0-2.117-1.11,2.687,2.687,0,0,0-2.005.858,3.062,3.062,0,0,0,0,4.189,2.687,2.687,0,0,0,2.005.858,2.374,2.374,0,0,0,2.117-1.109v.95h.975v-5.6h-.975Zm-.571,3.265a2.03,2.03,0,0,1-2.835,0,2.067,2.067,0,0,1,0-2.857,2.03,2.03,0,0,1,2.835,0,2.07,2.07,0,0,1,0,2.857" transform="translate(-387.17 -5.646)" fill="#fff"/>
        <rect id="Rectángulo_18629" data-name="Rectángulo 18629" width="0.975" height="5.601" transform="translate(33.481 12.61)" fill="#fff"/>
        <path id="Trazado_43313" data-name="Trazado 43313" d="M463.337,3.995a.647.647,0,0,0,.646-.648.647.647,0,0,0-.191-.465.619.619,0,0,0-.455-.2.628.628,0,0,0-.471.2.647.647,0,0,0-.191.465.628.628,0,0,0,.188.462.641.641,0,0,0,.474.188" transform="translate(-429.36 7.596)" fill="#fff"/>
        <path id="Trazado_43314" data-name="Trazado 43314" d="M237.023,19.582l-1.971.3a2.993,2.993,0,0,0-2.124,0l-2.012-.3.362,2.175a2.968,2.968,0,0,0-.085.72,2.762,2.762,0,0,0,2.735,2.789h.055a2.723,2.723,0,0,0,1.983-.806,2.679,2.679,0,0,0,.817-1.983,2.974,2.974,0,0,0-.085-.72Zm-5.389,1.326-.148-.768.778.11Zm3.686,2.916a1.872,1.872,0,0,1-3.2-1.347,1.83,1.83,0,0,1,.541-1.348,1.909,1.909,0,0,1,2.662,0,1.947,1.947,0,0,1,0,2.694m.984-2.9-.639-.649.772-.125Z" transform="translate(-230.42 -6.91)" fill="#fff"/>
      </g>
    </g>
    <ellipse id="Elipse_424" data-name="Elipse 424" cx="2.885" cy="2.884" rx="2.885" ry="2.884" transform="translate(523 771)" fill="#fff"/>
    <ellipse id="Elipse_425" data-name="Elipse 425" cx="2.885" cy="2.884" rx="2.885" ry="2.884" transform="translate(606 771)" fill="#fff"/>
  </g>
</svg>
